<svg width="362" height="517" fill="none" xmlns="http://www.w3.org/2000/svg"><path d="M217.997 437.407a10.002 10.002 0 01-8.76 1.515l-141.536-42.13a10 10 0 01-7.147-9.584v-28.901c0-1.354.273-2.691.819-3.931 2.634-5.986 11.095-24.756 17.5-33.863 1.058-1.505 1.792-3.207 2.352-4.959 2.257-7.063 8.954-16.635 13.236-22.314 2.255-2.99 6.057-4.299 9.716-3.498l178.757 39.097a10 10 0 017.768 8.395l5.091 36.711a10.001 10.001 0 01-3.998 9.443l-73.798 54.019z" fill="#BF252B"/><path d="M22.097 476.365c-12.204-3.461-17.459-22.579-11.738-42.701 5.722-20.122 20.253-33.627 32.457-30.166 12.204 3.462 17.46 22.58 11.738 42.702-5.722 20.121-20.253 33.627-32.457 30.165z" fill="#545ED7"/><path d="M29.116 471.313c-9.53-2.703-13.633-17.634-9.164-33.349 4.468-15.716 15.816-26.264 25.346-23.561 9.53 2.703 13.633 17.634 9.165 33.35-4.469 15.715-15.817 26.263-25.347 23.56z" fill="#fff"/><path d="M35.077 455.643c-4.641-1.317-6.64-8.585-4.465-16.235 2.175-7.65 7.7-12.784 12.342-11.468 4.64 1.317 6.64 8.585 4.465 16.235-2.175 7.65-7.7 12.784-12.342 11.468z" fill="#545ED7"/><path d="M222.424 297.127c-40.811-12.584-81.191-19.502-121.997-32.082 40.865-61.04 67.247-145.357 109.146-222.423 0 0 71.039 1.433 79.775 113.078 8.737 111.644 2.184 12.389 2.184 12.389l-69.108 129.038z" fill="#B6292F"/><path d="M286.35 160.658c-13.856 49.265-41.331 91.89-64.146 134.965 5.978 1.816 19.163 4.855 25.145 6.671 0 0 63.061-121.645 61.067-122.648-1.993-1.004-21.073-14.778-22.066-18.988z" fill="#E32E36"/><path d="M309.956 185.291l44.803-97.486s8.139-19.95-6.603-30.08l-29.413-15.103M296.995 407.825L282.511 241.26" stroke="#fff" stroke-width="9" stroke-miterlimit="10"/><path d="M281.548 458.058c-14.92-4.231-21.344-27.605-14.349-52.206 6.995-24.6 24.76-41.112 39.68-36.88 14.92 4.231 21.344 27.605 14.349 52.206-6.995 24.6-24.76 41.112-39.68 36.88z" fill="#545ED7"/><path d="M290.132 451.882c-11.652-3.305-16.669-21.559-11.206-40.772 5.463-19.213 19.338-32.109 30.99-28.804 11.651 3.305 16.669 21.559 11.205 40.772-5.463 19.213-19.337 32.109-30.989 28.804z" fill="#fff"/><path d="M265.441 274.873s5.727-31.977-8.411-38.764c-9.054-4.348-122.053-30.88-140.182-34.976-2.356-.533-4.848-.153-6.873 1.203-3.56 2.381-6.827 11.179 14.726 21.443" stroke="#fff" stroke-width="9" stroke-miterlimit="10"/><path d="M298.194 430.003c-4.764-1.351-6.816-8.81-4.584-16.659 2.232-7.85 7.903-13.118 12.666-11.767 4.764 1.352 6.816 8.81 4.584 16.66-2.232 7.849-7.903 13.117-12.666 11.766zM145.532 510.277c-12.996-3.686-18.592-24.047-12.499-45.476 6.093-21.429 21.568-35.813 34.565-32.127 12.997 3.687 18.593 24.047 12.5 45.477-6.094 21.429-21.569 35.812-34.566 32.126z" fill="#545ED7"/><path d="M153.011 504.898c-10.151-2.879-14.521-18.781-9.763-35.517 4.759-16.737 16.846-27.97 26.996-25.091 10.15 2.879 14.521 18.78 9.762 35.517-4.758 16.736-16.845 27.97-26.995 25.091z" fill="#fff"/><path d="M159.613 487.324c-4.644-1.318-6.644-8.594-4.466-16.252 2.177-7.659 7.708-12.799 12.352-11.482 4.645 1.318 6.644 8.594 4.467 16.252-2.178 7.659-7.708 12.799-12.353 11.482z" fill="#545ED7"/><path d="M260.268 72.098s-41.148-11.574-66.289 23.388c-21.224 27.997-42.593 71.844-42.593 71.844S100.678 76.44 118.03 49.814c17.355-26.622 118.96-30.996 142.238 22.284z" fill="#A21C21"/><path d="M310.444 184.358l-97.449 195.085s-33.988 67.751-59.732 78.965c-25.74 11.215-106.048-8.88-118.259-29.905-12.21-21.024 40.856-127.445 40.856-127.445" stroke="#fff" stroke-width="9" stroke-miterlimit="10"/><path d="M267.847 274.911c7.533 3.291 16.874-1.441 20.857-10.559 3.987-9.127 1.113-19.195-6.421-22.486-7.533-3.291-16.866 1.443-20.854 10.57-3.983 9.119-1.108 19.187 6.418 22.475z" fill="#FFF7CF"/><path d="M270.474 268.895c4.793 2.094 10.732-.915 13.265-6.713 2.537-5.806.709-12.208-4.084-14.302-4.785-2.091-10.725.918-13.261 6.724-2.533 5.798-.705 12.2 4.08 14.291z" fill="#FF7915"/><path d="M103.013 261.424s-63.109 6.208-39.831 64.661c10.346 25.979 142.305 57.29 144.14 27.013 1.835-30.277 40.027-50.804 40.027-50.804l-144.336-40.87z" fill="#E32E36"/><path d="M301.65 189.532s-18.21-1.767-16.636-13.191c6.927-50.22-8.836-125.272-78.719-133.199-69.882-7.927-90.831 12.316-90.831 12.316s2.566-22.953 14.882-34.895C147.416 4.01 158.135-1.137 199.012.26c40.877 1.396 57.994 6.642 70.222 14.336l.621.39s27.287-7.256 50.736 23.386c19.796 25.873 12.227 63.629 12.227 63.629l-31.168 87.531z" fill="#EE4A51"/><path d="M303.913 167.361s9.89-56.24-2.135-97.214-51.856-63.745-51.856-63.745 45.757.349 70.983 31.624c31.487 39.035 7.644 95.121 7.644 95.121s-25.864 61.547-26.771 55.35c-.907-6.197 2.135-21.136 2.135-21.136z" fill="#E32E36"/></svg>