<svg width="2101" height="1757" viewBox="0 0 2101 1757" fill="none" xmlns="http://www.w3.org/2000/svg">
<path d="M795.5 680.5C902.606 652.347 949 611.5 949 611.5C949 611.5 1341.76 565.369 1441.42 531.733C1565.99 489.688 1711.86 435.934 1775.21 481.173C1838.56 526.411 1883.81 700.978 1979.64 825.517C2075.47 950.056 2158.51 1465.77 2047.25 1497.17C1935.99 1528.58 1697.49 1684.51 1509.03 1707.93C1320.57 1731.35 1002.16 1684.51 731.247 1684.51C415.023 1684.51 277.141 1805.86 86.5544 1734.54C-104.032 1663.23 64.7083 1094.44 167.987 1004.5C271.265 914.555 296 850.5 491 779C671.426 712.844 620.5 726.5 795.5 680.5Z" fill="#002869"/>
<path d="M881.578 693.134C888.027 685.073 896.531 669.097 899.977 662.117C904.153 664.833 912.612 670.318 913.032 670.528C913.453 670.739 916.128 684.985 917.413 692.082C902.781 695.791 875.129 701.194 881.578 693.134Z" fill="#002869"/>
<path d="M1618 873.111V701.5L1575.9 618.636L1289.5 701.5C1271 1083.5 1365.15 971.88 1469.06 982.059C1598.94 994.783 1618 927.983 1618 873.111Z" fill="#DE383F"/>
<path d="M883 658C940.5 621.5 948.069 614.5 975 583C1031 517.5 996.956 487.792 1028.76 416.12C1053.29 360.828 1107.71 353.411 1137.25 294.328C1155.38 258.072 1141.94 210.142 1172.54 167.42C1207.33 118.835 1261.04 123.42 1295.3 71.0082C1328.56 20.0957 1371.08 -10.2978 1424.7 4.58334C1438.9 5.99176 1439.98 9.38066 1454.96 20.4626C1506.17 58.3402 1544.31 71.525 1544.31 71.525C1573.4 171.259 1635.55 181.954 1666.78 224.381C1717.61 293.417 1684.94 345.541 1712.09 413.741C1770.74 561.085 1581.47 611.899 1614.65 701.352L885 691L883 658Z" fill="#002869"/>
<path d="M1618.37 701.349H1290.04C1299.35 590.158 1330.4 541.116 1336.59 472.754C1337.36 464.264 1355.35 454.942 1382.26 453.616C1443.51 450.649 1547.93 461.909 1552.61 474.928C1573.71 533.628 1615.89 582.702 1618.37 701.349Z" fill="#DE383F"/>
<path d="M1327.16 403.989C1327.48 414.448 1327.89 469.341 1333.09 475.859C1371.47 523.99 1546.27 495.596 1558.74 481.875C1573.07 466.106 1555.56 423.202 1552.61 408.305C1546.45 377.158 1638.74 449.15 1638.74 449.15C1672.54 413.217 1674.4 365.102 1663.05 320.293C1652.53 278.711 1626.52 239.29 1588.58 212.491C1547.33 183.356 1490.52 168.672 1433.65 168.672C1278.82 168.672 1216.8 320.261 1241.39 396.162C1249.14 420.086 1326.57 384.441 1327.16 403.989Z" fill="#545ED7"/>
<path d="M1286.54 540.725C1285.17 543.956 1287.75 548.651 1300.43 550.758C1308.04 552.02 1308.47 550.896 1317 551.76C1327.42 552.817 1335.76 558.546 1341.17 552.975C1345.28 548.746 1343.1 544.051 1345.7 538.717C1348.18 533.64 1368.2 516.403 1379.97 507.471C1379.97 507.471 1363.64 487.974 1354.3 481.875C1354.3 481.875 1339.35 510.332 1323.56 526.25C1317.39 532.472 1306.15 536.105 1301.44 537.084C1289.59 539.557 1287.62 538.145 1286.54 540.725Z" fill="#FDB88E"/>
<path d="M1447.63 112.039C1456.42 113.877 1459.87 113.298 1463.72 113.444C1466.79 113.558 1469.41 115.29 1469.41 115.29L1476.27 98.4716C1474.06 96.2662 1465.36 87.504 1453.85 83.7482C1451.79 83.0736 1439.53 80.959 1438.19 82.5923C1437.27 83.7206 1438.65 84.5806 1440.63 85.2316C1436.41 84.4741 1431.83 84.0875 1431.31 85.8115C1430.98 86.9162 1432.81 87.9735 1435.2 88.869C1431.79 88.0958 1429.25 87.8867 1428.66 89.0269C1427.6 91.1099 1432.7 93.264 1436.41 94.4909C1433.79 93.7768 1431.26 93.3508 1431.04 94.6645C1430.53 97.5603 1439.76 99.4421 1443.83 101.036C1447.23 102.365 1450.41 105.088 1450.45 105.727C1447.06 107.183 1438.82 104.811 1438.15 108.48C1437.8 110.394 1441.28 110.71 1447.63 112.039Z" fill="#FDB88E"/>
<path d="M1593.38 367.378C1591.3 336.302 1601.08 309.558 1595.1 258.752C1593.61 246.072 1584.82 210.503 1569.44 191.246C1495.48 98.6334 1449.76 119.507 1434.03 115.4C1426.91 113.542 1412.68 134.933 1416.24 137.414C1462.66 184.153 1502.02 201.551 1499.5 231.515C1488.55 239.251 1489.9 249.315 1481.45 264.031C1454.81 310.383 1465.11 341.68 1450.79 378.484C1443.62 396.928 1415.6 398.052 1388.6 428.024C1370.39 448.231 1339.07 473.527 1328.49 510.576C1327.46 514.608 1351.06 538.425 1354.54 534.456C1378.38 521.824 1432.79 481.871 1452.06 477.5C1487.3 469.507 1538.63 482.999 1569.44 453.131C1591.73 431.519 1595.65 401.295 1593.38 367.378Z" fill="white"/>
<path d="M1461.2 102.44L1475.93 185.534C1478.22 206.309 1401 208.064 1397.68 185.573L1400.51 153.057L1461.2 102.44Z" fill="#DE383F"/>
<path d="M1475.91 106.666C1474.68 145.987 1444.14 170.499 1415.53 168.566C1395.67 167.224 1383.76 146.84 1379.31 135.162C1379.29 135.119 1379.26 135.063 1379.25 135.02C1377.1 129.785 1375.85 124.183 1375.46 118.647C1375.31 116.205 1375.4 113.866 1375.57 111.495C1375.69 109.708 1375.85 107.893 1375.97 106.011C1376.16 102.993 1376.02 99.7895 1375.93 96.1324C1375.64 84.7229 1377.76 79.752 1380.08 75.7911C1391.14 56.8661 1408.92 68.4057 1424.34 37.8149C1434.29 18.1127 1476.95 73.3017 1475.91 106.666Z" fill="#FDB88E"/>
<path d="M1435.68 119.164C1434.14 128.104 1442.65 135.762 1451.94 132.361C1454.76 131.327 1457.06 129.15 1458.24 126.388C1462.2 117.156 1454.76 108.114 1445.58 109.467C1440.51 110.217 1436.55 114.103 1435.68 119.164Z" fill="#DE383F"/>
<path d="M1388.6 123.69C1388.45 129.284 1384.47 133.86 1379.25 135.02C1377.1 129.785 1375.85 124.183 1375.46 118.648C1375.31 116.206 1375.4 113.866 1375.57 111.495C1376.04 111.452 1376.52 111.432 1377.01 111.444C1383.59 111.617 1388.77 117.109 1388.6 123.69Z" fill="#DE383F"/>
<path d="M1424.7 4.58458C1429.85 -0.599372 1511.2 -15.9224 1544.39 66.0503C1561.04 107.155 1557.16 113.83 1589.25 154.032L1614.12 234.462C1556.61 176.539 1525.12 206.609 1475.92 180.811C1451.33 167.915 1457.76 135.3 1455.66 93.9427C1453.88 58.8583 1399.48 63.2769 1409.51 40.0359C1424.02 6.40331 1424.7 4.58458 1424.7 4.58458Z" fill="#002869"/>
<path d="M1441.24 413.418C1433.46 408.956 1423.56 406.704 1419.71 405.149C1411.52 401.847 1403.46 394.355 1401.71 397.642C1397.24 406.076 1418.99 415.904 1418.08 421.246C1415.9 423.262 1406.86 422.547 1400.61 421.356C1393.12 419.928 1372.86 410.057 1371.79 414.491C1370.89 418.212 1385.48 425.83 1390.71 427.499C1385.26 425.806 1362.35 415.703 1362.41 422.113C1362.46 426.812 1389.47 435.933 1393.08 437.05C1391.31 436.592 1365.71 426.915 1366.1 431.653C1366.54 437.141 1390.19 444.009 1393.81 445.126C1391.57 444.565 1369.83 435.586 1370.58 441.488C1371.04 445.145 1392.15 453.675 1395.77 454.795C1411.73 459.743 1454.93 457.695 1460.23 456.488L1469.01 431.953C1469.01 431.953 1459.99 425.068 1455.35 422.382C1449.53 419.028 1444.16 415.095 1441.24 413.418Z" fill="#FAB898"/>
<path d="M1437.37 460.449C1461.02 481.875 1582.16 499.581 1638.74 449.146C1638.74 449.146 1594.08 334.01 1593.19 352.383C1591.36 390.367 1521.82 420.749 1456.82 407.655C1446.59 406.767 1429.69 450.164 1437.37 460.449Z" fill="#545ED7"/>
<path d="M1482.73 376.535C1489.43 370.558 1498.65 366.313 1502.1 363.998C1509.42 359.078 1515.77 350.079 1518.16 352.931C1524.28 360.258 1505.02 374.37 1507.01 379.411C1509.56 380.934 1518.26 378.366 1524.13 375.908C1531.16 372.965 1548.95 359.121 1550.91 363.236C1552.56 366.692 1539.85 377.163 1535.08 379.873C1540.06 377.092 1560.4 362.475 1561.65 368.76C1562.58 373.367 1538.03 387.87 1534.72 389.712C1536.36 388.896 1559.42 374.141 1560.02 378.859C1560.71 384.323 1538.99 395.926 1535.68 397.768C1537.77 396.754 1557.18 383.479 1557.67 389.409C1557.97 393.081 1539.07 405.789 1535.76 407.635C1521.17 415.774 1478.48 422.694 1473.04 422.607L1459.39 400.416C1459.39 400.416 1466.79 391.815 1470.79 388.229C1475.78 383.735 1480.22 378.776 1482.73 376.535Z" fill="#FDB88E"/>
<path d="M1491.2 427.172C1469.66 454.654 1275.43 498.851 1241.05 395.081C1241.05 395.081 1329.52 304.398 1331 322.735C1335.12 373.77 1414.9 390.367 1471.39 386.335C1481.62 385.443 1498.88 416.886 1491.2 427.172Z" fill="#545ED7"/>
<path d="M1392.74 104.748C1383.16 105.628 1378.89 100.476 1378.67 100.211C1378.22 99.6394 1378.31 98.803 1378.88 98.3454C1379.45 97.8917 1380.28 97.9785 1380.74 98.5466C1380.98 98.8306 1386.15 104.855 1398.61 100.795C1399.31 100.567 1400.05 100.949 1400.28 101.647C1400.51 102.346 1400.13 103.095 1399.43 103.32C1396.96 104.121 1394.74 104.563 1392.74 104.748Z" fill="#002869"/>
<path d="M1432.81 106.315C1426.89 106.859 1422.49 104.741 1422.2 104.595C1421.54 104.267 1421.27 103.474 1421.6 102.815C1421.92 102.16 1422.72 101.892 1423.37 102.216C1423.79 102.421 1433.81 107.183 1443.65 98.7991C1444.21 98.3257 1445.05 98.3888 1445.52 98.949C1445.99 99.5053 1445.93 100.346 1445.37 100.819C1441.01 104.535 1436.6 105.967 1432.81 106.315Z" fill="#002869"/>
<path d="M1410.44 131.654C1408.9 131.796 1407.31 131.595 1405.87 131.031C1403.45 130.076 1401.8 128.198 1401.36 125.874C1400.79 122.888 1402.66 120.446 1404.46 118.087C1405.36 116.915 1406.28 115.704 1406.86 114.469C1408.88 110.196 1409.06 102.981 1409.06 102.91C1409.08 102.176 1409.7 101.596 1410.42 101.612C1411.15 101.627 1411.73 102.235 1411.71 102.965C1411.71 103.284 1411.52 110.82 1409.26 115.605C1408.56 117.093 1407.54 118.418 1406.57 119.696C1404.99 121.768 1403.62 123.555 1403.96 125.377C1404.33 127.307 1405.92 128.198 1406.84 128.561C1409.01 129.417 1411.75 129.117 1413.49 127.835C1414.08 127.401 1414.91 127.528 1415.34 128.115C1415.77 128.707 1415.65 129.536 1415.06 129.97C1413.77 130.924 1412.13 131.496 1410.44 131.654Z" fill="#DE383F"/>
<path d="M1413.43 145.372C1406.89 145.419 1401.95 142.59 1401.64 142.409C1401.01 142.038 1400.8 141.225 1401.17 140.594C1401.54 139.963 1402.35 139.75 1402.98 140.121C1403.1 140.192 1413.22 145.932 1423.05 139.975C1423.67 139.596 1424.49 139.793 1424.87 140.42C1425.25 141.048 1425.05 141.864 1424.42 142.243C1420.61 144.555 1416.8 145.348 1413.43 145.372Z" fill="#DE383F"/>
<path d="M1541.13 121.448C1529.45 102.429 1508.1 118.533 1508.1 118.533C1487.85 112.24 1466.58 114.698 1454.8 127.275C1450.49 131.875 1452.76 138.314 1459.48 139.624C1450.64 140.444 1442.29 144.977 1438.92 150.351C1435.05 156.513 1438.98 168.057 1454.85 172.037C1464.5 174.46 1476.43 170.262 1488.17 169.994C1493.68 169.867 1501.61 172.822 1509.23 177.091C1515.7 185.352 1521.24 196.375 1524.24 202.979C1526.59 208.128 1534.98 209.39 1539.37 205.816C1540.14 205.185 1540.79 211.824 1541.66 211.832C1550.98 211.899 1551.07 178.425 1551.07 178.425C1559.98 164.826 1565.79 125.954 1541.13 121.448Z" fill="#002869"/>
<path d="M1537.48 186.693L1544.4 228.248L1494.16 242.711L1494.36 219.344L1537.48 186.693Z" fill="#DE383F"/>
<path d="M1531.49 198.868C1528.9 223.652 1507.63 228.919 1495.62 228.528C1484.72 228.185 1477.94 221.352 1471.9 212.692C1471.62 212.294 1471.3 211.793 1470.96 211.217C1469.43 208.625 1467.44 204.605 1466.77 202.616C1465.78 199.709 1465.41 196.509 1465.67 193.124C1465.75 191.897 1465.93 190.659 1466.19 189.384C1466.5 187.932 1466.7 186.433 1466.78 184.95C1466.79 184.764 1466.8 184.579 1466.8 184.39C1466.92 182.105 1466.78 179.801 1466.44 177.541C1466.1 175.15 1465.78 172.637 1465.58 170.684C1464.65 161.705 1464.68 150.797 1469.41 147.636C1476.55 142.109 1529.68 114.134 1537.93 162.096C1538.45 165.114 1534.83 169.299 1533.4 176.598C1548.16 170.514 1545.74 200.494 1531.49 198.868Z" fill="#FDB88E"/>
<path d="M1504.25 198.399C1504.49 203.914 1509.14 208.191 1514.65 207.958C1520.16 207.721 1524.44 203.062 1524.2 197.551C1523.97 192.035 1519.31 187.759 1513.8 187.992C1508.29 188.224 1504.02 192.884 1504.25 198.399Z" fill="#DE383F"/>
<path d="M1471.9 211.229C1471.58 211.244 1471.26 211.244 1470.96 211.217C1469.43 208.625 1467.44 204.605 1466.77 202.616C1465.78 199.709 1465.41 196.509 1465.67 193.124C1467.19 192.02 1469.03 191.345 1471.04 191.258C1476.56 191.037 1481.21 195.314 1481.44 200.821C1481.67 206.345 1477.4 211.004 1471.9 211.229Z" fill="#DE383F"/>
<path d="M1461.77 162.675C1461.77 162.675 1452.86 132.191 1483.48 123.512C1514.66 114.678 1514.68 128.727 1514.68 128.727C1522.52 124.076 1538.67 112.54 1550.86 129.97C1559.54 142.381 1559.17 158.545 1550.27 172.144C1546.33 178.164 1533.83 169.647 1531.41 183.139C1523.32 183.565 1523.53 166.096 1516.52 154.28C1515.63 152.765 1513.6 152.39 1512.2 153.452C1505.73 158.352 1467.56 169.051 1461.77 162.675Z" fill="#002869"/>
<path d="M1512.56 183.751C1513.5 183.06 1514.01 182.464 1514.07 182.389C1514.41 181.983 1514.36 181.376 1513.95 181.036C1513.54 180.701 1512.94 180.752 1512.6 181.159C1512.42 181.368 1508.31 186.09 1500.37 183.261C1499.87 183.084 1499.33 183.344 1499.15 183.841C1498.97 184.338 1499.23 184.891 1499.73 185.068C1506.12 187.349 1510.44 185.305 1512.56 183.751Z" fill="#002869"/>
<path d="M1484 186.185C1484.41 185.885 1484.3 185.013 1484.01 184.583C1483.72 184.141 1483.02 183.873 1482.58 184.165C1482.38 184.295 1477.54 187.262 1471.79 183.265C1471.36 182.961 1470.74 183.032 1470.43 183.466C1470.13 183.9 1470.44 184.776 1470.88 185.08C1477.72 189.846 1483.73 186.382 1483.96 186.208C1483.97 186.2 1483.98 186.192 1484 186.185Z" fill="#002869"/>
<path d="M1498.75 207.516C1499.17 207.205 1499.41 206.81 1499.1 206.38C1498.79 205.95 1498.27 205.946 1497.84 206.254C1497.79 206.285 1493.37 209.442 1489.42 207.311C1488.95 207.059 1488.39 207.26 1488.14 207.725C1487.89 208.191 1487.93 208.589 1488.39 208.842C1493.41 211.548 1498.52 207.686 1498.74 207.524C1498.74 207.52 1498.74 207.516 1498.75 207.516Z" fill="#DE383F"/>
<path d="M1493.97 200.289C1494.38 199.985 1494.45 199.358 1494.16 198.927C1493.86 198.486 1493.25 198.344 1492.81 198.639C1491.48 199.527 1490.11 199.819 1489.05 199.468C1488.51 199.29 1488.09 198.939 1487.96 198.565C1487.44 197.105 1487.98 196.414 1489.25 195.002C1490.69 193.4 1492.66 191.203 1492.08 186.67C1492.01 186.145 1491.53 185.77 1491.01 185.837C1490.48 185.901 1490.11 186.382 1490.18 186.91C1490.64 190.572 1489.21 192.169 1487.82 193.716C1486.61 195.069 1485.23 196.6 1486.14 199.2C1486.48 200.135 1487.37 200.967 1488.47 201.33C1489.43 201.646 1491.52 202.088 1493.93 200.316C1493.95 200.304 1493.96 200.296 1493.97 200.289Z" fill="#DE383F"/>
<path d="M1349.23 253.391C1346.53 255.967 1353.04 261.549 1353.68 265.191C1353.13 265.506 1349.1 264.338 1346.13 262.228C1342.57 259.703 1335.92 253.012 1333.78 255.024C1332.81 255.939 1334.56 257.813 1336.59 259.616C1333.53 257.186 1328.93 254.105 1327.77 256.136C1327.14 257.253 1328.71 259.265 1331.23 261.691C1329.17 260.188 1327.28 259.233 1326.54 260.117C1325.38 261.498 1328.22 265.108 1331.17 268.228C1329.54 266.93 1328.07 266.248 1327.63 267.641C1327 269.657 1335.5 278.746 1337.2 280.103C1346.65 287.67 1358.75 290.136 1361.8 290.767L1372.08 275.799C1372.08 275.799 1369.2 274.556 1367.41 272.051C1365.18 268.919 1363.77 265.707 1357.41 259.367C1352.81 254.783 1350.64 252.045 1349.23 253.391Z" fill="#FDB88E"/>
<path d="M1490.09 234.466C1465.64 249.296 1441.48 272.848 1369.71 268.169C1365.68 266.548 1350.62 288.021 1356.08 292.953C1370.02 305.542 1467.58 355.377 1537.05 311.673C1563.06 295.312 1581.6 253.051 1559.86 225.85C1553.18 217.494 1540.36 203.981 1490.09 234.466Z" fill="white"/>
<path d="M1552.12 178.922C1552.01 178.922 1551.91 178.902 1551.8 178.862C1551.35 178.689 1551.13 178.18 1551.3 177.726C1559.08 157.736 1560.21 141.139 1554.49 130.992C1551.59 125.855 1547.06 122.62 1541.38 121.638C1541.17 121.602 1540.97 121.484 1540.84 121.314C1530.1 107.597 1518.27 113.755 1511.91 117.061C1509.61 118.261 1508.45 118.86 1507.58 118.359C1505.49 117.168 1481.63 110.13 1461.93 122.557C1461.53 122.817 1460.98 122.695 1460.73 122.285C1460.47 121.874 1460.59 121.334 1461 121.078C1481.3 108.272 1505.28 115.207 1508.34 116.781C1508.77 116.726 1510.01 116.083 1511.11 115.511C1517.39 112.24 1530.43 105.455 1542.02 119.973C1548.07 121.117 1552.91 124.624 1556.02 130.136C1562 140.752 1560.91 157.882 1552.94 178.369C1552.8 178.709 1552.47 178.922 1552.12 178.922Z" fill="#545ED7"/>
</svg>
