<svg width="91" height="26" fill="none" xmlns="http://www.w3.org/2000/svg"><path d="M66.575.153l-.057-.048s-2.176 1.07-5.1 1.098C58.427 1.24 56.95 0 56.95 0l-2.34 3.17s1.87 1.126 4.832 1.087C64.687 4.21 66.575.153 66.575.153zM28.672 24.475c-2.617-.63-2.962-1.27-5.157-4.601L12.893 3.894c-1.524-2.29.681-2.92 1.227-2.92V.258H.978v.63c1.495 0 3.902 1.03 6.413 4.81l10.64 16.018c1.592 2.244-.546 3.017-1.955 3.017v.572H29.19v-.763a2.156 2.156 0 01-.518-.067z" fill="#000F27"/><path d="M16.593 8.83l.403.658 1.946-2.586c.096-.144 1.428-1.71 2.186-2.626.057-.076.134-.133.2-.2 2.915-2.94 5.34-3.083 6.558-3.236V.248H17.418v.535c1.658-.077 4.035.773 1.735 4.39l-2.56 3.657zm29.4 13.096v-8.762c0-3.762-2.894-6.052-7.62-6.052-3.566 0-6.452 1.489-6.557 1.536l.383 4.382h.077s4.065-6.453 6.634-5.365l-.115-.057c.076.029.153.067.23.114-.039-.019-.077-.038-.125-.057l.125.057c.987.535 1.773 1.843 1.773 4.153v1.613c-1.054.239-3.02.735-5.876 1.623-4.045 1.26-5.301 3.15-5.301 5.613 0 3.455 2.56 5.116 5.253 5.116 3.336 0 5.167-2.405 5.924-3.723v3.188h7.103v-.104c.02.019-1.907-1.031-1.907-3.275zm-5.176-.591c-.297.467-1.294 1.785-2.981 1.785-1.668 0-2.972-.898-2.972-3.18 0-3.216 4.084-5.211 5.953-5.956v7.35zm23.764-13.65h-1.956l-.019.095-5.972 13.497h-.23V11.073c.01-2.234 1.927-3.284 1.927-3.284v-.105H49.3v.105s1.917 1.05 1.927 3.284v10.844C51.218 24.15 49.3 25.2 49.3 25.2v.104h6.317l.067-.2 6.058-13.536h.26v10.338c0 2.244-1.928 3.294-1.928 3.294v.104h9.03v-.104s-1.917-1.05-1.926-3.284V11.082c0-2.243 1.927-3.293 1.927-3.293v-.105H64.58zM91 7.788v-.105H71.186v.105s1.917 1.05 1.926 3.284v10.834c0 2.244-1.926 3.284-1.926 3.284v.105h9.03v-.095s-1.917-1.05-1.927-3.284V8.38h5.608v13.526c-.01 2.244-1.937 3.294-1.937 3.294v.104h9.03v-.104s-1.917-1.05-1.926-3.294V11.082C89.074 8.84 91 7.79 91 7.79zM9.73 19.454l2.636-4.725-.336-.468-3.68 5.136C5.57 23.587 2.1 24.704.593 24.8c-.096.01-.182.01-.258.01H0v.495h12.29l-.01-.582c-.211-.028-3.307.44-3.164-3.007.039-.763.297-1.556.614-2.262z" fill="#000F27"/></svg>