<svg width="1440" height="1641" viewBox="0 0 1440 1641" fill="none" xmlns="http://www.w3.org/2000/svg">
<path d="M574.5 635.572C681.606 609.278 728 571.128 728 571.128C728 571.128 1120.76 528.043 1220.42 496.627C1344.99 457.358 1490.86 407.153 1554.21 449.405C1617.56 491.657 1662.81 654.698 1758.64 771.015C1854.47 887.331 1937.51 1369 1826.25 1398.33C1714.99 1427.66 1476.49 1573.3 1288.03 1595.17C1099.57 1617.04 781.159 1573.3 510.247 1573.3C194.023 1573.3 56.1406 1686.63 -134.446 1620.03C-325.032 1553.42 -156.292 1022.19 -53.0131 938.181C50.2655 854.175 75 794.349 270 727.569C450.426 665.781 399.5 678.535 574.5 635.572Z" fill="#002869"/>
<path d="M660.578 647.372C667.027 639.843 675.531 624.922 678.977 618.403C683.153 620.94 691.612 626.063 692.032 626.259C692.453 626.455 695.128 639.761 696.413 646.39C681.781 649.854 654.129 654.9 660.578 647.372Z" fill="#002869"/>
<path d="M1397 815.467V655.186L1354.9 577.793L1068.5 655.186C1050 1011.97 1144.15 907.715 1248.06 917.222C1377.94 929.105 1397 866.716 1397 815.467Z" fill="#DE383F"/>
<path d="M662 614.558C719.5 580.468 727.069 573.93 754 544.509C810 483.334 775.956 455.587 807.759 388.647C832.289 337.006 886.706 330.079 916.247 274.896C934.383 241.034 920.937 196.269 951.542 156.367C986.333 110.99 1040.04 115.271 1074.3 66.3201C1107.56 18.769 1150.08 -9.61797 1203.7 4.28074C1217.9 5.59617 1218.98 8.76133 1233.96 19.1117C1285.17 54.4885 1323.31 66.8028 1323.31 66.8028C1352.4 159.952 1414.55 169.941 1445.78 209.567C1496.61 274.045 1463.94 322.728 1491.09 386.425C1549.74 524.041 1360.47 571.5 1393.65 655.047L664 645.379L662 614.558Z" fill="#002869"/>
<path d="M1397.37 655.045H1069.04C1078.35 551.195 1109.4 505.391 1115.59 441.542C1116.36 433.613 1134.35 424.906 1161.26 423.667C1222.51 420.897 1326.93 431.413 1331.61 443.572C1352.71 498.397 1394.89 544.231 1397.37 655.045Z" fill="#DE383F"/>
<path d="M1106.16 377.317C1106.48 387.085 1106.89 438.354 1112.09 444.442C1150.47 489.395 1325.27 462.876 1337.74 450.061C1352.07 435.333 1334.56 395.262 1331.61 381.348C1325.45 352.258 1417.74 419.496 1417.74 419.496C1451.54 385.936 1453.4 340.997 1442.05 299.146C1431.53 260.31 1405.52 223.492 1367.58 198.462C1326.33 171.25 1269.52 157.536 1212.65 157.536C1057.82 157.536 995.801 299.117 1020.39 370.007C1028.14 392.351 1105.57 359.06 1106.16 377.317Z" fill="#545ED7"/>
<path d="M1065.54 505.026C1064.17 508.043 1066.75 512.428 1079.43 514.396C1087.04 515.575 1087.47 514.525 1096 515.332C1106.42 516.319 1114.76 521.669 1120.17 516.467C1124.28 512.517 1122.1 508.132 1124.7 503.15C1127.18 498.408 1147.2 482.309 1158.97 473.967C1158.97 473.967 1142.64 455.757 1133.3 450.061C1133.3 450.061 1118.35 476.639 1102.56 491.506C1096.39 497.317 1085.15 500.711 1080.44 501.625C1068.59 503.935 1066.62 502.616 1065.54 505.026Z" fill="#FDB88E"/>
<path d="M1226.63 104.642C1235.42 106.359 1238.87 105.817 1242.72 105.954C1245.79 106.061 1248.41 107.678 1248.41 107.678L1255.27 91.9703C1253.06 89.9106 1244.36 81.7268 1232.85 78.219C1230.79 77.5889 1218.53 75.6139 1217.19 77.1394C1216.27 78.1932 1217.65 78.9965 1219.63 79.6044C1215.41 78.897 1210.83 78.5359 1210.31 80.1461C1209.98 81.1778 1211.81 82.1653 1214.2 83.0017C1210.79 82.2795 1208.25 82.0842 1207.66 83.1491C1206.6 85.0946 1211.7 87.1065 1215.41 88.2524C1212.79 87.5855 1210.26 87.1876 1210.04 88.4146C1209.53 91.1191 1218.76 92.8767 1222.83 94.3654C1226.23 95.6071 1229.41 98.1495 1229.45 98.7465C1226.06 100.106 1217.82 97.8916 1217.15 101.318C1216.8 103.105 1220.28 103.4 1226.63 104.642Z" fill="#FDB88E"/>
<path d="M1372.38 343.123C1370.3 314.099 1380.08 289.12 1374.1 241.669C1372.61 229.826 1363.82 196.605 1348.44 178.62C1274.48 92.1214 1228.76 111.617 1213.03 107.781C1205.91 106.046 1191.68 126.024 1195.24 128.342C1241.66 171.995 1281.02 188.244 1278.5 216.23C1267.55 223.455 1268.9 232.855 1260.45 246.599C1233.81 289.891 1244.11 319.121 1229.79 353.496C1222.62 370.722 1194.6 371.772 1167.6 399.765C1149.39 418.638 1118.07 442.264 1107.49 476.867C1106.46 480.633 1130.06 502.877 1133.54 499.171C1157.38 487.372 1211.79 450.057 1231.06 445.975C1266.3 438.509 1317.63 451.111 1348.44 423.214C1370.73 403.029 1374.65 374.801 1372.38 343.123Z" fill="white"/>
<path d="M1240.2 95.6771L1254.93 173.284C1257.22 192.688 1180 194.328 1176.68 173.321L1179.51 142.952L1240.2 95.6771Z" fill="#DE383F"/>
<path d="M1254.91 99.6237C1253.68 136.349 1223.14 159.242 1194.53 157.437C1174.67 156.184 1162.76 137.145 1158.31 126.238C1158.29 126.198 1158.26 126.146 1158.25 126.106C1156.1 121.216 1154.85 115.984 1154.46 110.814C1154.31 108.533 1154.4 106.348 1154.57 104.134C1154.69 102.465 1154.85 100.77 1154.97 99.012C1155.16 96.1932 1155.02 93.2012 1154.93 89.7855C1154.64 79.1294 1156.76 74.4866 1159.08 70.7872C1170.14 53.1117 1187.92 63.8894 1203.34 35.3182C1213.29 16.9168 1255.95 68.4621 1254.91 99.6237Z" fill="#FDB88E"/>
<path d="M1214.68 111.297C1213.14 119.646 1221.65 126.798 1230.94 123.622C1233.76 122.657 1236.06 120.623 1237.24 118.044C1241.2 109.421 1233.76 100.976 1224.58 102.24C1219.51 102.94 1215.55 106.569 1214.68 111.297Z" fill="#DE383F"/>
<path d="M1167.6 115.523C1167.45 120.748 1163.47 125.023 1158.25 126.106C1156.1 121.216 1154.85 115.984 1154.46 110.814C1154.31 108.534 1154.4 106.348 1154.57 104.134C1155.04 104.093 1155.52 104.075 1156.01 104.086C1162.59 104.248 1167.77 109.377 1167.6 115.523Z" fill="#DE383F"/>
<path d="M1203.7 4.28187C1208.85 -0.559831 1290.2 -14.8712 1323.39 61.6895C1340.04 100.08 1336.16 106.315 1368.25 143.862L1393.12 218.982C1335.61 164.883 1304.12 192.968 1254.92 168.874C1230.33 156.829 1236.76 126.367 1234.66 87.7404C1232.88 54.9723 1178.48 59.0992 1188.51 37.3926C1203.02 5.98052 1203.7 4.28187 1203.7 4.28187Z" fill="#002869"/>
<path d="M1220.24 386.124C1212.46 381.956 1202.56 379.852 1198.71 378.401C1190.52 375.316 1182.46 368.319 1180.71 371.389C1176.24 379.267 1197.99 388.445 1197.08 393.434C1194.9 395.317 1185.86 394.65 1179.61 393.537C1172.12 392.204 1151.86 382.984 1150.79 387.126C1149.89 390.601 1164.48 397.716 1169.71 399.274C1164.26 397.694 1141.35 388.257 1141.41 394.245C1141.46 398.633 1168.47 407.152 1172.08 408.195C1170.31 407.768 1144.71 398.729 1145.1 403.154C1145.54 408.28 1169.19 414.695 1172.81 415.738C1170.57 415.215 1148.83 406.828 1149.58 412.34C1150.04 415.756 1171.15 423.723 1174.77 424.769C1190.73 429.39 1233.93 427.477 1239.23 426.35L1248.01 403.435C1248.01 403.435 1238.99 397.005 1234.35 394.495C1228.53 391.363 1223.16 387.69 1220.24 386.124Z" fill="#FAB898"/>
<path d="M1216.37 430.049C1240.02 450.061 1361.16 466.598 1417.74 419.492C1417.74 419.492 1373.08 311.958 1372.19 329.118C1370.36 364.594 1300.82 392.97 1235.82 380.741C1225.59 379.911 1208.69 420.443 1216.37 430.049Z" fill="#545ED7"/>
<path d="M1261.73 351.676C1268.43 346.094 1277.65 342.129 1281.1 339.966C1288.42 335.371 1294.77 326.966 1297.16 329.63C1303.28 336.473 1284.02 349.653 1286.01 354.362C1288.56 355.784 1297.26 353.386 1303.13 351.09C1310.16 348.341 1327.95 335.412 1329.91 339.255C1331.56 342.483 1318.85 352.262 1314.08 354.793C1319.06 352.195 1339.4 338.544 1340.65 344.413C1341.58 348.717 1317.03 362.262 1313.72 363.983C1315.36 363.22 1338.42 349.439 1339.02 353.846C1339.71 358.95 1317.99 369.786 1314.68 371.507C1316.77 370.56 1336.18 358.161 1336.67 363.699C1336.97 367.13 1318.07 378.998 1314.76 380.722C1300.17 388.324 1257.48 394.787 1252.04 394.706L1238.39 373.979C1238.39 373.979 1245.79 365.947 1249.79 362.597C1254.78 358.401 1259.22 353.769 1261.73 351.676Z" fill="#FDB88E"/>
<path d="M1270.2 398.969C1248.66 424.637 1054.43 465.916 1020.05 368.998C1020.05 368.998 1108.52 284.301 1110 301.427C1114.12 349.093 1193.9 364.594 1250.39 360.829C1260.62 359.996 1277.88 389.363 1270.2 398.969Z" fill="#545ED7"/>
<path d="M1171.74 97.8327C1162.16 98.6544 1157.89 93.8422 1157.67 93.5953C1157.22 93.061 1157.31 92.2799 1157.88 91.8524C1158.45 91.4287 1159.28 91.5097 1159.74 92.0403C1159.98 92.3056 1165.15 97.9322 1177.61 94.1406C1178.31 93.9269 1179.05 94.2843 1179.28 94.9365C1179.51 95.5887 1179.13 96.2888 1178.43 96.4988C1175.96 97.2468 1173.74 97.6595 1171.74 97.8327Z" fill="#002869"/>
<path d="M1211.81 99.2955C1205.89 99.804 1201.49 97.8253 1201.2 97.689C1200.54 97.3832 1200.27 96.6425 1200.6 96.0272C1200.92 95.4155 1201.72 95.165 1202.37 95.4671C1202.79 95.6587 1212.81 100.106 1222.65 92.2762C1223.21 91.834 1224.05 91.893 1224.52 92.4162C1224.99 92.9357 1224.93 93.7206 1224.37 94.1628C1220.01 97.6337 1215.6 98.9713 1211.81 99.2955Z" fill="#002869"/>
<path d="M1189.44 122.962C1187.9 123.095 1186.31 122.907 1184.87 122.38C1182.45 121.488 1180.8 119.734 1180.36 117.564C1179.79 114.775 1181.66 112.494 1183.46 110.29C1184.36 109.196 1185.28 108.065 1185.86 106.912C1187.88 102.921 1188.06 96.1817 1188.06 96.1154C1188.08 95.43 1188.7 94.8883 1189.42 94.9031C1190.15 94.9178 1190.73 95.4853 1190.71 96.1669C1190.71 96.4654 1190.52 103.503 1188.26 107.973C1187.56 109.362 1186.54 110.6 1185.57 111.794C1183.99 113.728 1182.62 115.397 1182.96 117.1C1183.33 118.902 1184.92 119.734 1185.84 120.073C1188.01 120.873 1190.75 120.593 1192.49 119.395C1193.08 118.99 1193.91 119.108 1194.34 119.657C1194.77 120.21 1194.65 120.983 1194.06 121.389C1192.77 122.28 1191.13 122.815 1189.44 122.962Z" fill="#DE383F"/>
<path d="M1192.43 135.774C1185.89 135.818 1180.95 133.176 1180.64 133.007C1180.01 132.66 1179.8 131.901 1180.17 131.312C1180.54 130.722 1181.35 130.523 1181.98 130.87C1182.1 130.936 1192.22 136.297 1202.05 130.733C1202.67 130.379 1203.49 130.564 1203.87 131.15C1204.25 131.735 1204.05 132.498 1203.42 132.852C1199.61 135.011 1195.8 135.752 1192.43 135.774Z" fill="#DE383F"/>
<path d="M1320.13 113.43C1308.45 95.6662 1287.1 110.707 1287.1 110.707C1266.85 104.83 1245.58 107.126 1233.8 118.872C1229.49 123.169 1231.76 129.182 1238.48 130.406C1229.64 131.172 1221.29 135.406 1217.92 140.424C1214.05 146.18 1217.98 156.961 1233.85 160.679C1243.5 162.942 1255.43 159.021 1267.17 158.77C1272.68 158.653 1280.61 161.412 1288.23 165.399C1294.7 173.115 1300.24 183.41 1303.24 189.578C1305.59 194.387 1313.98 195.566 1318.37 192.228C1319.14 191.638 1319.79 197.839 1320.66 197.847C1329.98 197.909 1330.07 166.645 1330.07 166.645C1338.98 153.943 1344.79 117.638 1320.13 113.43Z" fill="#002869"/>
<path d="M1316.48 174.368L1323.4 213.179L1273.16 226.687L1273.36 204.862L1316.48 174.368Z" fill="#DE383F"/>
<path d="M1310.49 185.739C1307.9 208.886 1286.63 213.805 1274.62 213.44C1263.72 213.12 1256.94 206.738 1250.9 198.65C1250.62 198.278 1250.3 197.81 1249.96 197.272C1248.43 194.851 1246.44 191.096 1245.77 189.239C1244.78 186.524 1244.41 183.535 1244.67 180.374C1244.75 179.228 1244.93 178.071 1245.19 176.881C1245.5 175.525 1245.7 174.125 1245.78 172.739C1245.79 172.566 1245.8 172.393 1245.8 172.216C1245.92 170.082 1245.78 167.931 1245.44 165.819C1245.1 163.586 1244.78 161.239 1244.58 159.415C1243.65 151.029 1243.68 140.841 1248.41 137.889C1255.55 132.727 1308.68 106.599 1316.93 151.394C1317.45 154.212 1313.83 158.122 1312.4 164.939C1327.16 159.257 1324.74 187.257 1310.49 185.739Z" fill="#FDB88E"/>
<path d="M1283.25 185.3C1283.49 190.451 1288.14 194.446 1293.65 194.228C1299.16 194.007 1303.44 189.656 1303.2 184.508C1302.97 179.357 1298.31 175.363 1292.8 175.58C1287.29 175.797 1283.02 180.149 1283.25 185.3Z" fill="#DE383F"/>
<path d="M1250.9 197.283C1250.58 197.298 1250.26 197.298 1249.96 197.272C1248.43 194.851 1246.44 191.096 1245.77 189.239C1244.78 186.524 1244.41 183.535 1244.67 180.374C1246.19 179.342 1248.03 178.712 1250.04 178.631C1255.56 178.425 1260.21 182.419 1260.44 187.563C1260.67 192.721 1256.4 197.073 1250.9 197.283Z" fill="#DE383F"/>
<path d="M1240.77 151.935C1240.77 151.935 1231.86 123.464 1262.48 115.357C1293.66 107.107 1293.68 120.228 1293.68 120.228C1301.52 115.884 1317.67 105.11 1329.86 121.389C1338.54 132.981 1338.17 148.077 1329.27 160.779C1325.33 166.401 1312.83 158.446 1310.41 171.048C1302.32 171.446 1302.53 155.13 1295.52 144.094C1294.63 142.679 1292.6 142.329 1291.2 143.32C1284.73 147.897 1246.56 157.89 1240.77 151.935Z" fill="#002869"/>
<path d="M1291.56 171.619C1292.5 170.974 1293.01 170.418 1293.07 170.348C1293.41 169.968 1293.36 169.401 1292.95 169.084C1292.54 168.771 1291.94 168.819 1291.6 169.198C1291.42 169.393 1287.31 173.804 1279.37 171.162C1278.87 170.996 1278.33 171.239 1278.15 171.704C1277.97 172.168 1278.23 172.684 1278.73 172.85C1285.12 174.979 1289.44 173.071 1291.56 171.619Z" fill="#002869"/>
<path d="M1263 173.892C1263.41 173.612 1263.3 172.798 1263.01 172.396C1262.72 171.984 1262.02 171.733 1261.58 172.006C1261.38 172.127 1256.54 174.898 1250.79 171.166C1250.36 170.882 1249.74 170.948 1249.43 171.354C1249.13 171.759 1249.44 172.577 1249.88 172.861C1256.72 177.312 1262.73 174.077 1262.96 173.914C1262.97 173.907 1262.98 173.9 1263 173.892Z" fill="#002869"/>
<path d="M1277.75 193.816C1278.17 193.525 1278.41 193.156 1278.1 192.754C1277.79 192.353 1277.27 192.349 1276.84 192.637C1276.79 192.666 1272.37 195.614 1268.42 193.624C1267.95 193.388 1267.39 193.576 1267.14 194.011C1266.89 194.446 1266.93 194.818 1267.39 195.054C1272.41 197.581 1277.52 193.974 1277.74 193.823C1277.74 193.819 1277.74 193.816 1277.75 193.816Z" fill="#DE383F"/>
<path d="M1272.97 187.065C1273.38 186.781 1273.45 186.196 1273.16 185.794C1272.86 185.381 1272.25 185.249 1271.81 185.525C1270.48 186.354 1269.11 186.627 1268.05 186.299C1267.51 186.133 1267.09 185.805 1266.96 185.455C1266.44 184.092 1266.98 183.447 1268.25 182.128C1269.69 180.632 1271.66 178.579 1271.08 174.346C1271.01 173.855 1270.53 173.505 1270.01 173.568C1269.48 173.627 1269.11 174.077 1269.18 174.57C1269.64 177.99 1268.21 179.482 1266.82 180.926C1265.61 182.19 1264.23 183.62 1265.14 186.048C1265.48 186.921 1266.37 187.699 1267.47 188.038C1268.43 188.333 1270.52 188.745 1272.93 187.091C1272.95 187.08 1272.96 187.073 1272.97 187.065Z" fill="#DE383F"/>
<path d="M1128.23 236.661C1125.53 239.067 1132.04 244.281 1132.68 247.682C1132.13 247.977 1128.1 246.886 1125.13 244.915C1121.57 242.557 1114.92 236.308 1112.78 238.187C1111.81 239.042 1113.56 240.792 1115.59 242.476C1112.53 240.206 1107.93 237.328 1106.77 239.226C1106.14 240.269 1107.71 242.148 1110.23 244.414C1108.17 243.01 1106.28 242.118 1105.54 242.944C1104.38 244.233 1107.22 247.605 1110.17 250.519C1108.54 249.307 1107.07 248.67 1106.63 249.97C1106 251.853 1114.5 260.343 1116.2 261.61C1125.65 268.678 1137.75 270.981 1140.8 271.57L1151.08 257.59C1151.08 257.59 1148.2 256.43 1146.41 254.09C1144.18 251.164 1142.77 248.165 1136.41 242.244C1131.81 237.962 1129.64 235.405 1128.23 236.661Z" fill="#FDB88E"/>
<path d="M1269.09 218.986C1244.64 232.837 1220.48 254.834 1148.71 250.464C1144.68 248.95 1129.62 269.006 1135.08 273.612C1149.02 285.37 1246.58 331.915 1316.05 291.096C1342.06 275.815 1360.6 236.345 1338.86 210.939C1332.18 203.134 1319.36 190.514 1269.09 218.986Z" fill="white"/>
<path d="M1331.12 167.109C1331.01 167.109 1330.91 167.09 1330.8 167.054C1330.35 166.892 1330.13 166.416 1330.3 165.992C1338.08 147.322 1339.21 131.821 1333.49 122.343C1330.59 117.546 1326.06 114.525 1320.38 113.607C1320.17 113.574 1319.97 113.463 1319.84 113.305C1309.1 100.493 1297.27 106.245 1290.91 109.333C1288.61 110.453 1287.45 111.013 1286.58 110.545C1284.49 109.432 1260.63 102.859 1240.93 114.466C1240.53 114.709 1239.98 114.595 1239.73 114.211C1239.47 113.828 1239.59 113.323 1240 113.084C1260.3 101.123 1284.28 107.601 1287.34 109.071C1287.77 109.02 1289.01 108.419 1290.11 107.885C1296.39 104.83 1309.43 98.4924 1321.02 112.052C1327.07 113.121 1331.91 116.396 1335.02 121.544C1341 131.459 1339.91 147.458 1331.94 166.593C1331.8 166.91 1331.47 167.109 1331.12 167.109Z" fill="#545ED7"/>
</svg>
