<svg width="49" height="52" fill="none" xmlns="http://www.w3.org/2000/svg"><path d="M47.413 22.956c.109-.652.109-1.412.109-2.065C47.522 9.913 38.609 1 27.63 1v22.065L41.326 6.543M1 9.37l5.326 12.608M20.13 35.783h13.587c7.61 0 13.805-5.761 13.805-12.718H6.326c0 6.957 6.196 12.718 13.804 12.718zm3.37 9.673a5.543 5.543 0 11-11.087 0 5.543 5.543 0 0111.087 0zm16.522 0a5.543 5.543 0 11-11.087 0 5.543 5.543 0 0111.087 0z" stroke="#DE383F" stroke-width="2" stroke-miterlimit="10" stroke-linecap="round" stroke-linejoin="round"/></svg>