<svg width="218" height="366" viewBox="0 0 218 366" fill="none" xmlns="http://www.w3.org/2000/svg">
<path d="M133.582 307.196C130.873 309.529 127.125 310.238 123.752 309.057L43.8447 281.075C39.8345 279.671 37.1496 275.886 37.1496 271.637V253.385C37.1496 252.218 37.3497 251.07 37.7601 249.977C39.4154 245.568 44.1142 233.381 47.8205 226.939C48.642 225.511 49.2258 223.953 49.6997 222.375C50.9029 218.368 53.6621 213.366 55.985 209.555C58.1512 206.002 62.4139 204.443 66.4444 205.48L168.014 231.615C172.014 232.644 174.97 236.026 175.453 240.128L178.15 263.002C178.539 266.303 177.262 269.582 174.744 271.75L133.582 307.196Z" fill="#BF252B"/>
<path d="M14.0766 336.395C6.75495 333.951 3.60217 320.458 7.03468 306.256C10.4672 292.055 19.1852 282.522 26.5068 284.965C33.8285 287.409 36.9813 300.902 33.5488 315.104C30.1163 329.305 21.3983 338.838 14.0766 336.395Z" fill="#545ED7"/>
<path d="M18.2876 332.829C12.5701 330.921 10.1085 320.383 12.7893 309.291C15.4702 298.199 22.2783 290.754 27.9958 292.662C33.7132 294.57 36.1749 305.108 33.494 316.2C30.8132 327.292 24.005 334.737 18.2876 332.829Z" fill="white"/>
<path d="M21.8636 321.768C19.0792 320.839 17.8798 315.709 19.1848 310.31C20.4897 304.911 23.8048 301.287 26.5892 302.217C29.3736 303.146 30.573 308.276 29.268 313.675C27.9631 319.074 24.648 322.698 21.8636 321.768Z" fill="#545ED7"/>
<path d="M134.262 209.889C109.778 201.007 85.5523 196.124 61.0704 187.245C85.5875 144.164 101.415 84.6529 126.552 30.2605C126.552 30.2605 169.172 31.272 174.413 110.07C179.654 188.868 175.723 118.814 175.723 118.814L134.262 209.889Z" fill="#B6292F"/>
<path d="M172.614 113.57C164.302 148.341 147.818 178.425 134.13 208.827C137.716 210.109 145.627 212.254 149.216 213.536C149.216 213.536 187.049 127.679 185.853 126.971C184.657 126.263 173.21 116.541 172.614 113.57Z" fill="#E32E36"/>
<path d="M186.776 130.955L213.655 62.1501C213.655 62.1501 218.538 48.0695 209.694 40.9207L192.048 30.2605" stroke="white" stroke-width="5" stroke-miterlimit="10"/>
<path d="M179 288.02L170.31 170.458" stroke="white" stroke-width="5" stroke-miterlimit="10"/>
<path d="M169.733 323.474C160.782 320.487 156.928 303.99 161.125 286.627C165.321 269.264 175.98 257.61 184.931 260.597C193.882 263.583 197.736 280.08 193.539 297.443C189.343 314.806 178.684 326.461 169.733 323.474Z" fill="#545ED7"/>
<path d="M174.883 319.115C167.892 316.782 164.882 303.898 168.16 290.338C171.437 276.777 179.761 267.675 186.752 270.008C193.742 272.34 196.752 285.224 193.475 298.785C190.197 312.345 181.873 321.447 174.883 319.115Z" fill="white"/>
<path d="M160.07 194.182C160.07 194.182 163.506 171.613 155.024 166.823C149.592 163.754 81.7986 145.028 70.9226 142.137C69.509 141.761 68.0141 142.029 66.799 142.986C64.663 144.666 62.703 150.876 75.6338 158.12" stroke="white" stroke-width="5" stroke-miterlimit="10"/>
<path d="M179.72 303.672C176.862 302.718 175.63 297.454 176.969 291.914C178.308 286.374 181.711 282.656 184.569 283.61C187.426 284.563 188.658 289.828 187.319 295.368C185.98 300.908 182.577 304.626 179.72 303.672Z" fill="#545ED7"/>
<path d="M88.1313 360.329C80.334 357.728 76.9766 343.357 80.6322 328.233C84.2878 313.108 93.5721 302.956 101.369 305.558C109.167 308.16 112.524 322.53 108.868 337.655C105.213 352.779 95.9285 362.931 88.1313 360.329Z" fill="#545ED7"/>
<path d="M92.6185 356.533C86.5288 354.501 83.9066 343.277 86.7617 331.465C89.6167 319.652 96.8678 311.724 102.958 313.756C109.047 315.788 111.669 327.011 108.814 338.824C105.959 350.636 98.7082 358.565 92.6185 356.533Z" fill="white"/>
<path d="M96.5792 344.129C93.7927 343.199 92.5929 338.064 93.8994 332.658C95.2058 327.253 98.5237 323.625 101.31 324.555C104.097 325.485 105.296 330.62 103.99 336.025C102.684 341.431 99.3656 345.059 96.5792 344.129Z" fill="#545ED7"/>
<path d="M156.967 51.0644C156.967 51.0644 132.28 42.8957 117.197 67.5718C104.464 87.3315 91.6435 118.279 91.6435 118.279C91.6435 118.279 61.2217 54.129 71.6317 35.3363C82.0441 16.5465 143.001 13.4594 156.967 51.0644Z" fill="#A21C21"/>
<path d="M187.069 130.297L128.605 267.987C128.605 267.987 108.214 315.806 92.7692 323.721C77.3268 331.636 29.1462 317.453 21.8207 302.614C14.4951 287.775 46.3317 212.664 46.3317 212.664" stroke="white" stroke-width="5" stroke-miterlimit="10"/>
<path d="M161.18 190.399C165.699 192.373 171.303 189.534 173.693 184.064C176.085 178.588 174.36 172.548 169.841 170.573C165.321 168.599 159.722 171.44 157.329 176.915C154.94 182.386 156.664 188.426 161.18 190.399Z" fill="#FFF7CF"/>
<path d="M162.756 186.789C165.631 188.046 169.194 186.241 170.714 182.762C172.236 179.279 171.139 175.438 168.264 174.182C165.392 172.927 161.829 174.732 160.307 178.216C158.788 181.694 159.884 185.535 162.756 186.789Z" fill="#FF7915"/>
<path d="M62.6222 184.69C62.6222 184.69 24.7605 189.071 38.7259 230.327C44.9327 248.663 124.101 270.763 125.202 249.393C126.302 228.024 149.216 213.536 149.216 213.536L62.6222 184.69Z" fill="#E32E36"/>
<path d="M181.793 133.948C181.793 133.948 170.868 132.702 171.812 124.639C175.968 89.1936 166.511 36.2222 124.585 30.6275C82.6598 25.0329 70.0915 39.3202 70.0915 39.3202C70.0915 39.3202 71.6309 23.12 79.0199 14.6909C89.2612 3.008 95.6919 -0.62441 120.216 0.361154C144.74 1.34672 155.009 5.04916 162.345 10.48L162.718 10.7549C162.718 10.7549 179.088 5.63407 193.156 27.2609C205.033 45.5216 200.492 72.1699 200.492 72.1699L181.793 133.948Z" fill="#EE4A51"/>
<path d="M183.151 118.3C183.151 118.3 189.084 78.6067 181.87 49.6874C174.655 20.7681 150.759 4.69672 150.759 4.69672C150.759 4.69672 178.21 4.9427 193.345 27.0165C212.235 54.5676 197.931 94.1528 197.931 94.1528C197.931 94.1528 182.414 137.592 181.87 133.218C181.325 128.844 183.151 118.3 183.151 118.3Z" fill="#E32E36"/>
</svg>
