<svg width="673" height="547" viewBox="0 0 673 547" fill="none" xmlns="http://www.w3.org/2000/svg">
<g opacity="0.1">
<path d="M506.234 410.179H473.785V367.183H436.644V544.838H473.785V461.074H506.234V410.179Z" fill="white"/>
<path d="M475.399 546.453H435.029V365.568H475.399V408.575H507.848V462.7H475.399V546.453ZM438.258 543.224H472.171V459.46H504.619V411.793H472.171V368.786H438.258V543.224Z" fill="#22376F"/>
<path d="M394.272 408.026H342.095V544.839H394.272V408.026Z" fill="white"/>
<path d="M395.886 546.453H340.481V406.412H395.886V546.453ZM343.71 543.224H392.657V409.641H343.71V543.224Z" fill="#22376F"/>
<path d="M149.512 237.344H91.0611C90.1679 237.344 89.4468 236.623 89.4468 235.73V99.5741C89.4468 98.9714 89.7804 98.4226 90.3185 98.1427C90.8567 97.8629 91.5024 97.906 91.9975 98.2611L150.448 139.675C150.879 139.976 151.126 140.471 151.126 140.988V235.741C151.126 236.623 150.405 237.344 149.512 237.344ZM92.6755 234.116H147.898V141.817L92.6755 102.695V234.116Z" fill="#22376F"/>
<path d="M68.6858 524.013C63.1324 524.013 58.3108 520.128 57.0516 514.811C52.0901 513.294 48.5923 508.655 48.5923 503.381C48.5923 498.151 52.047 493.523 56.9547 491.984C58.0525 486.441 62.9063 482.384 68.675 482.384C74.476 482.384 79.3406 486.474 80.4169 492.059C85.26 493.674 88.5533 498.194 88.5533 503.392C88.5533 508.633 85.2277 513.154 80.3308 514.746C79.1038 520.095 74.2823 524.013 68.6858 524.013ZM68.6858 485.602C64.1978 485.602 60.4633 488.97 60.0112 493.426C59.9359 494.126 59.4301 494.696 58.7413 494.847C54.7376 495.697 51.8318 499.281 51.8318 503.381C51.8318 507.503 54.7484 511.087 58.7843 511.927C59.4516 512.067 59.9574 512.605 60.0543 513.283C60.6462 517.566 64.3593 520.795 68.6966 520.795C73.0446 520.795 76.7576 517.545 77.3388 513.24C77.4249 512.572 77.92 512.034 78.5765 511.884C82.5586 510.969 85.3353 507.471 85.3353 503.381C85.3353 499.313 82.5694 495.815 78.6088 494.89C77.9307 494.728 77.4357 494.158 77.3711 493.48C76.9298 488.992 73.1953 485.602 68.6858 485.602Z" fill="#22376F"/>
<path d="M68.5782 546.453C67.685 546.453 66.9639 545.732 66.9639 544.839V499.97C66.9639 499.077 67.685 498.355 68.5782 498.355C69.4715 498.355 70.1926 499.077 70.1926 499.97V544.839C70.1926 545.732 69.4715 546.453 68.5782 546.453Z" fill="#22376F"/>
<path d="M68.5786 514.327C64.2951 514.327 60.8188 511.464 60.8188 507.955V503.198C60.8188 502.305 61.5399 501.584 62.4332 501.584C63.3265 501.584 64.0476 502.305 64.0476 503.198V507.955C64.0476 509.656 66.1247 511.098 68.5786 511.098C71.0432 511.098 73.1203 509.656 73.1203 507.955V503.198C73.1203 502.305 73.8414 501.584 74.7347 501.584C75.628 501.584 76.3491 502.305 76.3491 503.198V507.955C76.3383 511.464 72.862 514.327 68.5786 514.327Z" fill="#22376F"/>
<path d="M573.112 531.622C566.676 531.622 561.101 527.08 559.712 520.892C553.933 519.202 549.854 513.821 549.854 507.719C549.854 501.659 553.901 496.3 559.616 494.578C560.81 488.131 566.428 483.396 573.112 483.396C579.838 483.396 585.456 488.163 586.619 494.664C592.258 496.483 596.111 501.702 596.111 507.719C596.111 513.789 592.215 519.019 586.522 520.806C585.166 527.048 579.591 531.622 573.112 531.622ZM573.112 486.624C567.709 486.624 563.221 490.671 562.672 496.041C562.597 496.741 562.091 497.311 561.402 497.462C556.581 498.484 553.093 502.8 553.093 507.729C553.093 512.68 556.613 517.007 561.456 518.008C562.123 518.147 562.629 518.686 562.726 519.364C563.447 524.519 567.913 528.393 573.122 528.393C578.353 528.393 582.83 524.487 583.519 519.31C583.605 518.643 584.1 518.104 584.757 517.954C589.546 516.856 592.893 512.648 592.893 507.729C592.893 502.832 589.567 498.635 584.8 497.516C584.122 497.354 583.627 496.784 583.562 496.106C583.035 490.692 578.536 486.624 573.112 486.624Z" fill="#22376F"/>
<path d="M572.983 546.453C572.089 546.453 571.368 545.732 571.368 544.838V503.726C571.368 502.832 572.089 502.111 572.983 502.111C573.876 502.111 574.597 502.832 574.597 503.726V544.838C574.597 545.732 573.876 546.453 572.983 546.453Z" fill="#22376F"/>
<path d="M572.982 520.268C568.118 520.268 564.157 517.039 564.157 513.078V507.504C564.157 506.61 564.878 505.889 565.772 505.889C566.665 505.889 567.386 506.61 567.386 507.504V513.078C567.386 515.22 569.947 517.039 572.982 517.039C576.017 517.039 578.579 515.231 578.579 513.078V507.504C578.579 506.61 579.3 505.889 580.193 505.889C581.087 505.889 581.808 506.61 581.808 507.504V513.078C581.797 517.039 577.847 520.268 572.982 520.268Z" fill="#22376F"/>
<path d="M173.835 546.453H105.332C104.439 546.453 103.718 545.732 103.718 544.838V394.885H66.7486C65.8554 394.885 65.1343 394.164 65.1343 393.271V253.262C65.1343 252.369 65.8554 251.647 66.7486 251.647H173.835C174.728 251.647 175.449 252.369 175.449 253.262V544.838C175.449 545.732 174.728 546.453 173.835 546.453ZM106.946 543.224H172.221V254.876H68.363V391.656H105.343C106.236 391.656 106.957 392.377 106.957 393.271V543.224H106.946Z" fill="#22376F"/>
<path d="M105.332 546.453H28.1544C27.2611 546.453 26.54 545.732 26.54 544.838V393.271C26.54 392.377 27.2611 391.656 28.1544 391.656H105.332C106.225 391.656 106.946 392.377 106.946 393.271V544.838C106.946 545.732 106.225 546.453 105.332 546.453ZM29.7688 543.224H103.718V394.885H29.7688V543.224Z" fill="#22376F"/>
<path d="M163.191 254.876H76.4674C75.5741 254.876 74.853 254.155 74.853 253.262V235.73C74.853 234.837 75.5741 234.116 76.4674 234.116H163.18C164.074 234.116 164.795 234.837 164.795 235.73V253.262C164.806 254.155 164.074 254.876 163.191 254.876ZM78.0818 251.648H161.566V237.344H78.0818V251.648Z" fill="#22376F"/>
<path d="M343.71 546.453H223.386V159.995H343.71V546.453ZM226.625 543.224H340.492V163.223H226.625V543.224Z" fill="#22376F"/>
<path d="M240.982 163.223H223.396V118.882H240.982V163.223ZM226.625 159.994H237.754V122.111H226.625V159.994Z" fill="#22376F"/>
<path d="M343.71 163.223H326.113V118.882H343.71V163.223ZM329.353 159.994H340.492V122.111H329.353V159.994Z" fill="#22376F"/>
<path d="M309.431 95.9365H291.544V65.8555H309.431V95.9365ZM294.773 92.7078H306.202V69.0842H294.773V92.7078Z" fill="#22376F"/>
<path d="M275.562 95.9365H257.675V65.8555H275.562V95.9365ZM260.904 92.7078H272.333V69.0842H260.904V92.7078Z" fill="#22376F"/>
<path d="M329.352 163.224H291.544V92.708H329.352V163.224ZM294.773 159.995H326.124V95.9367H294.773V159.995Z" fill="#22376F"/>
<path d="M275.562 163.224H237.753V92.708H275.562V163.224ZM240.982 159.995H272.333V95.9367H240.982V159.995Z" fill="#22376F"/>
<path d="M294.773 163.223H272.333V34.709H294.773V163.223ZM275.562 159.995H291.544V37.9377H275.562V159.995Z" fill="#22376F"/>
<path d="M284.829 196.791H262.389V179.475H284.829V196.791ZM265.628 193.563H281.611V182.703H265.628V193.563Z" fill="#22376F"/>
<path d="M265.628 196.791H243.199V179.475H265.628V196.791ZM246.417 193.563H262.389V182.703H246.417V193.563Z" fill="#22376F"/>
<path d="M246.417 196.791H223.396V179.475H246.417V196.791ZM226.625 193.563H243.189V182.703H226.625V193.563Z" fill="#22376F"/>
<path d="M343.71 196.791H320.011V179.475H343.71V196.791ZM323.24 193.563H340.481V182.703H323.24V193.563Z" fill="#22376F"/>
<path d="M304.039 196.791H281.6V179.475H304.039V196.791ZM284.828 193.563H300.811V182.703H284.828V193.563Z" fill="#22376F"/>
<path d="M323.24 196.791H300.811V179.475H323.251V196.791H323.24ZM304.04 193.563H320.022V182.703H304.04V193.563Z" fill="#22376F"/>
<path d="M284.829 223.396H262.389V206.08H284.829V223.396ZM265.628 220.168H281.611V209.308H265.628V220.168Z" fill="#22376F"/>
<path d="M265.628 223.396H243.199V206.08H265.628V223.396ZM246.417 220.168H262.389V209.308H246.417V220.168Z" fill="#22376F"/>
<path d="M246.417 223.396H223.396V206.08H246.417V223.396ZM226.625 220.168H243.189V209.308H226.625V220.168Z" fill="#22376F"/>
<path d="M343.71 223.396H320.011V206.08H343.71V223.396ZM323.24 220.168H340.481V209.308H323.24V220.168Z" fill="#22376F"/>
<path d="M304.039 223.396H281.6V206.08H304.039V223.396ZM284.828 220.168H300.811V209.308H284.828V220.168Z" fill="#22376F"/>
<path d="M323.24 223.396H300.811V206.08H323.251V223.396H323.24ZM304.04 220.168H320.022V209.308H304.04V220.168Z" fill="#22376F"/>
<path d="M284.829 250.001H262.389V232.684H284.829V250.001ZM265.628 246.772H281.611V235.913H265.628V246.772Z" fill="#22376F"/>
<path d="M265.628 250.001H243.199V232.684H265.628V250.001ZM246.417 246.772H262.389V235.913H246.417V246.772Z" fill="#22376F"/>
<path d="M246.417 250.001H223.396V232.684H246.417V250.001ZM226.625 246.772H243.189V235.913H226.625V246.772Z" fill="#22376F"/>
<path d="M343.71 250.001H320.011V232.684H343.71V250.001ZM323.24 246.772H340.481V235.913H323.24V246.772Z" fill="#22376F"/>
<path d="M304.039 250.001H281.6V232.684H304.039V250.001ZM284.828 246.772H300.811V235.913H284.828V246.772Z" fill="#22376F"/>
<path d="M323.24 250.001H300.811V232.684H323.251V250.001H323.24ZM304.04 246.772H320.022V235.913H304.04V246.772Z" fill="#22376F"/>
<path d="M284.829 276.606H262.389V259.289H284.829V276.606ZM265.628 273.377H281.611V262.518H265.628V273.377Z" fill="#22376F"/>
<path d="M265.628 276.606H243.199V259.289H265.628V276.606ZM246.417 273.377H262.389V262.518H246.417V273.377Z" fill="#22376F"/>
<path d="M246.417 276.606H223.396V259.289H246.417V276.606ZM226.625 273.377H243.189V262.518H226.625V273.377Z" fill="#22376F"/>
<path d="M343.71 276.606H320.011V259.289H343.71V276.606ZM323.24 273.377H340.481V262.518H323.24V273.377Z" fill="#22376F"/>
<path d="M304.039 276.606H281.6V259.289H304.039V276.606ZM284.828 273.377H300.811V262.518H284.828V273.377Z" fill="#22376F"/>
<path d="M323.24 276.606H300.811V259.289H323.251V276.606H323.24ZM304.04 273.377H320.022V262.518H304.04V273.377Z" fill="#22376F"/>
<path d="M284.829 303.221H262.389V285.904H284.829V303.221ZM265.628 299.992H281.611V289.133H265.628V299.992Z" fill="#22376F"/>
<path d="M265.628 303.221H243.199V285.904H265.628V303.221ZM246.417 299.992H262.389V289.133H246.417V299.992Z" fill="#22376F"/>
<path d="M246.417 303.221H223.396V285.904H246.417V303.221ZM226.625 299.992H243.189V289.133H226.625V299.992Z" fill="#22376F"/>
<path d="M343.71 303.221H320.011V285.904H343.71V303.221ZM323.24 299.992H340.481V289.133H323.24V299.992Z" fill="#22376F"/>
<path d="M304.039 303.221H281.6V285.904H304.039V303.221ZM284.828 299.992H300.811V289.133H284.828V299.992Z" fill="#22376F"/>
<path d="M323.24 303.221H300.811V285.904H323.251V303.221H323.24ZM304.04 299.992H320.022V289.133H304.04V299.992Z" fill="#22376F"/>
<path d="M284.829 329.826H262.389V312.509H284.829V329.826ZM265.628 326.597H281.611V315.738H265.628V326.597Z" fill="#22376F"/>
<path d="M265.628 329.826H243.199V312.509H265.628V329.826ZM246.417 326.597H262.389V315.738H246.417V326.597Z" fill="#22376F"/>
<path d="M246.417 329.826H223.396V312.509H246.417V329.826ZM226.625 326.597H243.189V315.738H226.625V326.597Z" fill="#22376F"/>
<path d="M343.71 329.826H320.011V312.509H343.71V329.826ZM323.24 326.597H340.481V315.738H323.24V326.597Z" fill="#22376F"/>
<path d="M304.039 329.826H281.6V312.509H304.039V329.826ZM284.828 326.597H300.811V315.738H284.828V326.597Z" fill="#22376F"/>
<path d="M323.24 329.826H300.811V312.509H323.251V329.826H323.24ZM304.04 326.597H320.022V315.738H304.04V326.597Z" fill="#22376F"/>
<path d="M284.829 356.431H262.389V339.114H284.829V356.431ZM265.628 353.202H281.611V342.343H265.628V353.202Z" fill="#22376F"/>
<path d="M265.628 356.431H243.199V339.114H265.628V356.431ZM246.417 353.202H262.389V342.343H246.417V353.202Z" fill="#22376F"/>
<path d="M246.417 356.431H223.396V339.114H246.417V356.431ZM226.625 353.202H243.189V342.343H226.625V353.202Z" fill="#22376F"/>
<path d="M343.71 356.431H320.011V339.114H343.71V356.431ZM323.24 353.202H340.481V342.343H323.24V353.202Z" fill="#22376F"/>
<path d="M304.039 356.431H281.6V339.114H304.039V356.431ZM284.828 353.202H300.811V342.343H284.828V353.202Z" fill="#22376F"/>
<path d="M323.24 356.431H300.811V339.114H323.251V356.431H323.24ZM304.04 353.202H320.022V342.343H304.04V353.202Z" fill="#22376F"/>
<path d="M284.829 383.036H262.389V365.719H284.829V383.036ZM265.628 379.807H281.611V368.947H265.628V379.807Z" fill="#22376F"/>
<path d="M265.628 383.036H243.199V365.719H265.628V383.036ZM246.417 379.807H262.389V368.947H246.417V379.807Z" fill="#22376F"/>
<path d="M246.417 383.036H223.396V365.719H246.417V383.036ZM226.625 379.807H243.189V368.947H226.625V379.807Z" fill="#22376F"/>
<path d="M343.71 383.036H320.011V365.719H343.71V383.036ZM323.24 379.807H340.481V368.947H323.24V379.807Z" fill="#22376F"/>
<path d="M304.039 383.036H281.6V365.719H304.039V383.036ZM284.828 379.807H300.811V368.947H284.828V379.807Z" fill="#22376F"/>
<path d="M323.24 383.036H300.811V365.719H323.251V383.036H323.24ZM304.04 379.807H320.022V368.947H304.04V379.807Z" fill="#22376F"/>
<path d="M284.829 409.641H262.389V392.324H284.829V409.641ZM265.628 406.412H281.611V395.552H265.628V406.412Z" fill="#22376F"/>
<path d="M265.628 409.641H243.199V392.324H265.628V409.641ZM246.417 406.412H262.389V395.552H246.417V406.412Z" fill="#22376F"/>
<path d="M246.417 409.641H223.396V392.324H246.417V409.641ZM226.625 406.412H243.189V395.552H226.625V406.412Z" fill="#22376F"/>
<path d="M343.71 409.641H320.011V392.324H343.71V409.641ZM323.24 406.412H340.481V395.552H323.24V406.412Z" fill="#22376F"/>
<path d="M304.039 409.641H281.6V392.324H304.039V409.641ZM284.828 406.412H300.811V395.552H284.828V406.412Z" fill="#22376F"/>
<path d="M323.24 409.641H300.811V392.324H323.251V409.641H323.24ZM304.04 406.412H320.022V395.552H304.04V406.412Z" fill="#22376F"/>
<path d="M284.829 436.245H262.389V418.929H284.829V436.245ZM265.628 433.017H281.611V422.157H265.628V433.017Z" fill="#22376F"/>
<path d="M265.628 436.245H243.199V418.929H265.628V436.245ZM246.417 433.017H262.389V422.157H246.417V433.017Z" fill="#22376F"/>
<path d="M246.417 436.245H223.396V418.929H246.417V436.245ZM226.625 433.017H243.189V422.157H226.625V433.017Z" fill="#22376F"/>
<path d="M343.71 436.245H320.011V418.929H343.71V436.245ZM323.24 433.017H340.481V422.157H323.24V433.017Z" fill="#22376F"/>
<path d="M304.039 436.245H281.6V418.929H304.039V436.245ZM284.828 433.017H300.811V422.157H284.828V433.017Z" fill="#22376F"/>
<path d="M323.24 436.245H300.811V418.929H323.251V436.245H323.24ZM304.04 433.017H320.022V422.157H304.04V433.017Z" fill="#22376F"/>
<path d="M438.258 546.453H392.657V307.074H438.258V546.453ZM395.886 543.224H435.029V310.303H395.886V543.224Z" fill="#22376F"/>
<path d="M424.321 230.758H406.605C406.143 230.758 405.712 230.564 405.4 230.22C405.099 229.876 404.948 229.423 404.991 228.971L413.849 147.037C413.935 146.219 414.634 145.595 415.452 145.595C416.27 145.595 416.97 146.219 417.056 147.037L425.913 228.971C425.967 229.423 425.816 229.886 425.504 230.22C425.214 230.564 424.773 230.758 424.321 230.758ZM408.403 227.529H422.523L419.294 197.653L415.463 162.223L408.403 227.529Z" fill="#22376F"/>
<path d="M434.222 310.303H396.704C386.609 310.303 378.397 302.092 378.397 291.996V245.836C378.397 235.741 386.609 227.529 396.704 227.529H434.222C444.317 227.529 452.529 235.741 452.529 245.836V291.996C452.529 302.092 444.306 310.303 434.222 310.303ZM396.704 230.758C388.395 230.758 381.626 237.517 381.626 245.836V291.996C381.626 300.305 388.395 307.075 396.704 307.075H434.222C442.53 307.075 449.3 300.305 449.3 291.996V245.836C449.3 237.517 442.53 230.758 434.222 230.758H396.704Z" fill="#22376F"/>
<path d="M413.235 266.015H393.669V246.449H413.235V266.015ZM396.898 262.787H410.006V249.678H396.898V262.787Z" fill="#22376F"/>
<path d="M437.246 266.015H417.68V246.449H437.246V266.015ZM420.909 262.787H434.018V249.678H420.909V262.787Z" fill="#22376F"/>
<path d="M413.235 291.383H393.669V271.816H413.235V291.383ZM396.898 288.154H410.006V275.045H396.898V288.154Z" fill="#22376F"/>
<path d="M437.246 291.383H417.68V271.816H437.246V291.383ZM420.909 288.154H434.018V275.045H420.909V288.154Z" fill="#22376F"/>
<path d="M462.011 396.586H447.449V382.024H462.011V396.586ZM450.678 393.357H458.782V385.253H450.678V393.357Z" fill="#22376F"/>
<path d="M375.47 439.377H360.908V424.815H375.47V439.377ZM364.137 436.148H372.241V428.044H364.137V436.148Z" fill="#22376F"/>
<path d="M496.655 444.812H482.319V430.477H496.655V444.812ZM485.548 441.583H493.426V433.705H485.548V441.583Z" fill="#22376F"/>
<path d="M477.412 444.812H463.076V430.477H477.412V444.812ZM466.316 441.583H474.194V433.705H466.316V441.583Z" fill="#22376F"/>
<path d="M502.209 489.153H487.873V474.818H502.209V489.153ZM491.102 485.925H498.98V478.047H491.102V485.925Z" fill="#22376F"/>
<path d="M526.166 489.153H511.83V474.818H526.166V489.153ZM515.059 485.925H522.937V478.047H515.059V485.925Z" fill="#22376F"/>
<path d="M458.179 444.812H443.844V430.477H458.179V444.812ZM447.072 441.583H454.951V433.705H447.072V441.583Z" fill="#22376F"/>
<path d="M709.321 546.453H472.17V459.46H709.321V546.453ZM475.399 543.224H706.092V462.689H475.399V543.224Z" fill="#22376F"/>
<path d="M747.905 546.453H606.604V312.768H747.905V546.453ZM609.833 543.224H744.676V315.996H609.833V543.224Z" fill="#22376F"/>
<path d="M728.607 315.997H636.04V194.392H728.607V315.997ZM639.268 312.768H725.379V197.62H639.268V312.768Z" fill="#22376F"/>
<path d="M703.23 197.62H661.428V72.6787H703.23V197.62ZM664.657 194.391H700.001V75.9074H664.657V194.391Z" fill="#22376F"/>
<path d="M529.685 526.22H524.982C525.498 524.767 525.789 523.206 525.789 521.57C525.789 513.864 519.536 507.611 511.83 507.611H496.536C491.091 507.611 486.398 510.732 484.095 515.274C483.6 515.199 483.094 515.145 482.578 515.145H469.275C463.646 515.145 459.083 519.708 459.083 525.337C459.083 525.638 459.105 525.929 459.126 526.22H455.865C450.721 526.22 446.556 530.385 446.556 535.529C446.556 540.674 450.721 544.839 455.865 544.839H529.685C534.829 544.839 538.994 540.674 538.994 535.529C538.994 530.395 534.819 526.22 529.685 526.22Z" fill="white"/>
<path d="M529.685 546.453H455.865C449.849 546.453 444.941 541.556 444.941 535.529C444.941 529.513 449.838 524.605 455.865 524.605H457.49C457.867 518.438 463.012 513.531 469.275 513.531H482.578C482.782 513.531 482.987 513.542 483.202 513.552C486.011 508.86 491.026 505.997 496.537 505.997H511.83C520.418 505.997 527.403 512.982 527.403 521.57C527.403 522.593 527.296 523.604 527.102 524.605H529.685C535.701 524.605 540.609 529.502 540.609 535.529C540.609 541.556 535.701 546.453 529.685 546.453ZM455.865 527.845C451.625 527.845 448.17 531.3 448.17 535.54C448.17 539.78 451.625 543.235 455.865 543.235H529.685C533.925 543.235 537.38 539.78 537.38 535.54C537.38 531.3 533.925 527.845 529.685 527.845H522.7L523.464 525.692C523.938 524.347 524.185 522.959 524.185 521.581C524.185 514.768 518.643 509.237 511.841 509.237H496.547C491.876 509.237 487.658 511.83 485.537 516.017L485.01 517.061L483.858 516.889C483.374 516.813 482.965 516.781 482.588 516.781H469.286C464.561 516.781 460.708 520.634 460.708 525.359C460.708 525.606 460.73 525.854 460.751 526.101L460.902 527.856H455.865V527.845Z" fill="#22376F"/>
<path d="M247.073 410.609H173.835V544.838H247.073V410.609Z" fill="white"/>
<path d="M248.688 546.453H172.221V408.995H248.688V546.453ZM175.449 543.224H245.459V412.223H175.449V543.224Z" fill="#22376F"/>
<path d="M302.673 450.376H247.074V544.839H302.673V450.376Z" fill="white"/>
<path d="M304.287 546.453H245.459V448.762H304.287V546.453ZM248.688 543.224H301.058V451.991H248.688V543.224Z" fill="#22376F"/>
<path d="M362.813 493.286H302.672V544.838H362.813V493.286Z" fill="white"/>
<path d="M364.438 546.453H301.069V491.672H364.438V546.453ZM304.287 543.224H361.199V494.901H304.287V543.224Z" fill="#22376F"/>
<path d="M270.288 526.22H265.585C266.102 524.767 266.392 523.206 266.392 521.57C266.392 513.864 260.139 507.611 252.433 507.611H237.14C231.705 507.611 227.002 510.732 224.699 515.274C224.204 515.199 223.698 515.145 223.181 515.145H209.879C204.25 515.145 199.687 519.708 199.687 525.337C199.687 525.638 199.708 525.929 199.73 526.22H196.469C191.324 526.22 187.159 530.385 187.159 535.529C187.159 540.674 191.324 544.839 196.469 544.839H270.288C275.433 544.839 279.598 540.674 279.598 535.529C279.598 530.395 275.433 526.22 270.288 526.22Z" fill="white"/>
<path d="M270.289 546.453H196.469C190.453 546.453 185.545 541.556 185.545 535.529C185.545 529.513 190.442 524.605 196.469 524.605H198.094C198.471 518.438 203.615 513.531 209.879 513.531H223.181C223.386 513.531 223.59 513.542 223.805 513.552C226.614 508.86 231.63 505.997 237.14 505.997H252.434C261.022 505.997 268.007 512.982 268.007 521.57C268.007 522.593 267.899 523.604 267.695 524.605H270.278C276.294 524.605 281.202 529.502 281.202 535.529C281.212 541.556 276.315 546.453 270.289 546.453ZM196.469 527.845C192.228 527.845 188.774 531.3 188.774 535.54C188.774 539.78 192.228 543.235 196.469 543.235H270.289C274.529 543.235 277.984 539.78 277.984 535.54C277.984 531.3 274.529 527.845 270.289 527.845H263.304L264.068 525.692C264.541 524.347 264.789 522.959 264.789 521.581C264.789 514.768 259.246 509.237 252.444 509.237H237.151C232.48 509.237 228.261 511.83 226.141 516.017L225.614 517.061L224.462 516.889C223.978 516.813 223.569 516.781 223.192 516.781H209.89C205.165 516.781 201.312 520.634 201.312 525.359C201.312 525.606 201.333 525.854 201.355 526.101L201.506 527.856H196.469V527.845Z" fill="#22376F"/>
<path d="M585.155 462.689H504.619V228.379L554.309 194.327L555.224 195.661L554.309 194.327L585.155 173.189V462.689ZM507.848 459.46H581.926V179.313L507.848 230.08V459.46Z" fill="#22376F"/>
<path d="M714.315 211.246H650.354V214.474H714.315V211.246Z" fill="#22376F"/>
<path d="M731.567 328.675H623.082V331.904H731.567V328.675Z" fill="#22376F"/>
<path d="M731.567 344.969H623.082V348.197H731.567V344.969Z" fill="#22376F"/>
<path d="M731.567 361.274H623.082V364.503H731.567V361.274Z" fill="#22376F"/>
<path d="M731.567 377.579H623.082V380.808H731.567V377.579Z" fill="#22376F"/>
<path d="M731.567 393.884H623.082V397.113H731.567V393.884Z" fill="#22376F"/>
<path d="M731.567 410.189H623.082V413.418H731.567V410.189Z" fill="#22376F"/>
<path d="M731.567 426.484H623.082V429.713H731.567V426.484Z" fill="#22376F"/>
<path d="M731.567 442.789H623.082V446.018H731.567V442.789Z" fill="#22376F"/>
<path d="M731.911 459.46H623.426V462.689H731.911V459.46Z" fill="#22376F"/>
<path d="M714.315 227.486H650.354V230.715H714.315V227.486Z" fill="#22376F"/>
<path d="M714.315 243.727H650.354V246.955H714.315V243.727Z" fill="#22376F"/>
<path d="M714.315 259.978H650.354V263.207H714.315V259.978Z" fill="#22376F"/>
<path d="M714.315 276.218H650.354V279.447H714.315V276.218Z" fill="#22376F"/>
<path d="M714.315 292.459H650.354V295.688H714.315V292.459Z" fill="#22376F"/>
<path d="M572.982 206.08H561.553V209.308H572.982V206.08Z" fill="#22376F"/>
<path d="M572.982 218.349H561.553V221.577H572.982V218.349Z" fill="#22376F"/>
<path d="M572.982 230.618H561.553V233.846H572.982V230.618Z" fill="#22376F"/>
<path d="M572.982 242.887H561.553V246.116H572.982V242.887Z" fill="#22376F"/>
<path d="M572.982 255.156H561.553V258.385H572.982V255.156Z" fill="#22376F"/>
<path d="M572.982 267.426H561.553V270.655H572.982V267.426Z" fill="#22376F"/>
<path d="M572.982 279.684H561.553V282.913H572.982V279.684Z" fill="#22376F"/>
<path d="M572.982 291.953H561.553V295.182H572.982V291.953Z" fill="#22376F"/>
<path d="M572.982 304.222H561.553V307.451H572.982V304.222Z" fill="#22376F"/>
<path d="M572.982 316.491H561.553V319.72H572.982V316.491Z" fill="#22376F"/>
<path d="M572.982 328.761H561.553V331.989H572.982V328.761Z" fill="#22376F"/>
<path d="M572.982 341.03H561.553V344.259H572.982V341.03Z" fill="#22376F"/>
<path d="M572.982 353.299H561.553V356.528H572.982V353.299Z" fill="#22376F"/>
<path d="M572.982 365.568H561.553V368.797H572.982V365.568Z" fill="#22376F"/>
<path d="M572.982 377.837H561.553V381.066H572.982V377.837Z" fill="#22376F"/>
<path d="M572.982 390.096H561.553V393.324H572.982V390.096Z" fill="#22376F"/>
<path d="M572.982 402.365H561.553V405.594H572.982V402.365Z" fill="#22376F"/>
<path d="M421.167 325.769H409.748V328.997H421.167V325.769Z" fill="#22376F"/>
<path d="M421.167 341.503H409.748V344.732H421.167V341.503Z" fill="#22376F"/>
<path d="M421.167 357.238H409.748V360.467H421.167V357.238Z" fill="#22376F"/>
<path d="M421.167 372.973H409.748V376.201H421.167V372.973Z" fill="#22376F"/>
<path d="M421.167 388.708H409.748V391.936H421.167V388.708Z" fill="#22376F"/>
<path d="M421.167 404.442H409.748V407.671H421.167V404.442Z" fill="#22376F"/>
<path d="M421.167 420.177H409.748V423.405H421.167V420.177Z" fill="#22376F"/>
<path d="M421.167 435.912H409.748V439.14H421.167V435.912Z" fill="#22376F"/>
<path d="M421.167 451.646H409.748V454.875H421.167V451.646Z" fill="#22376F"/>
<path d="M421.167 467.392H409.748V470.62H421.167V467.392Z" fill="#22376F"/>
<path d="M421.167 483.126H409.748V486.355H421.167V483.126Z" fill="#22376F"/>
<path d="M421.167 498.861H409.748V502.09H421.167V498.861Z" fill="#22376F"/>
<path d="M572.982 414.634H561.553V417.863H572.982V414.634Z" fill="#22376F"/>
<path d="M572.982 426.903H561.553V430.132H572.982V426.903Z" fill="#22376F"/>
<path d="M572.982 439.173H561.553V442.402H572.982V439.173Z" fill="#22376F"/>
<path d="M572.982 451.442H561.553V454.671H572.982V451.442Z" fill="#22376F"/>
<path d="M524.239 217.994H521.01V461.074H524.239V217.994Z" fill="#22376F"/>
<path d="M539.264 207.694H536.035V461.074H539.264V207.694Z" fill="#22376F"/>
<path d="M784.12 514.919H776.565C777.394 512.572 777.867 510.065 777.867 507.439C777.867 495.051 767.826 484.999 755.428 484.999H730.846C722.107 484.999 714.541 490.014 710.839 497.311C710.042 497.193 709.235 497.107 708.406 497.107H687.021C677.97 497.107 670.641 504.436 670.641 513.487C670.641 513.972 670.673 514.445 670.716 514.908H665.464C657.199 514.908 650.504 521.602 650.504 529.868C650.504 538.133 657.199 544.828 665.464 544.828H784.11C792.375 544.828 799.069 538.133 799.069 529.868C799.08 521.624 792.386 514.919 784.12 514.919Z" fill="white"/>
<path d="M784.12 546.453H665.475C656.338 546.453 648.901 539.016 648.901 529.879C648.901 520.741 656.338 513.304 665.475 513.304H669.037C669.145 503.468 677.174 495.503 687.032 495.503H708.417C708.902 495.503 709.418 495.525 709.956 495.579C714.24 488.034 722.139 483.385 730.857 483.385H755.438C768.698 483.385 779.493 494.169 779.493 507.439C779.493 509.408 779.245 511.367 778.75 513.304H784.131C793.268 513.304 800.705 520.741 800.705 529.879C800.695 539.016 793.258 546.453 784.12 546.453ZM665.475 516.533C658.114 516.533 652.13 522.517 652.13 529.879C652.13 537.24 658.114 543.224 665.475 543.224H784.12C791.482 543.224 797.466 537.24 797.466 529.879C797.466 522.517 791.482 516.533 784.12 516.533H774.283L775.048 514.381C775.855 512.11 776.264 509.774 776.264 507.439C776.264 495.955 766.922 486.614 755.438 486.614H730.857C722.979 486.614 715.865 490.994 712.292 498.043L711.764 499.087L710.613 498.915C709.784 498.786 709.085 498.732 708.417 498.732H687.032C678.885 498.732 672.266 505.351 672.266 513.498C672.266 513.929 672.298 514.359 672.331 514.779L672.481 516.533H665.475Z" fill="#22376F"/>
<path d="M130.462 176.278H110.552V156.368H130.462V176.278ZM113.78 173.049H127.234V159.596H113.78V173.049Z" fill="#22376F"/>
<path d="M130.462 213.473H110.552V193.562H130.462V213.473ZM113.78 210.244H127.234V196.791H113.78V210.244Z" fill="#22376F"/>
<path d="M71.9038 475.388H61.5826C60.6893 475.388 59.9683 474.667 59.9683 473.774V408.274C59.9683 407.38 60.6893 406.659 61.5826 406.659H71.9038C72.7971 406.659 73.5182 407.38 73.5182 408.274V473.774C73.5182 474.667 72.7971 475.388 71.9038 475.388ZM63.197 472.16H70.2895V409.888H63.197V472.16Z" fill="#22376F"/>
<path d="M92.0405 474.969H81.7193C80.8261 474.969 80.105 474.248 80.105 473.354V407.854C80.105 406.961 80.8261 406.24 81.7193 406.24H92.0405C92.9338 406.24 93.6549 406.961 93.6549 407.854V473.354C93.6549 474.248 92.9338 474.969 92.0405 474.969ZM83.3337 471.74H90.4262V409.468H83.3337V471.74Z" fill="#22376F"/>
<path d="M96.0226 394.885C95.1293 394.885 94.4082 394.164 94.4082 393.271V253.262C94.4082 252.369 95.1293 251.647 96.0226 251.647C96.9159 251.647 97.6369 252.369 97.6369 253.262V393.271C97.6369 394.164 96.9159 394.885 96.0226 394.885Z" fill="#22376F"/>
<path d="M123.811 546.453C122.918 546.453 122.197 545.732 122.197 544.838V253.262C122.197 252.369 122.918 251.647 123.811 251.647C124.704 251.647 125.426 252.369 125.426 253.262V544.838C125.426 545.732 124.704 546.453 123.811 546.453Z" fill="#22376F"/>
<path d="M149.512 546.453C148.619 546.453 147.897 545.732 147.897 544.838V253.262C147.897 252.369 148.619 251.647 149.512 251.647C150.405 251.647 151.126 252.369 151.126 253.262V544.838C151.126 545.732 150.405 546.453 149.512 546.453Z" fill="#22376F"/>
<path d="M233.233 425.149H187.676V428.378H233.233V425.149Z" fill="#22376F"/>
<path d="M233.233 439.409H187.676V442.638H233.233V439.409Z" fill="#22376F"/>
<path d="M233.233 453.67H187.676V456.899H233.233V453.67Z" fill="#22376F"/>
<path d="M233.233 467.919H187.676V471.148H233.233V467.919Z" fill="#22376F"/>
<path d="M233.233 482.18H187.676V485.408H233.233V482.18Z" fill="#22376F"/>
<path d="M233.233 496.439H187.676V499.668H233.233V496.439Z" fill="#22376F"/>
<path d="M302.672 479.338H269.298C268.405 479.338 267.684 478.617 267.684 477.724V466.864C267.684 465.971 268.405 465.25 269.298 465.25H302.672C303.566 465.25 304.287 465.971 304.287 466.864V477.724C304.287 478.617 303.566 479.338 302.672 479.338ZM270.912 476.109H301.058V468.479H270.912V476.109Z" fill="#22376F"/>
<path d="M362.824 527.845H316.481C315.587 527.845 314.866 527.124 314.866 526.231V515.371C314.866 514.478 315.587 513.757 316.481 513.757H362.824C363.717 513.757 364.438 514.478 364.438 515.371V526.231C364.438 527.113 363.706 527.845 362.824 527.845ZM318.084 524.616H361.199V516.986H318.084V524.616Z" fill="#22376F"/>
<path d="M302.425 504.565H269.298C268.405 504.565 267.684 503.844 267.684 502.951V493.276C267.684 492.382 268.405 491.661 269.298 491.661H302.425C303.318 491.661 304.039 492.382 304.039 493.276V502.951C304.039 503.844 303.307 504.565 302.425 504.565ZM270.912 501.337H300.81V494.89H270.912V501.337Z" fill="#22376F"/>
<path d="M580.193 71.8609H477.831C467.769 71.8609 459.589 63.6814 459.589 53.6185C459.589 43.5557 467.769 35.3762 477.831 35.3762H490.703C489.035 32.0075 488.163 28.3053 488.163 24.5169C488.163 10.9992 499.163 0 512.68 0C522.84 0 531.988 6.3929 535.572 15.7778C538.898 14.0558 542.589 13.1517 546.334 13.1517C558.873 13.1517 569.151 23.0101 569.829 35.387H580.193C590.256 35.387 598.436 43.5664 598.436 53.6293C598.436 63.6922 590.256 71.8609 580.193 71.8609ZM477.831 38.6049C469.555 38.6049 462.818 45.3422 462.818 53.6185C462.818 61.8949 469.555 68.6322 477.831 68.6322H580.193C588.47 68.6322 595.207 61.8949 595.207 53.6185C595.207 45.3422 588.47 38.6049 580.193 38.6049H568.236C567.806 38.6049 567.397 38.4327 567.084 38.1314C566.783 37.83 566.611 37.4103 566.622 36.9798C566.622 36.8937 566.632 36.8076 566.632 36.7215C566.632 25.4855 557.527 16.3805 546.345 16.3805C542.525 16.3805 538.79 17.4675 535.54 19.5231C535.109 19.7922 534.582 19.846 534.108 19.663C533.635 19.48 533.269 19.0926 533.129 18.5975C530.514 9.5463 522.108 3.22874 512.691 3.22874C500.949 3.22874 491.403 12.7858 491.403 24.5169C491.403 28.6389 492.598 32.6425 494.847 36.108C495.17 36.6031 495.191 37.2381 494.911 37.7547C494.632 38.2713 494.083 38.5942 493.491 38.5942H477.831V38.6049Z" fill="#22376F"/>
<path d="M20.7608 154.603C20.481 154.603 20.2011 154.527 19.9536 154.387C19.8567 154.334 10.2566 148.812 1.61437 148.812C0.721084 148.812 0 148.091 0 147.198C0 146.305 0.721084 145.584 1.61437 145.584C8.80369 145.584 16.2728 148.866 19.6845 150.577C20.8253 146.864 24.3124 139.793 34.2892 139.793C35.1825 139.793 35.9035 140.515 35.9035 141.408C35.9035 142.301 35.1825 143.022 34.2892 143.022C23.742 143.022 22.429 152.762 22.3751 153.182C22.3106 153.72 21.9769 154.194 21.4926 154.43C21.2558 154.549 21.0083 154.603 20.7608 154.603Z" fill="#22376F"/>
<path d="M382.82 69.1812C382.541 69.1812 382.261 69.1059 382.013 68.966C381.916 68.9121 372.316 63.391 363.674 63.391C362.781 63.391 362.06 62.6699 362.06 61.7766C362.06 60.8834 362.781 60.1623 363.674 60.1623C370.863 60.1623 378.332 63.4448 381.744 65.156C382.885 61.443 386.372 54.3721 396.338 54.3721C397.231 54.3721 397.952 55.0932 397.952 55.9864C397.952 56.8797 397.231 57.6008 396.338 57.6008C385.791 57.6008 384.478 67.3408 384.424 67.7606C384.359 68.2987 384.026 68.7722 383.541 69.009C383.315 69.1274 383.068 69.1812 382.82 69.1812Z" fill="#22376F"/>
<path d="M36.2159 183.661C35.936 183.661 35.6562 183.586 35.4087 183.446C35.3118 183.392 25.7117 177.871 17.0694 177.871C16.1762 177.871 15.4551 177.15 15.4551 176.257C15.4551 175.363 16.1762 174.642 17.0694 174.642C24.2588 174.642 31.7171 177.925 35.1396 179.636C36.2804 175.923 39.7675 168.852 49.7335 168.852C50.6268 168.852 51.3479 169.573 51.3479 170.466C51.3479 171.36 50.6268 172.081 49.7335 172.081C39.1863 172.081 37.8733 181.821 37.8302 182.241C37.7656 182.779 37.432 183.252 36.9477 183.489C36.7109 183.597 36.4634 183.661 36.2159 183.661Z" fill="#22376F"/>
<path d="M616.635 135.37C616.355 135.37 616.075 135.295 615.828 135.155C615.731 135.101 606.131 129.58 597.488 129.58C596.595 129.58 595.874 128.859 595.874 127.966C595.874 127.072 596.595 126.351 597.488 126.351C604.678 126.351 612.147 129.634 615.559 131.345C616.699 127.632 620.186 120.561 630.152 120.561C631.046 120.561 631.767 121.282 631.767 122.175C631.767 123.069 631.046 123.79 630.152 123.79C619.541 123.79 618.292 133.53 618.249 133.939C618.185 134.477 617.851 134.95 617.367 135.198C617.13 135.306 616.882 135.37 616.635 135.37Z" fill="#22376F"/>
<path d="M497.86 169.014C497.581 169.014 497.301 168.938 497.053 168.798C496.956 168.745 487.356 163.224 478.714 163.224C477.821 163.224 477.1 162.502 477.1 161.609C477.1 160.716 477.821 159.995 478.714 159.995C485.903 159.995 493.372 163.277 496.784 164.989C497.925 161.276 501.412 154.205 511.378 154.205C512.271 154.205 512.992 154.926 512.992 155.819C512.992 156.712 512.271 157.433 511.378 157.433C500.766 157.433 499.518 167.173 499.475 167.582C499.41 168.12 499.077 168.594 498.592 168.842C498.355 168.949 498.108 169.014 497.86 169.014Z" fill="#22376F"/>
</g>
</svg>
