<svg width="399" height="588" viewBox="0 0 399 588" fill="none" xmlns="http://www.w3.org/2000/svg">
<g opacity="0.1">
<path d="M423.854 438.64H367.762V585.718H423.854V438.64Z" fill="white"/>
<path d="M425.589 587.453H366.027V436.905H425.589V587.453ZM369.498 583.982H422.118V440.376H369.498V583.982Z" fill="#22376F"/>
<path d="M160.73 255.152H97.8935C96.9331 255.152 96.158 254.377 96.158 253.417V107.045C96.158 106.397 96.5166 105.807 97.0951 105.507C97.6736 105.206 98.3678 105.252 98.9 105.634L161.736 150.155C162.199 150.479 162.465 151.011 162.465 151.567V253.428C162.465 254.377 161.69 255.152 160.73 255.152ZM99.6289 251.681H158.994V152.457L99.6289 110.401V251.681Z" fill="#22376F"/>
<path d="M73.8391 563.329C67.869 563.329 62.6857 559.153 61.332 553.437C55.9983 551.806 52.238 546.819 52.238 541.15C52.238 535.527 55.952 530.552 61.2279 528.897C62.408 522.939 67.6261 518.577 73.8276 518.577C80.0638 518.577 85.2934 522.973 86.4504 528.978C91.6569 530.714 95.1973 535.573 95.1973 541.161C95.1973 546.796 91.6222 551.655 86.3578 553.368C85.0389 559.118 79.8555 563.329 73.8391 563.329ZM73.8391 522.036C69.0145 522.036 64.9997 525.658 64.5138 530.448C64.4328 531.2 63.889 531.813 63.1485 531.975C58.8445 532.889 55.7206 536.742 55.7206 541.15C55.7206 545.581 58.856 549.434 63.1948 550.336C63.9121 550.487 64.4559 551.065 64.56 551.794C65.1964 556.399 69.188 559.87 73.8507 559.87C78.525 559.87 82.5166 556.376 83.1414 551.748C83.2339 551.03 83.7662 550.452 84.4719 550.29C88.7528 549.307 91.7379 545.546 91.7379 541.15C91.7379 536.776 88.7644 533.016 84.5066 532.021C83.7777 531.848 83.2455 531.234 83.1761 530.505C82.7017 525.681 78.687 522.036 73.8391 522.036Z" fill="#22376F"/>
<path d="M73.7235 587.453C72.7632 587.453 71.988 586.678 71.988 585.717V537.482C71.988 536.522 72.7632 535.747 73.7235 535.747C74.6838 535.747 75.459 536.522 75.459 537.482V585.717C75.459 586.678 74.6838 587.453 73.7235 587.453Z" fill="#22376F"/>
<path d="M73.724 552.916C69.1192 552.916 65.3821 549.838 65.3821 546.067V540.953C65.3821 539.992 66.1573 539.217 67.1176 539.217C68.0779 539.217 68.8531 539.992 68.8531 540.953V546.067C68.8531 547.895 71.0861 549.445 73.724 549.445C76.3735 549.445 78.6065 547.895 78.6065 546.067V540.953C78.6065 539.992 79.3817 539.217 80.342 539.217C81.3023 539.217 82.0775 539.992 82.0775 540.953V546.067C82.066 549.838 78.3289 552.916 73.724 552.916Z" fill="#22376F"/>
<path d="M186.878 587.453H113.235C112.275 587.453 111.5 586.677 111.5 585.717V424.513H71.7567C70.7964 424.513 70.0212 423.738 70.0212 422.777V272.264C70.0212 271.304 70.7964 270.528 71.7567 270.528H186.878C187.838 270.528 188.613 271.304 188.613 272.264V585.717C188.613 586.677 187.838 587.453 186.878 587.453ZM114.971 583.982H185.142V273.999H73.4922V421.042H113.247C114.207 421.042 114.982 421.817 114.982 422.777V583.982H114.971Z" fill="#22376F"/>
<path d="M113.235 587.453H30.2667C29.3064 587.453 28.5312 586.678 28.5312 585.718V422.778C28.5312 421.818 29.3064 421.042 30.2667 421.042H113.235C114.195 421.042 114.97 421.818 114.97 422.778V585.718C114.97 586.678 114.195 587.453 113.235 587.453ZM32.0022 583.982H111.499V424.513H32.0022V583.982Z" fill="#22376F"/>
<path d="M175.435 274H82.2047C81.2444 274 80.4692 273.225 80.4692 272.264V253.417C80.4692 252.457 81.2444 251.682 82.2047 251.682H175.424C176.384 251.682 177.159 252.457 177.159 253.417V272.264C177.171 273.225 176.384 274 175.435 274ZM83.9402 270.529H173.688V255.153H83.9402V270.529Z" fill="#22376F"/>
<path d="M369.498 587.453H240.146V171.999H369.498V587.453ZM243.629 583.982H366.039V175.47H243.629V583.982Z" fill="#22376F"/>
<path d="M259.063 175.47H240.158V127.802H259.063V175.47ZM243.629 171.999H255.592V131.273H243.629V171.999Z" fill="#22376F"/>
<path d="M369.498 175.47H350.581V127.802H369.498V175.47ZM354.064 171.999H366.039V131.273H354.064V171.999Z" fill="#22376F"/>
<path d="M332.648 103.134H313.418V70.7962H332.648V103.134ZM316.889 99.6632H329.177V74.2672H316.889V99.6632Z" fill="#22376F"/>
<path d="M296.237 103.134H277.008V70.7962H296.237V103.134ZM280.479 99.6632H292.766V74.2672H280.479V99.6632Z" fill="#22376F"/>
<path d="M354.064 175.47H313.418V99.6641H354.064V175.47ZM316.889 171.999H350.593V103.135H316.889V171.999Z" fill="#22376F"/>
<path d="M296.237 175.47H255.592V99.6641H296.237V175.47ZM259.063 171.999H292.766V103.135H259.063V171.999Z" fill="#22376F"/>
<path d="M316.889 175.47H292.766V37.3132H316.889V175.47ZM296.237 171.999H313.418V40.7842H296.237V171.999Z" fill="#22376F"/>
<path d="M306.199 211.557H282.076V192.941H306.199V211.557ZM285.558 208.086H302.74V196.412H285.558V208.086Z" fill="#22376F"/>
<path d="M285.558 211.557H261.446V192.941H285.558V211.557ZM264.906 208.086H282.076V196.412H264.906V208.086Z" fill="#22376F"/>
<path d="M264.906 211.557H240.158V192.941H264.906V211.557ZM243.629 208.086H261.435V196.412H243.629V208.086Z" fill="#22376F"/>
<path d="M369.498 211.557H344.021V192.941H369.498V211.557ZM347.492 208.086H366.027V196.412H347.492V208.086Z" fill="#22376F"/>
<path d="M326.851 211.557H302.728V192.941H326.851V211.557ZM306.199 208.086H323.38V196.412H306.199V208.086Z" fill="#22376F"/>
<path d="M347.492 211.557H323.38V192.941H347.504V211.557H347.492ZM326.851 208.086H344.033V196.412H326.851V208.086Z" fill="#22376F"/>
<path d="M306.199 240.157H282.076V221.541H306.199V240.157ZM285.558 236.686H302.74V225.012H285.558V236.686Z" fill="#22376F"/>
<path d="M285.558 240.157H261.446V221.541H285.558V240.157ZM264.906 236.686H282.076V225.012H264.906V236.686Z" fill="#22376F"/>
<path d="M264.906 240.158H240.158V221.542H264.906V240.158ZM243.629 236.687H261.435V225.012H243.629V236.687Z" fill="#22376F"/>
<path d="M369.498 240.157H344.021V221.541H369.498V240.157ZM347.492 236.686H366.027V225.012H347.492V236.686Z" fill="#22376F"/>
<path d="M326.851 240.157H302.728V221.541H326.851V240.157ZM306.199 236.686H323.38V225.012H306.199V236.686Z" fill="#22376F"/>
<path d="M347.492 240.157H323.38V221.541H347.504V240.157H347.492ZM326.851 236.686H344.033V225.012H326.851V236.686Z" fill="#22376F"/>
<path d="M306.199 268.758H282.076V250.142H306.199V268.758ZM285.558 265.287H302.74V253.613H285.558V265.287Z" fill="#22376F"/>
<path d="M285.558 268.758H261.446V250.142H285.558V268.758ZM264.906 265.287H282.076V253.613H264.906V265.287Z" fill="#22376F"/>
<path d="M264.906 268.758H240.158V250.142H264.906V268.758ZM243.629 265.287H261.435V253.613H243.629V265.287Z" fill="#22376F"/>
<path d="M369.498 268.758H344.021V250.142H369.498V268.758ZM347.492 265.287H366.027V253.613H347.492V265.287Z" fill="#22376F"/>
<path d="M326.851 268.758H302.728V250.142H326.851V268.758ZM306.199 265.287H323.38V253.613H306.199V265.287Z" fill="#22376F"/>
<path d="M347.492 268.758H323.38V250.142H347.504V268.758H347.492ZM326.851 265.287H344.033V253.613H326.851V265.287Z" fill="#22376F"/>
<path d="M306.199 297.359H282.076V278.743H306.199V297.359ZM285.558 293.888H302.74V282.214H285.558V293.888Z" fill="#22376F"/>
<path d="M285.558 297.359H261.446V278.743H285.558V297.359ZM264.906 293.888H282.076V282.214H264.906V293.888Z" fill="#22376F"/>
<path d="M264.906 297.359H240.158V278.743H264.906V297.359ZM243.629 293.888H261.435V282.214H243.629V293.888Z" fill="#22376F"/>
<path d="M369.498 297.359H344.021V278.743H369.498V297.359ZM347.492 293.888H366.027V282.214H347.492V293.888Z" fill="#22376F"/>
<path d="M326.851 297.359H302.728V278.743H326.851V297.359ZM306.199 293.888H323.38V282.214H306.199V293.888Z" fill="#22376F"/>
<path d="M347.492 297.359H323.38V278.743H347.504V297.359H347.492ZM326.851 293.888H344.033V282.214H326.851V293.888Z" fill="#22376F"/>
<path d="M306.199 325.972H282.076V307.356H306.199V325.972ZM285.558 322.501H302.74V310.827H285.558V322.501Z" fill="#22376F"/>
<path d="M285.558 325.972H261.446V307.356H285.558V325.972ZM264.906 322.501H282.076V310.827H264.906V322.501Z" fill="#22376F"/>
<path d="M264.906 325.972H240.158V307.356H264.906V325.972ZM243.629 322.501H261.435V310.827H243.629V322.501Z" fill="#22376F"/>
<path d="M369.498 325.972H344.021V307.356H369.498V325.972ZM347.492 322.501H366.027V310.827H347.492V322.501Z" fill="#22376F"/>
<path d="M326.851 325.972H302.728V307.356H326.851V325.972ZM306.199 322.501H323.38V310.827H306.199V322.501Z" fill="#22376F"/>
<path d="M347.492 325.972H323.38V307.356H347.504V325.972H347.492ZM326.851 322.501H344.033V310.827H326.851V322.501Z" fill="#22376F"/>
<path d="M306.199 354.573H282.076V335.957H306.199V354.573ZM285.558 351.102H302.74V339.428H285.558V351.102Z" fill="#22376F"/>
<path d="M285.558 354.573H261.446V335.957H285.558V354.573ZM264.906 351.102H282.076V339.428H264.906V351.102Z" fill="#22376F"/>
<path d="M264.906 354.574H240.158V335.958H264.906V354.574ZM243.629 351.103H261.435V339.429H243.629V351.103Z" fill="#22376F"/>
<path d="M369.498 354.573H344.021V335.957H369.498V354.573ZM347.492 351.102H366.027V339.428H347.492V351.102Z" fill="#22376F"/>
<path d="M326.851 354.573H302.728V335.957H326.851V354.573ZM306.199 351.102H323.38V339.428H306.199V351.102Z" fill="#22376F"/>
<path d="M347.492 354.573H323.38V335.957H347.504V354.573H347.492ZM326.851 351.102H344.033V339.428H326.851V351.102Z" fill="#22376F"/>
<path d="M306.199 383.174H282.076V364.557H306.199V383.174ZM285.558 379.703H302.74V368.028H285.558V379.703Z" fill="#22376F"/>
<path d="M285.558 383.174H261.446V364.557H285.558V383.174ZM264.906 379.703H282.076V368.028H264.906V379.703Z" fill="#22376F"/>
<path d="M264.906 383.174H240.158V364.558H264.906V383.174ZM243.629 379.703H261.435V368.029H243.629V379.703Z" fill="#22376F"/>
<path d="M369.498 383.174H344.021V364.557H369.498V383.174ZM347.492 379.703H366.027V368.028H347.492V379.703Z" fill="#22376F"/>
<path d="M326.851 383.174H302.728V364.557H326.851V383.174ZM306.199 379.703H323.38V368.028H306.199V379.703Z" fill="#22376F"/>
<path d="M347.492 383.174H323.38V364.557H347.504V383.174H347.492ZM326.851 379.703H344.033V368.028H326.851V379.703Z" fill="#22376F"/>
<path d="M306.199 411.774H282.076V393.158H306.199V411.774ZM285.558 408.303H302.74V396.629H285.558V408.303Z" fill="#22376F"/>
<path d="M285.558 411.774H261.446V393.158H285.558V411.774ZM264.906 408.303H282.076V396.629H264.906V408.303Z" fill="#22376F"/>
<path d="M264.906 411.775H240.158V393.159H264.906V411.775ZM243.629 408.304H261.435V396.63H243.629V408.304Z" fill="#22376F"/>
<path d="M369.498 411.774H344.021V393.158H369.498V411.774ZM347.492 408.303H366.027V396.629H347.492V408.303Z" fill="#22376F"/>
<path d="M326.851 411.774H302.728V393.158H326.851V411.774ZM306.199 408.303H323.38V396.629H306.199V408.303Z" fill="#22376F"/>
<path d="M347.492 411.774H323.38V393.158H347.504V411.774H347.492ZM326.851 408.303H344.033V396.629H326.851V408.303Z" fill="#22376F"/>
<path d="M306.199 440.375H282.076V421.759H306.199V440.375ZM285.558 436.904H302.74V425.23H285.558V436.904Z" fill="#22376F"/>
<path d="M285.558 440.375H261.446V421.759H285.558V440.375ZM264.906 436.904H282.076V425.23H264.906V436.904Z" fill="#22376F"/>
<path d="M264.906 440.376H240.158V421.76H264.906V440.376ZM243.629 436.905H261.435V425.231H243.629V436.905Z" fill="#22376F"/>
<path d="M369.498 440.375H344.021V421.759H369.498V440.375ZM347.492 436.904H366.027V425.23H347.492V436.904Z" fill="#22376F"/>
<path d="M326.851 440.375H302.728V421.759H326.851V440.375ZM306.199 436.904H323.38V425.23H306.199V436.904Z" fill="#22376F"/>
<path d="M347.492 440.375H323.38V421.759H347.504V440.375H347.492ZM326.851 436.904H344.033V425.23H326.851V436.904Z" fill="#22376F"/>
<path d="M306.199 468.977H282.076V450.361H306.199V468.977ZM285.558 465.506H302.74V453.832H285.558V465.506Z" fill="#22376F"/>
<path d="M285.558 468.977H261.446V450.361H285.558V468.977ZM264.906 465.506H282.076V453.832H264.906V465.506Z" fill="#22376F"/>
<path d="M264.906 468.978H240.158V450.362H264.906V468.978ZM243.629 465.507H261.435V453.832H243.629V465.507Z" fill="#22376F"/>
<path d="M369.498 468.977H344.021V450.361H369.498V468.977ZM347.492 465.506H366.027V453.832H347.492V465.506Z" fill="#22376F"/>
<path d="M326.851 468.977H302.728V450.361H326.851V468.977ZM306.199 465.506H323.38V453.832H306.199V465.506Z" fill="#22376F"/>
<path d="M347.492 468.977H323.38V450.361H347.504V468.977H347.492ZM326.851 465.506H344.033V453.832H326.851V465.506Z" fill="#22376F"/>
<path d="M403.641 472.343H387.987V456.689H403.641V472.343ZM391.458 468.872H400.17V460.16H391.458V468.872Z" fill="#22376F"/>
<path d="M265.611 441.417H186.878V585.717H265.611V441.417Z" fill="white"/>
<path d="M267.347 587.453H185.142V439.682H267.347V587.453ZM188.613 583.982H263.876V443.153H188.613V583.982Z" fill="#22376F"/>
<path d="M325.382 484.168H265.612V585.717H325.382V484.168Z" fill="white"/>
<path d="M327.118 587.453H263.876V482.432H327.118V587.453ZM267.347 583.982H323.647V485.903H267.347V583.982Z" fill="#22376F"/>
<path d="M390.034 530.297H325.382V585.717H390.034V530.297Z" fill="white"/>
<path d="M391.782 587.453H323.658V528.562H391.782V587.453ZM327.117 583.982H388.299V532.033H327.117V583.982Z" fill="#22376F"/>
<path d="M290.568 565.701H285.512C286.067 564.139 286.38 562.462 286.38 560.703C286.38 552.419 279.658 545.697 271.373 545.697H254.933C249.09 545.697 244.034 549.052 241.558 553.935C241.025 553.854 240.482 553.796 239.926 553.796H225.626C219.575 553.796 214.669 558.702 214.669 564.753C214.669 565.077 214.692 565.389 214.715 565.701H211.21C205.679 565.701 201.202 570.179 201.202 575.709C201.202 581.24 205.679 585.717 211.21 585.717H290.568C296.098 585.717 300.576 581.24 300.576 575.709C300.576 570.19 296.098 565.701 290.568 565.701Z" fill="white"/>
<path d="M290.568 587.453H211.21C204.742 587.453 199.466 582.189 199.466 575.709C199.466 569.242 204.731 563.966 211.21 563.966H212.957C213.362 557.336 218.892 552.061 225.626 552.061H239.926C240.146 552.061 240.366 552.072 240.597 552.084C243.617 547.039 249.009 543.962 254.933 543.962H271.374C280.606 543.962 288.115 551.47 288.115 560.703C288.115 561.802 288 562.89 287.78 563.966H290.557C297.024 563.966 302.3 569.23 302.3 575.709C302.312 582.189 297.047 587.453 290.568 587.453ZM211.21 567.449C206.651 567.449 202.937 571.162 202.937 575.721C202.937 580.28 206.651 583.994 211.21 583.994H290.568C295.127 583.994 298.841 580.28 298.841 575.721C298.841 571.162 295.127 567.449 290.568 567.449H283.059L283.881 565.135C284.39 563.688 284.656 562.196 284.656 560.715C284.656 553.391 278.697 547.444 271.385 547.444H254.944C249.923 547.444 245.387 550.232 243.108 554.733L242.541 555.855L241.303 555.67C240.783 555.589 240.343 555.555 239.938 555.555H225.638C220.558 555.555 216.416 559.697 216.416 564.776C216.416 565.042 216.439 565.308 216.463 565.574L216.625 567.46H211.21V567.449Z" fill="#22376F"/>
<path d="M140.251 189.504H118.846V168.1H140.251V189.504ZM122.317 186.033H136.78V171.571H122.317V186.033Z" fill="#22376F"/>
<path d="M140.251 229.49H118.846V208.085H140.251V229.49ZM122.317 226.019H136.78V211.556H122.317V226.019Z" fill="#22376F"/>
<path d="M77.2986 511.056H66.203C65.2427 511.056 64.4675 510.281 64.4675 509.32V438.906C64.4675 437.945 65.2427 437.17 66.203 437.17H77.2986C78.2589 437.17 79.0341 437.945 79.0341 438.906V509.32C79.0341 510.281 78.2589 511.056 77.2986 511.056ZM67.9385 507.585H75.5631V440.641H67.9385V507.585Z" fill="#22376F"/>
<path d="M98.9463 510.605H87.8507C86.8904 510.605 86.1152 509.83 86.1152 508.87V438.455C86.1152 437.495 86.8904 436.72 87.8507 436.72H98.9463C99.9066 436.72 100.682 437.495 100.682 438.455V508.87C100.682 509.83 99.9066 510.605 98.9463 510.605ZM89.5862 507.134H97.2108V440.191H89.5862V507.134Z" fill="#22376F"/>
<path d="M103.227 424.513C102.267 424.513 101.492 423.738 101.492 422.777V272.264C101.492 271.304 102.267 270.528 103.227 270.528C104.187 270.528 104.963 271.304 104.963 272.264V422.777C104.963 423.738 104.187 424.513 103.227 424.513Z" fill="#22376F"/>
<path d="M133.101 587.453C132.14 587.453 131.365 586.677 131.365 585.717V272.264C131.365 271.304 132.14 270.528 133.101 270.528C134.061 270.528 134.836 271.304 134.836 272.264V585.717C134.836 586.677 134.061 587.453 133.101 587.453Z" fill="#22376F"/>
<path d="M160.73 587.453C159.769 587.453 158.994 586.677 158.994 585.717V272.264C158.994 271.304 159.769 270.528 160.73 270.528C161.69 270.528 162.465 271.304 162.465 272.264V585.717C162.465 586.677 161.69 587.453 160.73 587.453Z" fill="#22376F"/>
<path d="M250.733 457.048H201.757V460.519H250.733V457.048Z" fill="#22376F"/>
<path d="M250.733 472.377H201.757V475.848H250.733V472.377Z" fill="#22376F"/>
<path d="M250.733 487.708H201.757V491.179H250.733V487.708Z" fill="#22376F"/>
<path d="M250.733 503.026H201.757V506.497H250.733V503.026Z" fill="#22376F"/>
<path d="M250.733 518.357H201.757V521.828H250.733V518.357Z" fill="#22376F"/>
<path d="M250.733 533.687H201.757V537.158H250.733V533.687Z" fill="#22376F"/>
<path d="M325.382 515.303H289.503C288.543 515.303 287.768 514.527 287.768 513.567V501.893C287.768 500.933 288.543 500.158 289.503 500.158H325.382C326.342 500.158 327.117 500.933 327.117 501.893V513.567C327.117 514.527 326.342 515.303 325.382 515.303ZM291.239 511.832H323.646V503.629H291.239V511.832Z" fill="#22376F"/>
<path d="M390.046 567.449H340.226C339.266 567.449 338.49 566.673 338.49 565.713V554.039C338.49 553.079 339.266 552.303 340.226 552.303H390.046C391.006 552.303 391.782 553.079 391.782 554.039V565.713C391.782 566.662 390.995 567.449 390.046 567.449ZM341.95 563.978H388.299V555.774H341.95V563.978Z" fill="#22376F"/>
<path d="M325.116 542.422H289.503C288.543 542.422 287.768 541.647 287.768 540.687V530.285C287.768 529.325 288.543 528.55 289.503 528.55H325.116C326.076 528.55 326.851 529.325 326.851 530.285V540.687C326.851 541.647 326.064 542.422 325.116 542.422ZM291.239 538.951H323.38V532.021H291.239V538.951Z" fill="#22376F"/>
<path d="M22.3184 166.202C22.0176 166.202 21.7168 166.121 21.4507 165.97C21.3466 165.912 11.0262 159.977 1.73549 159.977C0.775187 159.977 0 159.202 0 158.242C0 157.281 0.775187 156.506 1.73549 156.506C9.46422 156.506 17.4938 160.035 21.1614 161.875C22.3879 157.883 26.1365 150.281 36.8619 150.281C37.8222 150.281 38.5974 151.057 38.5974 152.017C38.5974 152.977 37.8222 153.752 36.8619 153.752C25.5233 153.752 24.1118 164.223 24.0539 164.674C23.9845 165.253 23.6258 165.762 23.1052 166.017C22.8507 166.144 22.5846 166.202 22.3184 166.202Z" fill="#22376F"/>
<path d="M411.543 74.3716C411.242 74.3716 410.941 74.2906 410.675 74.1402C410.571 74.0823 400.251 68.1469 390.96 68.1469C390 68.1469 389.225 67.3717 389.225 66.4114C389.225 65.4511 390 64.6759 390.96 64.6759C398.689 64.6759 406.718 68.2048 410.386 70.0444C411.612 66.0528 415.361 58.4513 426.075 58.4513C427.035 58.4513 427.81 59.2265 427.81 60.1868C427.81 61.1471 427.035 61.9223 426.075 61.9223C414.736 61.9223 413.325 72.3931 413.267 72.8443C413.198 73.4228 412.839 73.9319 412.318 74.1864C412.075 74.3137 411.809 74.3716 411.543 74.3716Z" fill="#22376F"/>
<path d="M38.9332 197.441C38.6324 197.441 38.3316 197.36 38.0654 197.21C37.9613 197.152 27.6409 191.217 18.3502 191.217C17.3899 191.217 16.6147 190.442 16.6147 189.481C16.6147 188.521 17.3899 187.746 18.3502 187.746C26.079 187.746 34.0969 191.275 37.7762 193.114C39.0026 189.123 42.7513 181.521 53.465 181.521C54.4254 181.521 55.2005 182.296 55.2005 183.257C55.2005 184.217 54.4254 184.992 53.465 184.992C42.1265 184.992 40.715 195.463 40.6687 195.914C40.5993 196.493 40.2406 197.002 39.7199 197.256C39.4654 197.372 39.1993 197.441 38.9332 197.441Z" fill="#22376F"/>
</g>
</svg>
