<svg width="24" height="30" fill="none" xmlns="http://www.w3.org/2000/svg"><path d="M11.726 11.71a6.493 6.493 0 00-6.496 6.495 6.493 6.493 0 006.496 6.496 6.493 6.493 0 006.496-6.496c.085-3.59-2.906-6.496-6.496-6.496zm.684 11.623v-.256a.674.674 0 00-.684-.684c-.427 0-.598.342-.598.684v.256c-2.308-.341-4.188-2.136-4.445-4.53h.257a.674.674 0 00.684-.683.674.674 0 00-.684-.684h-.342c.342-2.393 2.137-4.188 4.53-4.53v.256c0 .342.256.684.684.684.427 0 .683-.256.683-.684v-.256a5.258 5.258 0 014.445 4.444h-.257a.674.674 0 00-.683.684c0 .342.256.684.683.684h.257c-.342 2.479-2.137 4.359-4.53 4.615z" fill="#000F27"/><path d="M13.692 15.3l-1.026 1.025c-.854-.428-1.795-.257-2.478.342-.855.854-.855 2.136 0 2.991.854.855 2.136.855 2.991 0 .427-.427.598-.94.598-1.538 0-.342-.085-.684-.256-.94l1.026-1.026a.67.67 0 000-.94c-.171-.171-.599-.171-.855.085zm-1.368 3.418c-.341.256-.854.256-1.11 0a.915.915 0 01-.086-1.197c.256-.341.854-.341 1.196-.085.342.256.428.94 0 1.282z" fill="#000F27"/><path d="M19.59 28.633h-2.48c5.727-2.906 8.035-9.915 5.129-15.727-1.88-3.76-5.641-6.154-9.83-6.41V3.932h7.18a.674.674 0 00.684-.684V.684c0-.342-.256-.684-.598-.684H3.948c-.342 0-.598.256-.598.684v2.564c0 .342.256.684.684.684h7.094v2.65C4.632 6.837-.325 12.307.017 18.802c.17 4.188 2.65 7.95 6.41 9.83H3.948a.674.674 0 00-.683.683c0 .342.256.684.683.684H19.59a.674.674 0 00.684-.684c-.085-.427-.342-.683-.684-.683zM4.631 1.282h14.274v1.281H4.632V1.282zM1.384 18.204c0-5.726 4.701-10.427 10.428-10.342 5.726.086 10.427 4.701 10.341 10.428 0 5.726-4.7 10.341-10.427 10.341-5.726 0-10.342-4.7-10.342-10.427z" fill="#000F27"/></svg>