<svg width="50" height="50" fill="none" xmlns="http://www.w3.org/2000/svg"><path d="M12.097 12.903a.806.806 0 100-1.613.806.806 0 000 1.613zM16.936 12.903a.806.806 0 100-1.613.806.806 0 000 1.613zM17.58 15.08l.081-.16-1.451-.726-.081.16c-.323.646-.887.969-1.613.969s-1.29-.404-1.613-.968l-.08-.162-1.452.726.08.162c.565 1.129 1.775 1.855 3.065 1.855s2.5-.726 3.065-1.855zM33.065 12.903a.806.806 0 100-1.613.806.806 0 000 1.613zM37.903 12.903a.806.806 0 100-1.613.806.806 0 000 1.613zM37.097 14.355c-.323.645-.887.968-1.613.968s-1.29-.404-1.613-.968l-.08-.162-1.452.726.08.162c.565 1.129 1.775 1.855 3.065 1.855s2.5-.726 3.064-1.855l.081-.162-1.452-.726-.08.162z" fill="#DE383F"/><path d="M50 30.242c0-.403-.08-.726-.242-1.13l-.968-2.176c-.806-1.775-2.258-3.226-4.032-3.952a3.671 3.671 0 00.403-1.613V9.677C45.161 4.355 40.806 0 35.484 0c-5.323 0-9.678 4.355-9.678 9.677v11.694c0 .323.081.565.081.806a8.79 8.79 0 00-.887.484c-.968-.564-2.097-1.048-3.226-1.21l-3.387-.483-.484-1.855c1.371-.887 2.42-2.258 2.823-3.871h.242a3.235 3.235 0 003.226-3.226c0-.726-.242-1.451-.726-2.016l.564-2.177c.08-.242.162-.646.162-1.049 0-2.016-1.21-3.79-3.146-4.435L15.726.403C15 .161 14.274 0 13.468 0 11.37 0 9.355 1.048 8.065 2.742l-.404.484C6.048 3.468 4.84 4.839 4.84 6.452c0 1.29.484 2.903.726 3.629a3.098 3.098 0 00-.726 2.016 3.235 3.235 0 003.226 3.226h.241c.404 1.613 1.452 2.983 2.823 3.87l-.484 1.855-3.387.484c-1.21.162-2.42.645-3.468 1.371C1.371 24.436 0 27.097 0 29.92v5.565c0 .887.726 1.613 1.613 1.613h.645l.968 4.516V50h41.29l-.645-3.065c0-.16-.08-.403-.08-.564 1.37-.565 2.5-1.855 2.822-3.387l2.339-10.565c.645-.564 1.048-1.29 1.048-2.177zm-2.661-2.661l.968 2.177c.08.161.08.323.08.484 0 .645-.564 1.21-1.21 1.21h-.16c-.404 0-.807-.162-.969-.565l-1.29-1.855h-.806c-.887 0-1.694-.564-1.936-1.451-.08-.162-.08-.404-.08-.645V25a4.255 4.255 0 001.774-.645c1.613.403 2.984 1.613 3.629 3.226zm-6.774 11.613l-5.968-2.662-.242-1.129c-.323-1.37-1.613-2.338-2.984-2.338-1.13 0-2.097.564-2.661 1.532l-.484-.08c-.242-.082-.484-.082-.726-.082-.08-.403-.08-.887-.08-1.37 0-2.017.564-3.871 1.612-5.565l1.694-2.742c.161-.08.322-.08.403-.161 1.13 1.29 2.661 2.016 4.355 2.016 1.693 0 3.226-.726 4.355-2.016l.484.242v2.177c0 .403.08.807.16 1.13.324.967 1.05 1.773 1.936 2.177l-1.854 8.87zm-5.081-20.646a4.853 4.853 0 01-4.839-4.838v-3.387c1.936-.404 3.71-1.21 5.242-2.42a9.367 9.367 0 004.436 2.5v3.307a4.853 4.853 0 01-4.84 4.838zm0 1.613c.645 0 1.21-.08 1.855-.242l.242 1.613c.08.807.483 1.532.967 2.097A4.166 4.166 0 0135.484 25a4.166 4.166 0 01-3.065-1.371c.484-.565.888-1.29.968-2.097l.242-1.613c.645.162 1.21.242 1.855.242zm8.064-10.484v11.694a1.997 1.997 0 01-2.016 2.016c-1.21 0-2.258-.887-2.42-2.097l-.322-2.096a6.367 6.367 0 003.065-5.484V8.952l-.645-.081a7.11 7.11 0 01-6.049-5.726l-.322-1.532h.645c4.435 0 8.064 3.629 8.064 8.064zm-16.129 0c0-3.71 2.5-6.774 5.887-7.742l.323 1.533a9.939 9.939 0 001.29 3.145c-1.29 1.048-2.903 1.774-4.516 2.097l-1.37.322v4.678a6.367 6.367 0 003.064 5.483l-.323 2.097c-.161 1.21-1.21 2.097-2.42 2.097a1.997 1.997 0 01-2.015-2.016V9.677h.08zm-.806 13.952a3.356 3.356 0 002.097 1.29l-1.049 1.694a12.235 12.235 0 00-1.855 6.452c0 .564.081 1.21.162 1.774-.162.08-.323.242-.484.322-.08 0-.08.08-.08.08-.162-.322-.485-.644-.727-.886a3.097 3.097 0 00-2.016-.726v-3.79c0-2.258 1.13-4.436 3.065-5.645.242-.162.564-.404.887-.565zm.726 17.661c.08.645.08 1.29.08 1.855 0 1.29-.16 2.58-.403 3.79l-.242 1.452h-4.193v-7.822l1.129-.484c.322-.162.645-.323.887-.565.322.645.887 1.13 1.613 1.371l1.129.403zm-8.871-18.629l-.484 3.387-2.097-1.29 2.177-2.177.404.08zm2.5-8.951v-3.226c.887 0 1.613.726 1.613 1.613s-.726 1.613-1.613 1.613zM8.065 4.839h.403l.887-1.13c.968-1.29 2.5-2.096 4.113-2.096.564 0 1.21.08 1.774.322l5.322 1.936c1.21.403 2.017 1.613 2.017 2.903 0 .242 0 .484-.081.726l-.403 1.532c-.404-.08-.726-.161-1.13-.161h-3.064a7.256 7.256 0 01-4.596-1.613 1.52 1.52 0 00.16-.645l.243-.807-1.613-.322-.162.887c-.322 1.452-1.612 2.5-3.064 2.5h-.806c-.404 0-.807.08-1.13.242-.241-.726-.483-1.855-.483-2.661 0-.887.725-1.613 1.613-1.613zm-1.613 7.258c0-.887.725-1.613 1.613-1.613v3.226a1.618 1.618 0 01-1.613-1.613zm3.225 1.613v-3.307c1.13-.161 2.178-.806 2.904-1.693a9.22 9.22 0 005.403 1.774h1.37v3.226a4.853 4.853 0 01-4.838 4.838 4.853 4.853 0 01-4.839-4.838zm4.84 6.451c.644 0 1.29-.08 1.935-.322l.403 1.693-2.339 2.339-2.339-2.339.404-1.693c.645.242 1.29.322 1.935.322zm-3.55 2.5l2.178 2.178-2.097 1.29-.483-3.387.403-.08zM1.614 29.92c0-2.258 1.129-4.435 3.064-5.645.807-.564 1.855-.968 2.823-1.048l1.532-.242.887 5.806 4.678-2.822 4.677 2.822.887-5.806 1.532.242c.726.08 1.371.322 2.017.645-1.694 1.613-2.662 3.79-2.662 6.129v3.306c-.564-.564-1.37-.967-2.258-.967-1.451 0-2.661.968-2.983 2.338l-.242 1.13-5.968 2.66-.323-1.693c.323-.322.565-.726.565-1.21v-.645c0-1.774-.323-3.548-.887-5.242l-1.533.484c.484 1.533.726 3.145.726 4.678v.645H1.613v-5.565zM7.5 37.097l.726 3.548 8.548-3.79.484-1.855c.161-.645.806-1.129 1.452-1.129.564 0 1.048.323 1.37.806l.485.888 1.532-.323c.564-.08 1.048 0 1.451.403.404.323.646.807.646 1.371 0 .726-.404 1.29-1.049 1.532l-13.87 5.565a3.236 3.236 0 01-1.21.242c-1.533 0-2.823-1.049-3.146-2.58l-1.048-4.678H7.5zm-2.661 7.58c.887.807 2.016 1.29 3.226 1.29.645 0 1.21-.08 1.774-.322l11.129-4.435v7.177H4.838v-3.71zm37.5 2.581l.242 1.13H28.387l.242-1.13c.242-1.37.403-2.742.403-4.113v-1.21l11.13 4.436c.564.242 1.209.323 1.773.323h.323c0 .241.08.403.08.564zm2.742-4.677c-.323 1.532-1.613 2.58-3.146 2.58-.403 0-.806-.08-1.21-.242l-13.87-5.564c-.645-.242-1.049-.887-1.049-1.532 0-.565.242-1.049.646-1.371.403-.323.967-.484 1.451-.404l1.533.323.483-.887c.242-.484.807-.807 1.371-.807.726 0 1.29.484 1.452 1.13l.484 1.854 7.258 3.226.726 2.097 1.532-.484-.806-2.258 2.016-9.516.725 1.048c.484.807 1.371 1.29 2.34 1.29h.16l-2.096 9.517z" fill="#DE383F"/></svg>