<svg width="42" height="50" fill="none" xmlns="http://www.w3.org/2000/svg"><path d="M11.725 50h29.863V11.724H11.724V50zm1.997-36.278H39.59V47.95H13.722V13.723zM17.508 7.834l-2.156-2.156H37.96l-2.156 2.156 1.42 1.42 4.627-4.627L37.224 0l-1.42 1.42 2.156 2.155H15.352l2.156-2.155L16.088 0l-4.626 4.627 4.626 4.626 1.42-1.42zM7.834 17.718l1.42-1.42-4.627-4.626L0 16.299l1.42 1.42 2.155-2.156v30.599l-2.103-2.208-1.42 1.42L4.68 50l4.627-4.627-1.472-1.42-2.156 2.209v-30.6l2.156 2.156z" fill="#DE383F"/></svg>