<svg width="42" height="50" viewBox="0 0 42 50" fill="none" xmlns="http://www.w3.org/2000/svg">
<path d="M11.7245 50H41.5878V11.7245H11.7245V50ZM13.7224 13.7224H39.5899V47.9495H13.7224V13.7224Z" fill="#DE383F"/>
<path d="M17.5079 7.83386L15.3523 5.67823H37.96L35.8044 7.83386L37.224 9.25342L41.8507 4.62671L37.224 0L35.8044 1.41956L37.96 3.57518H15.3523L17.5079 1.41956L16.0883 0L11.4616 4.62671L16.0883 9.25342L17.5079 7.83386Z" fill="#DE383F"/>
<path d="M7.83386 17.7182L9.25342 16.2986L4.62671 11.6719L0 16.2986L1.41956 17.7182L3.57518 15.5626V46.1619L1.47213 43.9537L0.0525762 45.3733L4.67928 50L9.30599 45.3733L7.83386 43.9537L5.67823 46.1619V15.5626L7.83386 17.7182Z" fill="#DE383F"/>
</svg>
