<svg width="102" height="30" fill="none" xmlns="http://www.w3.org/2000/svg"><path d="M74.027.804L73.963.75s-2.42 1.188-5.67 1.22c-3.327.043-4.968-1.337-4.968-1.337l-2.6 3.524s2.078 1.252 5.371 1.21c5.83-.053 7.93-4.564 7.93-4.564zM31.88 27.848c-2.91-.7-3.294-1.411-5.735-5.116L14.336 4.964c-1.694-2.547.757-3.248 1.365-3.248V.92H1.087v.7c1.663 0 4.338 1.147 7.131 5.35L20.05 24.78c1.77 2.495-.607 3.355-2.174 3.355v.637h14.582v-.85a2.408 2.408 0 01-.576-.074z" fill="#000F27"/><path d="M18.45 10.452l.448.732 2.164-2.876c.107-.16 1.588-1.9 2.43-2.92.064-.084.15-.148.224-.222 3.24-3.27 5.937-3.428 7.291-3.598V.91h-11.64v.594c1.844-.085 4.488.86 1.93 4.883l-2.846 4.065zm32.692 14.562v-9.743c0-4.182-3.22-6.73-8.474-6.73-3.965 0-7.173 1.656-7.29 1.71l.426 4.871h.085s4.52-7.175 7.376-5.965l-.128-.064c.085.032.17.075.256.128-.043-.022-.086-.043-.139-.064l.139.064c1.098.594 1.972 2.048 1.972 4.617v1.794c-1.173.265-3.358.817-6.534 1.804-4.498 1.401-5.895 3.503-5.895 6.241 0 3.842 2.846 5.69 5.841 5.69 3.71 0 5.746-2.676 6.588-4.14v3.545h7.898v-.117c.021.021-2.121-1.146-2.121-3.64zm-5.756-.658c-.33.52-1.439 1.985-3.315 1.985-1.855 0-3.304-.998-3.304-3.534 0-3.577 4.54-5.796 6.619-6.623v8.172zM71.81 9.178h-2.175l-.021.106-6.64 15.009h-.256V12.946c.01-2.483 2.142-3.651 2.142-3.651v-.117H54.82v.117s2.131 1.168 2.142 3.651v12.058c-.011 2.483-2.143 3.651-2.143 3.651v.117h7.024l.075-.223 6.737-15.05h.287v11.494c0 2.495-2.142 3.662-2.142 3.662v.117h10.04v-.117s-2.131-1.168-2.142-3.651V12.957c0-2.495 2.143-3.662 2.143-3.662v-.117H71.81zm29.376.117v-.117H79.154v.117s2.132 1.168 2.142 3.651v12.047c0 2.495-2.142 3.651-2.142 3.651v.117h10.04v-.106s-2.131-1.168-2.142-3.651V9.953h6.235v15.04c-.01 2.495-2.153 3.662-2.153 3.662v.117h10.041v-.117s-2.132-1.168-2.142-3.662V12.957c.01-2.495 2.153-3.662 2.153-3.662zm-90.367 12.97l2.931-5.254-.373-.52-4.093 5.71c-3.091 4.66-6.95 5.902-8.623 6.008-.107.01-.203.01-.288.01H0v.553h13.665l-.01-.648c-.235-.031-3.678.489-3.518-3.343.042-.85.33-1.73.682-2.516z" fill="#000F27"/></svg>