<svg width="673" height="547" fill="none" xmlns="http://www.w3.org/2000/svg"><g opacity=".1"><path d="M506.234 410.179h-32.449v-42.996h-37.141v177.655h37.141v-83.764h32.449v-50.895z" fill="#fff"/><path d="M475.399 546.453h-40.37V365.568h40.37v43.007h32.449V462.7h-32.449v83.753zm-37.141-3.229h33.913V459.46h32.448v-47.667h-32.448v-43.007h-33.913v174.438z" fill="#22376F"/><path d="M394.272 408.026h-52.177v136.813h52.177V408.026z" fill="#fff"/><path d="M395.886 546.453h-55.405V406.412h55.405v140.041zm-52.176-3.229h48.947V409.641H343.71v133.583zM149.512 237.344h-58.45a1.612 1.612 0 01-1.615-1.614V99.574c0-.603.333-1.151.871-1.431a1.603 1.603 0 011.68.118l58.45 41.414a1.6 1.6 0 01.678 1.313v94.753a1.61 1.61 0 01-1.614 1.603zm-56.837-3.228h55.223v-92.299l-55.222-39.122v131.421zM68.686 524.013c-5.554 0-10.375-3.885-11.634-9.202-4.962-1.517-8.46-6.156-8.46-11.43 0-5.23 3.455-9.858 8.363-11.397a11.915 11.915 0 0111.72-9.6 11.92 11.92 0 0111.742 9.675c4.843 1.615 8.136 6.135 8.136 11.333 0 5.241-3.325 9.762-8.222 11.354-1.227 5.349-6.049 9.267-11.645 9.267zm0-38.411a8.693 8.693 0 00-8.675 7.824c-.075.7-.58 1.27-1.27 1.421-4.003.85-6.91 4.434-6.91 8.534a8.753 8.753 0 006.953 8.546c.668.14 1.173.678 1.27 1.356.592 4.283 4.305 7.512 8.643 7.512 4.348 0 8.06-3.25 8.642-7.555a1.603 1.603 0 011.237-1.356 8.677 8.677 0 006.76-8.503 8.684 8.684 0 00-6.727-8.491 1.614 1.614 0 01-1.238-1.41 8.702 8.702 0 00-8.685-7.878z" fill="#22376F"/><path d="M68.578 546.453a1.612 1.612 0 01-1.614-1.614V499.97c0-.893.721-1.615 1.614-1.615.894 0 1.615.722 1.615 1.615v44.869c0 .893-.721 1.614-1.615 1.614z" fill="#22376F"/><path d="M68.579 514.327c-4.284 0-7.76-2.863-7.76-6.372v-4.757c0-.893.72-1.614 1.614-1.614.894 0 1.615.721 1.615 1.614v4.757c0 1.701 2.077 3.143 4.53 3.143 2.465 0 4.542-1.442 4.542-3.143v-4.757c0-.893.721-1.614 1.615-1.614.893 0 1.614.721 1.614 1.614v4.757c-.01 3.509-3.487 6.372-7.77 6.372zM573.112 531.622c-6.436 0-12.011-4.542-13.4-10.73-5.779-1.69-9.858-7.071-9.858-13.173 0-6.06 4.047-11.419 9.762-13.141 1.194-6.447 6.812-11.182 13.496-11.182 6.726 0 12.344 4.767 13.507 11.268a13.672 13.672 0 019.492 13.055c0 6.07-3.896 11.3-9.589 13.087-1.356 6.242-6.931 10.816-13.41 10.816zm0-44.998a10.46 10.46 0 00-10.44 9.417c-.075.7-.581 1.27-1.27 1.421-4.821 1.022-8.309 5.338-8.309 10.267 0 4.951 3.52 9.278 8.363 10.279a1.614 1.614 0 011.27 1.356c.721 5.155 5.187 9.029 10.396 9.029 5.231 0 9.708-3.906 10.397-9.083a1.603 1.603 0 011.238-1.356 10.439 10.439 0 008.136-10.225c0-4.897-3.326-9.094-8.093-10.213a1.615 1.615 0 01-1.238-1.41 10.46 10.46 0 00-10.45-9.482z" fill="#22376F"/><path d="M572.983 546.453a1.612 1.612 0 01-1.615-1.615v-41.112c0-.894.721-1.615 1.615-1.615.893 0 1.614.721 1.614 1.615v41.112c0 .894-.721 1.615-1.614 1.615z" fill="#22376F"/><path d="M572.982 520.268c-4.864 0-8.825-3.229-8.825-7.19v-5.574c0-.894.721-1.615 1.615-1.615.893 0 1.614.721 1.614 1.615v5.574c0 2.142 2.561 3.961 5.596 3.961s5.597-1.808 5.597-3.961v-5.574c0-.894.721-1.615 1.614-1.615.894 0 1.615.721 1.615 1.615v5.574c-.011 3.961-3.961 7.19-8.826 7.19zM173.835 546.453h-68.503a1.612 1.612 0 01-1.614-1.615V394.885h-36.97a1.612 1.612 0 01-1.614-1.614V253.262c0-.893.721-1.615 1.615-1.615h107.086c.893 0 1.614.722 1.614 1.615v291.576c0 .894-.721 1.615-1.614 1.615zm-66.889-3.229h65.275V254.876H68.363v136.78h36.98c.893 0 1.614.721 1.614 1.615v149.953h-.011z" fill="#22376F"/><path d="M105.332 546.453H28.154a1.612 1.612 0 01-1.614-1.615V393.271c0-.894.721-1.615 1.614-1.615h77.178c.893 0 1.614.721 1.614 1.615v151.567c0 .894-.721 1.615-1.614 1.615zm-75.563-3.229h73.949V394.885h-73.95v148.339zM163.191 254.876H76.467a1.612 1.612 0 01-1.614-1.614V235.73c0-.893.721-1.614 1.614-1.614h86.713c.894 0 1.615.721 1.615 1.614v17.532a1.603 1.603 0 01-1.604 1.614zm-85.11-3.228h83.485v-14.304H78.082v14.304zM343.71 546.453H223.386V159.995H343.71v386.458zm-117.085-3.229h113.867V163.223H226.625v380.001z" fill="#22376F"/><path d="M240.982 163.223h-17.586v-44.341h17.586v44.341zm-14.357-3.229h11.129v-37.883h-11.129v37.883zM343.71 163.223h-17.597v-44.341h17.597v44.341zm-14.357-3.229h11.139v-37.883h-11.139v37.883zM309.431 95.936h-17.887v-30.08h17.887v30.08zm-14.658-3.228h11.429V69.084h-11.429v23.624zM275.562 95.936h-17.887v-30.08h17.887v30.08zm-14.658-3.228h11.429V69.084h-11.429v23.624z" fill="#22376F"/><path d="M329.352 163.224h-37.808V92.708h37.808v70.516zm-34.579-3.229h31.351V95.937h-31.351v64.058zM275.562 163.224h-37.809V92.708h37.809v70.516zm-34.58-3.229h31.351V95.937h-31.351v64.058z" fill="#22376F"/><path d="M294.773 163.223h-22.44V34.709h22.44v128.514zm-19.211-3.228h15.982V37.938h-15.982v122.057zM284.829 196.791h-22.44v-17.316h22.44v17.316zm-19.201-3.228h15.983v-10.86h-15.983v10.86z" fill="#22376F"/><path d="M265.628 196.791h-22.429v-17.316h22.429v17.316zm-19.211-3.228h15.972v-10.86h-15.972v10.86z" fill="#22376F"/><path d="M246.417 196.791h-23.021v-17.316h23.021v17.316zm-19.792-3.228h16.564v-10.86h-16.564v10.86zM343.71 196.791h-23.699v-17.316h23.699v17.316zm-20.47-3.228h17.241v-10.86H323.24v10.86zM304.039 196.791H281.6v-17.316h22.439v17.316zm-19.211-3.228h15.983v-10.86h-15.983v10.86z" fill="#22376F"/><path d="M323.24 196.791h-22.429v-17.316h22.44v17.316h-.011zm-19.2-3.228h15.982v-10.86H304.04v10.86zM284.829 223.396h-22.44V206.08h22.44v17.316zm-19.201-3.228h15.983v-10.86h-15.983v10.86z" fill="#22376F"/><path d="M265.628 223.396h-22.429V206.08h22.429v17.316zm-19.211-3.228h15.972v-10.86h-15.972v10.86z" fill="#22376F"/><path d="M246.417 223.396h-23.021V206.08h23.021v17.316zm-19.792-3.228h16.564v-10.86h-16.564v10.86zM343.71 223.396h-23.699V206.08h23.699v17.316zm-20.47-3.228h17.241v-10.86H323.24v10.86zM304.039 223.396H281.6V206.08h22.439v17.316zm-19.211-3.228h15.983v-10.86h-15.983v10.86z" fill="#22376F"/><path d="M323.24 223.396h-22.429V206.08h22.44v17.316h-.011zm-19.2-3.228h15.982v-10.86H304.04v10.86zM284.829 250.001h-22.44v-17.317h22.44v17.317zm-19.201-3.229h15.983v-10.859h-15.983v10.859z" fill="#22376F"/><path d="M265.628 250.001h-22.429v-17.317h22.429v17.317zm-19.211-3.229h15.972v-10.859h-15.972v10.859z" fill="#22376F"/><path d="M246.417 250.001h-23.021v-17.317h23.021v17.317zm-19.792-3.229h16.564v-10.859h-16.564v10.859zM343.71 250.001h-23.699v-17.317h23.699v17.317zm-20.47-3.229h17.241v-10.859H323.24v10.859zM304.039 250.001H281.6v-17.317h22.439v17.317zm-19.211-3.229h15.983v-10.859h-15.983v10.859z" fill="#22376F"/><path d="M323.24 250.001h-22.429v-17.317h22.44v17.317h-.011zm-19.2-3.229h15.982v-10.859H304.04v10.859zM284.829 276.606h-22.44v-17.317h22.44v17.317zm-19.201-3.229h15.983v-10.859h-15.983v10.859z" fill="#22376F"/><path d="M265.628 276.606h-22.429v-17.317h22.429v17.317zm-19.211-3.229h15.972v-10.859h-15.972v10.859z" fill="#22376F"/><path d="M246.417 276.606h-23.021v-17.317h23.021v17.317zm-19.792-3.229h16.564v-10.859h-16.564v10.859zM343.71 276.606h-23.699v-17.317h23.699v17.317zm-20.47-3.229h17.241v-10.859H323.24v10.859zM304.039 276.606H281.6v-17.317h22.439v17.317zm-19.211-3.229h15.983v-10.859h-15.983v10.859z" fill="#22376F"/><path d="M323.24 276.606h-22.429v-17.317h22.44v17.317h-.011zm-19.2-3.229h15.982v-10.859H304.04v10.859zM284.829 303.221h-22.44v-17.317h22.44v17.317zm-19.201-3.229h15.983v-10.859h-15.983v10.859z" fill="#22376F"/><path d="M265.628 303.221h-22.429v-17.317h22.429v17.317zm-19.211-3.229h15.972v-10.859h-15.972v10.859z" fill="#22376F"/><path d="M246.417 303.221h-23.021v-17.317h23.021v17.317zm-19.792-3.229h16.564v-10.859h-16.564v10.859zM343.71 303.221h-23.699v-17.317h23.699v17.317zm-20.47-3.229h17.241v-10.859H323.24v10.859zM304.039 303.221H281.6v-17.317h22.439v17.317zm-19.211-3.229h15.983v-10.859h-15.983v10.859z" fill="#22376F"/><path d="M323.24 303.221h-22.429v-17.317h22.44v17.317h-.011zm-19.2-3.229h15.982v-10.859H304.04v10.859zM284.829 329.826h-22.44v-17.317h22.44v17.317zm-19.201-3.229h15.983v-10.859h-15.983v10.859z" fill="#22376F"/><path d="M265.628 329.826h-22.429v-17.317h22.429v17.317zm-19.211-3.229h15.972v-10.859h-15.972v10.859z" fill="#22376F"/><path d="M246.417 329.826h-23.021v-17.317h23.021v17.317zm-19.792-3.229h16.564v-10.859h-16.564v10.859zM343.71 329.826h-23.699v-17.317h23.699v17.317zm-20.47-3.229h17.241v-10.859H323.24v10.859zM304.039 329.826H281.6v-17.317h22.439v17.317zm-19.211-3.229h15.983v-10.859h-15.983v10.859z" fill="#22376F"/><path d="M323.24 329.826h-22.429v-17.317h22.44v17.317h-.011zm-19.2-3.229h15.982v-10.859H304.04v10.859zM284.829 356.431h-22.44v-17.317h22.44v17.317zm-19.201-3.229h15.983v-10.859h-15.983v10.859z" fill="#22376F"/><path d="M265.628 356.431h-22.429v-17.317h22.429v17.317zm-19.211-3.229h15.972v-10.859h-15.972v10.859z" fill="#22376F"/><path d="M246.417 356.431h-23.021v-17.317h23.021v17.317zm-19.792-3.229h16.564v-10.859h-16.564v10.859zM343.71 356.431h-23.699v-17.317h23.699v17.317zm-20.47-3.229h17.241v-10.859H323.24v10.859zM304.039 356.431H281.6v-17.317h22.439v17.317zm-19.211-3.229h15.983v-10.859h-15.983v10.859z" fill="#22376F"/><path d="M323.24 356.431h-22.429v-17.317h22.44v17.317h-.011zm-19.2-3.229h15.982v-10.859H304.04v10.859zM284.829 383.036h-22.44v-17.317h22.44v17.317zm-19.201-3.229h15.983v-10.86h-15.983v10.86z" fill="#22376F"/><path d="M265.628 383.036h-22.429v-17.317h22.429v17.317zm-19.211-3.229h15.972v-10.86h-15.972v10.86z" fill="#22376F"/><path d="M246.417 383.036h-23.021v-17.317h23.021v17.317zm-19.792-3.229h16.564v-10.86h-16.564v10.86zM343.71 383.036h-23.699v-17.317h23.699v17.317zm-20.47-3.229h17.241v-10.86H323.24v10.86zM304.039 383.036H281.6v-17.317h22.439v17.317zm-19.211-3.229h15.983v-10.86h-15.983v10.86z" fill="#22376F"/><path d="M323.24 383.036h-22.429v-17.317h22.44v17.317h-.011zm-19.2-3.229h15.982v-10.86H304.04v10.86zM284.829 409.641h-22.44v-17.317h22.44v17.317zm-19.201-3.229h15.983v-10.86h-15.983v10.86z" fill="#22376F"/><path d="M265.628 409.641h-22.429v-17.317h22.429v17.317zm-19.211-3.229h15.972v-10.86h-15.972v10.86z" fill="#22376F"/><path d="M246.417 409.641h-23.021v-17.317h23.021v17.317zm-19.792-3.229h16.564v-10.86h-16.564v10.86zM343.71 409.641h-23.699v-17.317h23.699v17.317zm-20.47-3.229h17.241v-10.86H323.24v10.86zM304.039 409.641H281.6v-17.317h22.439v17.317zm-19.211-3.229h15.983v-10.86h-15.983v10.86z" fill="#22376F"/><path d="M323.24 409.641h-22.429v-17.317h22.44v17.317h-.011zm-19.2-3.229h15.982v-10.86H304.04v10.86zM284.829 436.245h-22.44v-17.316h22.44v17.316zm-19.201-3.228h15.983v-10.86h-15.983v10.86z" fill="#22376F"/><path d="M265.628 436.245h-22.429v-17.316h22.429v17.316zm-19.211-3.228h15.972v-10.86h-15.972v10.86z" fill="#22376F"/><path d="M246.417 436.245h-23.021v-17.316h23.021v17.316zm-19.792-3.228h16.564v-10.86h-16.564v10.86zM343.71 436.245h-23.699v-17.316h23.699v17.316zm-20.47-3.228h17.241v-10.86H323.24v10.86zM304.039 436.245H281.6v-17.316h22.439v17.316zm-19.211-3.228h15.983v-10.86h-15.983v10.86z" fill="#22376F"/><path d="M323.24 436.245h-22.429v-17.316h22.44v17.316h-.011zm-19.2-3.228h15.982v-10.86H304.04v10.86zM438.258 546.453h-45.601V307.074h45.601v239.379zm-42.372-3.229h39.143V310.303h-39.143v232.921zM424.321 230.758h-17.716c-.462 0-.893-.194-1.205-.538a1.665 1.665 0 01-.409-1.249l8.858-81.934a1.618 1.618 0 011.603-1.442c.818 0 1.518.624 1.604 1.442l8.857 81.934a1.57 1.57 0 01-.409 1.249c-.29.344-.731.538-1.183.538zm-15.918-3.229h14.12l-3.229-29.876-3.831-35.43-7.06 65.306z" fill="#22376F"/><path d="M434.222 310.303h-37.518c-10.095 0-18.307-8.211-18.307-18.307v-46.16c0-10.095 8.212-18.307 18.307-18.307h37.518c10.095 0 18.307 8.212 18.307 18.307v46.16c0 10.096-8.223 18.307-18.307 18.307zm-37.518-79.545c-8.309 0-15.078 6.759-15.078 15.078v46.16c0 8.309 6.769 15.079 15.078 15.079h37.518c8.308 0 15.078-6.77 15.078-15.079v-46.16c0-8.319-6.77-15.078-15.078-15.078h-37.518z" fill="#22376F"/><path d="M413.235 266.015h-19.566v-19.566h19.566v19.566zm-16.337-3.228h13.108v-13.109h-13.108v13.109zM437.246 266.015H417.68v-19.566h19.566v19.566zm-16.337-3.228h13.109v-13.109h-13.109v13.109zM413.235 291.383h-19.566v-19.567h19.566v19.567zm-16.337-3.229h13.108v-13.109h-13.108v13.109zM437.246 291.383H417.68v-19.567h19.566v19.567zm-16.337-3.229h13.109v-13.109h-13.109v13.109zM462.011 396.586h-14.562v-14.562h14.562v14.562zm-11.333-3.229h8.104v-8.104h-8.104v8.104zM375.47 439.377h-14.562v-14.562h14.562v14.562zm-11.333-3.229h8.104v-8.104h-8.104v8.104zM496.655 444.812h-14.336v-14.335h14.336v14.335zm-11.107-3.229h7.878v-7.878h-7.878v7.878zM477.412 444.812h-14.336v-14.335h14.336v14.335zm-11.096-3.229h7.878v-7.878h-7.878v7.878zM502.209 489.153h-14.336v-14.335h14.336v14.335zm-11.107-3.228h7.878v-7.878h-7.878v7.878zM526.166 489.153H511.83v-14.335h14.336v14.335zm-11.107-3.228h7.878v-7.878h-7.878v7.878zM458.179 444.812h-14.335v-14.335h14.335v14.335zm-11.107-3.229h7.879v-7.878h-7.879v7.878z" fill="#22376F"/><path d="M709.321 546.453H472.17V459.46h237.151v86.993zm-233.922-3.229h230.693v-80.535H475.399v80.535z" fill="#22376F"/><path d="M747.905 546.453H606.604V312.768h141.301v233.685zm-138.072-3.229h134.843V315.996H609.833v227.228z" fill="#22376F"/><path d="M728.607 315.997H636.04V194.392h92.567v121.605zm-89.339-3.229h86.111V197.62h-86.111v115.148z" fill="#22376F"/><path d="M703.23 197.62h-41.802V72.679h41.802V197.62zm-38.573-3.229h35.344V75.907h-35.344v118.484z" fill="#22376F"/><path d="M529.685 526.22h-4.703c.516-1.453.807-3.014.807-4.65 0-7.706-6.253-13.959-13.959-13.959h-15.294c-5.445 0-10.138 3.121-12.441 7.663a10.112 10.112 0 00-1.517-.129h-13.303c-5.629 0-10.192 4.563-10.192 10.192 0 .301.022.592.043.883h-3.261a9.305 9.305 0 00-9.309 9.309 9.306 9.306 0 009.309 9.31h73.82a9.306 9.306 0 009.309-9.31c0-5.134-4.175-9.309-9.309-9.309z" fill="#fff"/><path d="M529.685 546.453h-73.82c-6.016 0-10.924-4.897-10.924-10.924 0-6.016 4.897-10.924 10.924-10.924h1.625c.377-6.167 5.522-11.074 11.785-11.074h13.303c.204 0 .409.011.624.021a15.477 15.477 0 0113.335-7.555h15.293c8.588 0 15.573 6.985 15.573 15.573 0 1.023-.107 2.034-.301 3.035h2.583c6.016 0 10.924 4.897 10.924 10.924 0 6.027-4.908 10.924-10.924 10.924zm-73.82-18.608c-4.24 0-7.695 3.455-7.695 7.695s3.455 7.695 7.695 7.695h73.82c4.24 0 7.695-3.455 7.695-7.695s-3.455-7.695-7.695-7.695H522.7l.764-2.153c.474-1.345.721-2.733.721-4.111 0-6.813-5.542-12.344-12.344-12.344h-15.294c-4.671 0-8.889 2.593-11.01 6.78l-.527 1.044-1.152-.172a8.1 8.1 0 00-1.27-.108h-13.302c-4.725 0-8.578 3.853-8.578 8.578 0 .247.022.495.043.742l.151 1.755h-5.037v-.011z" fill="#22376F"/><path d="M247.073 410.609h-73.238v134.229h73.238V410.609z" fill="#fff"/><path d="M248.688 546.453h-76.467V408.995h76.467v137.458zm-73.239-3.229h70.01V412.223h-70.01v131.001z" fill="#22376F"/><path d="M302.673 450.376h-55.599v94.463h55.599v-94.463z" fill="#fff"/><path d="M304.287 546.453h-58.828v-97.691h58.828v97.691zm-55.599-3.229h52.37v-91.233h-52.37v91.233z" fill="#22376F"/><path d="M362.813 493.286h-60.141v51.552h60.141v-51.552z" fill="#fff"/><path d="M364.438 546.453h-63.369v-54.781h63.369v54.781zm-60.151-3.229h56.912v-48.323h-56.912v48.323z" fill="#22376F"/><path d="M270.288 526.22h-4.703a13.83 13.83 0 00.807-4.65c0-7.706-6.253-13.959-13.959-13.959H237.14c-5.435 0-10.138 3.121-12.441 7.663a10.115 10.115 0 00-1.518-.129h-13.302c-5.629 0-10.192 4.563-10.192 10.192 0 .301.021.592.043.883h-3.261a9.306 9.306 0 00-9.31 9.309 9.306 9.306 0 009.31 9.31h73.819a9.306 9.306 0 009.31-9.31c0-5.134-4.165-9.309-9.31-9.309z" fill="#fff"/><path d="M270.289 546.453h-73.82c-6.016 0-10.924-4.897-10.924-10.924 0-6.016 4.897-10.924 10.924-10.924h1.625c.377-6.167 5.521-11.074 11.785-11.074h13.302c.205 0 .409.011.624.021a15.478 15.478 0 0113.335-7.555h15.294c8.588 0 15.573 6.985 15.573 15.573 0 1.023-.108 2.034-.312 3.035h2.583c6.016 0 10.924 4.897 10.924 10.924.01 6.027-4.887 10.924-10.913 10.924zm-73.82-18.608c-4.241 0-7.695 3.455-7.695 7.695s3.454 7.695 7.695 7.695h73.82c4.24 0 7.695-3.455 7.695-7.695s-3.455-7.695-7.695-7.695h-6.985l.764-2.153a12.4 12.4 0 00.721-4.111c0-6.813-5.543-12.344-12.345-12.344h-15.293c-4.671 0-8.89 2.593-11.01 6.78l-.527 1.044-1.152-.172a8.1 8.1 0 00-1.27-.108H209.89c-4.725 0-8.578 3.853-8.578 8.578 0 .247.021.495.043.742l.151 1.755h-5.037v-.011zM585.155 462.689h-80.536v-234.31l49.69-34.052.915 1.334-.915-1.334 30.846-21.138v289.5zm-77.307-3.229h74.078V179.313l-74.078 50.767v229.38zM714.315 211.246h-63.961v3.228h63.961v-3.228zM731.567 328.675H623.082v3.229h108.485v-3.229zM731.567 344.969H623.082v3.228h108.485v-3.228zM731.567 361.274H623.082v3.229h108.485v-3.229zM731.567 377.579H623.082v3.229h108.485v-3.229zM731.567 393.884H623.082v3.229h108.485v-3.229zM731.567 410.189H623.082v3.229h108.485v-3.229zM731.567 426.484H623.082v3.229h108.485v-3.229zM731.567 442.789H623.082v3.229h108.485v-3.229zM731.911 459.46H623.426v3.229h108.485v-3.229zM714.315 227.486h-63.961v3.229h63.961v-3.229zM714.315 243.727h-63.961v3.228h63.961v-3.228zM714.315 259.978h-63.961v3.229h63.961v-3.229zM714.315 276.218h-63.961v3.229h63.961v-3.229zM714.315 292.459h-63.961v3.229h63.961v-3.229z" fill="#22376F"/><path d="M572.982 206.08h-11.429v3.228h11.429v-3.228zM572.982 218.349h-11.429v3.228h11.429v-3.228zM572.982 230.618h-11.429v3.228h11.429v-3.228zM572.982 242.887h-11.429v3.229h11.429v-3.229zM572.982 255.156h-11.429v3.229h11.429v-3.229zM572.982 267.426h-11.429v3.229h11.429v-3.229zM572.982 279.684h-11.429v3.229h11.429v-3.229zM572.982 291.953h-11.429v3.229h11.429v-3.229zM572.982 304.222h-11.429v3.229h11.429v-3.229zM572.982 316.491h-11.429v3.229h11.429v-3.229zM572.982 328.761h-11.429v3.228h11.429v-3.228zM572.982 341.03h-11.429v3.229h11.429v-3.229zM572.982 353.299h-11.429v3.229h11.429v-3.229zM572.982 365.568h-11.429v3.229h11.429v-3.229zM572.982 377.837h-11.429v3.229h11.429v-3.229zM572.982 390.096h-11.429v3.228h11.429v-3.228zM572.982 402.365h-11.429v3.229h11.429v-3.229zM421.167 325.769h-11.419v3.228h11.419v-3.228zM421.167 341.503h-11.419v3.229h11.419v-3.229zM421.167 357.238h-11.419v3.229h11.419v-3.229zM421.167 372.973h-11.419v3.228h11.419v-3.228zM421.167 388.708h-11.419v3.228h11.419v-3.228zM421.167 404.442h-11.419v3.229h11.419v-3.229zM421.167 420.177h-11.419v3.228h11.419v-3.228zM421.167 435.912h-11.419v3.228h11.419v-3.228zM421.167 451.646h-11.419v3.229h11.419v-3.229zM421.167 467.392h-11.419v3.228h11.419v-3.228zM421.167 483.126h-11.419v3.229h11.419v-3.229zM421.167 498.861h-11.419v3.229h11.419v-3.229zM572.982 414.634h-11.429v3.229h11.429v-3.229zM572.982 426.903h-11.429v3.229h11.429v-3.229zM572.982 439.173h-11.429v3.229h11.429v-3.229zM572.982 451.442h-11.429v3.229h11.429v-3.229zM524.239 217.994h-3.229v243.08h3.229v-243.08zM539.264 207.694h-3.229v253.38h3.229v-253.38z" fill="#22376F"/><path d="M784.12 514.919h-7.555a22.384 22.384 0 001.302-7.48c0-12.388-10.041-22.44-22.439-22.44h-24.582c-8.739 0-16.305 5.015-20.007 12.312a16.544 16.544 0 00-2.433-.204h-21.385c-9.051 0-16.38 7.329-16.38 16.38 0 .485.032.958.075 1.421h-5.252c-8.265 0-14.96 6.694-14.96 14.96 0 8.265 6.695 14.96 14.96 14.96H784.11c8.265 0 14.959-6.695 14.959-14.96.011-8.244-6.683-14.949-14.949-14.949z" fill="#fff"/><path d="M784.12 546.453H665.475c-9.137 0-16.574-7.437-16.574-16.574 0-9.138 7.437-16.575 16.574-16.575h3.562c.108-9.836 8.137-17.801 17.995-17.801h21.385c.485 0 1.001.022 1.539.076 4.284-7.545 12.183-12.194 20.901-12.194h24.581c13.26 0 24.055 10.784 24.055 24.054 0 1.969-.248 3.928-.743 5.865h5.381c9.137 0 16.574 7.437 16.574 16.575-.01 9.137-7.447 16.574-16.585 16.574zm-118.645-29.92c-7.361 0-13.345 5.984-13.345 13.346 0 7.361 5.984 13.345 13.345 13.345H784.12c7.362 0 13.346-5.984 13.346-13.345 0-7.362-5.984-13.346-13.346-13.346h-9.837l.765-2.152a20.693 20.693 0 001.216-6.942c0-11.484-9.342-20.825-20.826-20.825h-24.581c-7.878 0-14.992 4.38-18.565 11.429l-.528 1.044-1.151-.172a14.027 14.027 0 00-2.196-.183h-21.385c-8.147 0-14.766 6.619-14.766 14.766 0 .431.032.861.065 1.281l.15 1.754h-7.006zM130.462 176.278h-19.91v-19.91h19.91v19.91zm-16.682-3.229h13.454v-13.453H113.78v13.453zM130.462 213.473h-19.91v-19.911h19.91v19.911zm-16.682-3.229h13.454v-13.453H113.78v13.453zM71.904 475.388H61.583a1.612 1.612 0 01-1.615-1.614v-65.5c0-.894.721-1.615 1.615-1.615h10.32c.894 0 1.615.721 1.615 1.615v65.5c0 .893-.72 1.614-1.614 1.614zm-8.707-3.228h7.093v-62.272h-7.093v62.272zM92.04 474.969H81.72a1.612 1.612 0 01-1.615-1.615v-65.5c0-.893.721-1.614 1.614-1.614h10.322c.893 0 1.614.721 1.614 1.614v65.5c0 .894-.721 1.615-1.615 1.615zm-8.706-3.229h7.092v-62.272h-7.092v62.272zM96.023 394.885a1.612 1.612 0 01-1.615-1.614V253.262c0-.893.721-1.615 1.615-1.615.893 0 1.614.722 1.614 1.615v140.009c0 .893-.721 1.614-1.614 1.614zM123.811 546.453a1.612 1.612 0 01-1.614-1.615V253.262a1.614 1.614 0 113.229 0v291.576c0 .894-.722 1.615-1.615 1.615zM149.512 546.453a1.613 1.613 0 01-1.615-1.615V253.262a1.614 1.614 0 113.229 0v291.576c0 .894-.721 1.615-1.614 1.615zM233.233 425.149h-45.557v3.229h45.557v-3.229zM233.233 439.409h-45.557v3.229h45.557v-3.229zM233.233 453.67h-45.557v3.229h45.557v-3.229zM233.233 467.919h-45.557v3.229h45.557v-3.229zM233.233 482.18h-45.557v3.228h45.557v-3.228zM233.233 496.439h-45.557v3.229h45.557v-3.229zM302.672 479.338h-33.374a1.612 1.612 0 01-1.614-1.614v-10.86c0-.893.721-1.614 1.614-1.614h33.374c.894 0 1.615.721 1.615 1.614v10.86c0 .893-.721 1.614-1.615 1.614zm-31.76-3.229h30.146v-7.63h-30.146v7.63zM362.824 527.845h-46.343a1.612 1.612 0 01-1.615-1.614v-10.86c0-.893.721-1.614 1.615-1.614h46.343c.893 0 1.614.721 1.614 1.614v10.86c0 .882-.732 1.614-1.614 1.614zm-44.74-3.229h43.115v-7.63h-43.115v7.63zM302.425 504.565h-33.127a1.612 1.612 0 01-1.614-1.614v-9.675c0-.894.721-1.615 1.614-1.615h33.127c.893 0 1.614.721 1.614 1.615v9.675c0 .893-.732 1.614-1.614 1.614zm-31.513-3.228h29.898v-6.447h-29.898v6.447zM580.193 71.86H477.831c-10.062 0-18.242-8.179-18.242-18.242 0-10.062 8.18-18.242 18.242-18.242h12.872a24.43 24.43 0 01-2.54-10.86C488.163 11 499.163 0 512.68 0c10.16 0 19.308 6.393 22.892 15.778a23.414 23.414 0 0110.762-2.626c12.539 0 22.817 9.858 23.495 22.235h10.364c10.063 0 18.243 8.18 18.243 18.242 0 10.063-8.18 18.232-18.243 18.232zM477.831 38.606c-8.276 0-15.013 6.737-15.013 15.014 0 8.276 6.737 15.013 15.013 15.013h102.362c8.277 0 15.014-6.737 15.014-15.014 0-8.276-6.737-15.013-15.014-15.013h-11.957a1.66 1.66 0 01-1.152-.474 1.583 1.583 0 01-.462-1.151c0-.086.01-.172.01-.258 0-11.237-9.105-20.341-20.287-20.341-3.82 0-7.555 1.087-10.805 3.142a1.615 1.615 0 01-2.411-.926c-2.615-9.05-11.021-15.368-20.438-15.368-11.742 0-21.288 9.557-21.288 21.288 0 4.122 1.195 8.125 3.444 11.591.323.495.344 1.13.064 1.647-.279.516-.828.84-1.42.84h-15.66v.01zM20.76 154.603c-.279 0-.559-.076-.806-.216-.097-.053-9.697-5.575-18.34-5.575A1.612 1.612 0 010 147.198c0-.893.721-1.614 1.614-1.614 7.19 0 14.659 3.282 18.07 4.993 1.141-3.713 4.628-10.784 14.605-10.784.893 0 1.614.722 1.614 1.615s-.72 1.614-1.614 1.614c-10.547 0-11.86 9.74-11.914 10.16a1.603 1.603 0 01-.882 1.248 1.615 1.615 0 01-.732.173zM382.82 69.181a1.65 1.65 0 01-.807-.215c-.097-.054-9.697-5.575-18.339-5.575a1.612 1.612 0 01-1.614-1.614c0-.894.721-1.615 1.614-1.615 7.189 0 14.658 3.283 18.07 4.994 1.141-3.713 4.628-10.784 14.594-10.784.893 0 1.614.721 1.614 1.614 0 .894-.721 1.615-1.614 1.615-10.547 0-11.86 9.74-11.914 10.16a1.605 1.605 0 01-.883 1.248 1.545 1.545 0 01-.721.172zM36.216 183.661c-.28 0-.56-.075-.807-.215-.097-.054-9.697-5.575-18.34-5.575a1.612 1.612 0 01-1.614-1.614c0-.894.721-1.615 1.614-1.615 7.19 0 14.648 3.283 18.07 4.994 1.141-3.713 4.628-10.784 14.594-10.784.894 0 1.615.721 1.615 1.614 0 .894-.721 1.615-1.614 1.615-10.548 0-11.86 9.74-11.904 10.16a1.605 1.605 0 01-.882 1.248 1.77 1.77 0 01-.732.172zM616.635 135.37c-.28 0-.56-.075-.807-.215-.097-.054-9.697-5.575-18.34-5.575a1.612 1.612 0 01-1.614-1.614c0-.894.721-1.615 1.614-1.615 7.19 0 14.659 3.283 18.071 4.994 1.14-3.713 4.627-10.784 14.593-10.784.894 0 1.615.721 1.615 1.614 0 .894-.721 1.615-1.615 1.615-10.611 0-11.86 9.74-11.903 10.149a1.639 1.639 0 01-.882 1.259 1.774 1.774 0 01-.732.172zM497.86 169.014a1.65 1.65 0 01-.807-.216c-.097-.053-9.697-5.574-18.339-5.574a1.613 1.613 0 01-1.614-1.615c0-.893.721-1.614 1.614-1.614 7.189 0 14.658 3.282 18.07 4.994 1.141-3.713 4.628-10.784 14.594-10.784.893 0 1.614.721 1.614 1.614 0 .893-.721 1.614-1.614 1.614-10.612 0-11.86 9.74-11.903 10.149a1.642 1.642 0 01-.883 1.26 1.786 1.786 0 01-.732.172z" fill="#22376F"/></g></svg>