<svg width="362" height="484" fill="none" xmlns="http://www.w3.org/2000/svg"><path d="M217.833 409.012a9.998 9.998 0 01-8.322 1.38L67.876 371.016a10 10 0 01-7.322-9.634v-26.091c0-1.44.306-2.852.92-4.154 2.723-5.767 10.947-22.751 17.254-31.219 1.147-1.539 1.952-3.307 2.599-5.115 2.359-6.592 8.965-15.391 13.182-20.611 2.247-2.78 5.868-3.984 9.371-3.268l179.003 36.566a10 10 0 017.89 8.329l4.921 33.143a9.999 9.999 0 01-4.248 9.724l-73.613 50.326z" fill="#BF252B"/><path d="M22.097 445.287c-12.204-3.233-17.459-21.089-11.738-39.882 5.722-18.793 20.253-31.407 32.457-28.174 12.204 3.233 17.46 21.089 11.738 39.882-5.722 18.793-20.253 31.407-32.457 28.174z" fill="#545ED7"/><path d="M29.116 440.569c-9.53-2.525-13.633-16.47-9.164-31.148 4.468-14.678 15.816-24.53 25.346-22.005 9.53 2.524 13.633 16.47 9.165 31.147-4.469 14.678-15.817 24.53-25.347 22.006z" fill="#fff"/><path d="M35.077 425.933c-4.641-1.23-6.64-8.019-4.465-15.163 2.175-7.145 7.7-11.94 12.342-10.711 4.64 1.23 6.64 8.019 4.465 15.163-2.175 7.145-7.7 11.94-12.342 10.711z" fill="#545ED7"/><path d="M222.424 277.882c-40.811-11.753-81.191-18.214-121.997-29.964 40.865-57.009 67.247-135.76 109.146-207.738 0 0 71.039 1.339 79.775 105.612 8.737 104.274 2.184 11.572 2.184 11.572l-69.108 120.518z" fill="#B6292F"/><path d="M286.35 150.424c-13.856 46.012-41.331 85.823-64.146 126.053 5.978 1.697 19.163 4.535 25.145 6.231 0 0 63.061-113.613 61.067-114.55-1.993-.938-21.073-13.803-22.066-17.734z" fill="#E32E36"/><path d="M309.956 173.43l44.803-91.05s8.139-18.633-6.603-28.093L318.743 40.18M296.995 381.272l-14.484-155.569" stroke="#fff" stroke-width="9" stroke-miterlimit="10"/><path d="M281.548 428.189c-14.92-3.953-21.344-25.783-14.349-48.759 6.995-22.977 24.76-38.399 39.68-34.446 14.92 3.952 21.344 25.782 14.349 48.759-6.995 22.976-24.76 38.398-39.68 34.446z" fill="#545ED7"/><path d="M290.132 422.42c-11.652-3.086-16.669-20.136-11.206-38.08 5.463-17.945 19.338-29.989 30.99-26.903 11.651 3.087 16.669 20.137 11.205 38.081-5.463 17.945-19.337 29.989-30.989 26.902z" fill="#fff"/><path d="M265.441 257.098s5.727-29.866-8.411-36.205c-9.054-4.061-122.053-28.841-140.182-32.667-2.356-.498-4.848-.143-6.873 1.124-3.56 2.223-6.827 10.441 14.726 20.027" stroke="#fff" stroke-width="9" stroke-miterlimit="10"/><path d="M298.194 401.985c-4.764-1.262-6.816-8.228-4.584-15.559 2.232-7.331 7.903-12.251 12.666-10.989 4.764 1.262 6.816 8.228 4.584 15.559-2.232 7.331-7.903 12.251-12.666 10.989zM145.532 476.96c-12.996-3.443-18.592-22.459-12.499-42.474 6.093-20.014 21.568-33.448 34.565-30.005 12.997 3.443 18.593 22.459 12.5 42.474-6.094 20.014-21.569 33.448-34.566 30.005z" fill="#545ED7"/><path d="M153.011 471.936c-10.151-2.689-14.521-17.541-9.763-33.172 4.759-15.632 16.846-26.124 26.996-23.435 10.15 2.689 14.521 17.541 9.762 33.172-4.758 15.632-16.845 26.124-26.995 23.435z" fill="#fff"/><path d="M159.613 455.522c-4.644-1.23-6.644-8.026-4.466-15.179 2.177-7.153 7.708-11.954 12.352-10.724 4.645 1.231 6.644 8.027 4.467 15.18-2.178 7.152-7.708 11.953-12.353 10.723z" fill="#545ED7"/><path d="M260.268 67.71S219.12 56.9 193.979 89.554c-21.224 26.148-42.593 67.101-42.593 67.101s-50.708-84.89-33.356-109.758c17.355-24.864 118.96-28.95 142.238 20.813z" fill="#A21C21"/><path d="M310.444 172.559l-97.449 182.204s-33.988 63.279-59.732 73.753c-25.74 10.474-106.048-8.294-118.259-27.931-12.21-19.637 40.856-119.031 40.856-119.031" stroke="#fff" stroke-width="9" stroke-miterlimit="10"/><path d="M267.847 257.133c7.533 3.074 16.874-1.345 20.857-9.862 3.987-8.524 1.113-17.928-6.421-21.001-7.533-3.074-16.866 1.348-20.854 9.872-3.983 8.517-1.108 17.92 6.418 20.991z" fill="#FFF7CF"/><path d="M270.474 251.514c4.793 1.956 10.732-.854 13.265-6.269 2.537-5.423.709-11.403-4.084-13.358-4.785-1.953-10.725.857-13.261 6.28-2.533 5.415-.705 11.395 4.08 13.347z" fill="#FF7915"/><path d="M103.013 244.537s-63.109 5.797-39.831 60.391c10.346 24.264 142.305 53.508 144.14 25.23 1.835-28.278 40.027-47.45 40.027-47.45l-144.336-38.171z" fill="#E32E36"/><path d="M301.65 177.391s-18.21-1.65-16.636-12.32c6.927-46.905-8.836-117.001-78.719-124.405-69.882-7.403-90.831 11.503-90.831 11.503s2.566-21.438 14.882-32.592C147.416 4.117 158.135-.69 199.012.615c40.877 1.304 57.994 6.203 70.222 13.39l.621.364s27.287-6.777 50.736 21.842c19.796 24.164 12.227 59.428 12.227 59.428l-31.168 81.752z" fill="#EE4A51"/><path d="M303.913 156.683s9.89-52.526-2.135-90.795-51.856-59.536-51.856-59.536 45.757.325 70.983 29.536c31.487 36.458 7.644 88.841 7.644 88.841s-25.864 57.483-26.771 51.695c-.907-5.788 2.135-19.741 2.135-19.741z" fill="#E32E36"/></svg>