<svg width="1440" height="1757" viewBox="0 0 1440 1757" fill="none" xmlns="http://www.w3.org/2000/svg">
<path d="M574.5 680.5C681.606 652.346 728 611.5 728 611.5C728 611.5 1120.76 565.369 1220.42 531.733C1344.99 489.688 1490.86 435.934 1554.21 481.173C1617.56 526.411 1662.81 700.978 1758.64 825.517C1854.47 950.056 1937.51 1465.77 1826.25 1497.17C1714.99 1528.58 1476.49 1684.51 1288.03 1707.93C1099.57 1731.35 781.159 1684.51 510.247 1684.51C194.023 1684.51 56.1406 1805.86 -134.446 1734.54C-325.032 1663.23 -156.292 1094.44 -53.0131 1004.5C50.2655 914.555 75 850.5 270 779C450.426 712.844 399.5 726.5 574.5 680.5Z" fill="#002869"/>
<path d="M660.578 693.134C667.027 685.073 675.531 669.097 678.977 662.117C683.153 664.833 691.612 670.318 692.032 670.528C692.453 670.739 695.128 684.985 696.413 692.082C681.781 695.791 654.129 701.194 660.578 693.134Z" fill="#002869"/>
<path d="M1397 873.111V701.5L1354.9 618.636L1068.5 701.5C1050 1083.5 1144.15 971.88 1248.06 982.059C1377.94 994.783 1397 927.983 1397 873.111Z" fill="#DE383F"/>
<path d="M662 658C719.5 621.5 727.069 614.5 754 583C810 517.5 775.956 487.792 807.759 416.12C832.289 360.828 886.706 353.411 916.247 294.328C934.383 258.072 920.937 210.142 951.542 167.42C986.333 118.835 1040.04 123.42 1074.3 71.0082C1107.56 20.0957 1150.08 -10.2978 1203.7 4.58334C1217.9 5.99176 1218.98 9.38066 1233.96 20.4626C1285.17 58.3402 1323.31 71.525 1323.31 71.525C1352.4 171.259 1414.55 181.954 1445.78 224.381C1496.61 293.417 1463.94 345.541 1491.09 413.741C1549.74 561.085 1360.47 611.899 1393.65 701.352L664 691L662 658Z" fill="#002869"/>
<path d="M1397.37 701.349H1069.04C1078.35 590.158 1109.4 541.116 1115.59 472.754C1116.36 464.264 1134.35 454.942 1161.26 453.616C1222.51 450.649 1326.93 461.909 1331.61 474.928C1352.71 533.628 1394.89 582.702 1397.37 701.349Z" fill="#DE383F"/>
<path d="M1106.16 403.989C1106.48 414.448 1106.89 469.341 1112.09 475.859C1150.47 523.99 1325.27 495.596 1337.74 481.875C1352.07 466.106 1334.56 423.202 1331.61 408.305C1325.45 377.158 1417.74 449.15 1417.74 449.15C1451.54 413.217 1453.4 365.102 1442.05 320.293C1431.53 278.711 1405.52 239.29 1367.58 212.491C1326.33 183.356 1269.52 168.672 1212.65 168.672C1057.82 168.672 995.801 320.261 1020.39 396.162C1028.14 420.086 1105.57 384.441 1106.16 403.989Z" fill="#545ED7"/>
<path d="M1065.54 540.725C1064.17 543.956 1066.75 548.651 1079.43 550.758C1087.04 552.02 1087.47 550.896 1096 551.76C1106.42 552.817 1114.76 558.546 1120.17 552.975C1124.28 548.746 1122.1 544.051 1124.7 538.717C1127.18 533.64 1147.2 516.403 1158.97 507.471C1158.97 507.471 1142.64 487.974 1133.3 481.875C1133.3 481.875 1118.35 510.332 1102.56 526.25C1096.39 532.472 1085.15 536.105 1080.44 537.084C1068.59 539.557 1066.62 538.145 1065.54 540.725Z" fill="#FDB88E"/>
<path d="M1226.63 112.039C1235.42 113.877 1238.87 113.298 1242.72 113.443C1245.79 113.558 1248.41 115.29 1248.41 115.29L1255.27 98.4716C1253.06 96.2662 1244.36 87.504 1232.85 83.7482C1230.79 83.0736 1218.53 80.959 1217.19 82.5923C1216.27 83.7206 1217.65 84.5806 1219.63 85.2316C1215.41 84.4741 1210.83 84.0875 1210.31 85.8115C1209.98 86.9162 1211.81 87.9735 1214.2 88.869C1210.79 88.0958 1208.25 87.8867 1207.66 89.0268C1206.6 91.1099 1211.7 93.2639 1215.41 94.4909C1212.79 93.7768 1210.26 93.3507 1210.04 94.6645C1209.53 97.5602 1218.76 99.4421 1222.83 101.036C1226.23 102.365 1229.41 105.088 1229.45 105.727C1226.06 107.182 1217.82 104.811 1217.15 108.48C1216.8 110.394 1220.28 110.709 1226.63 112.039Z" fill="#FDB88E"/>
<path d="M1372.38 367.378C1370.3 336.302 1380.08 309.558 1374.1 258.752C1372.61 246.072 1363.82 210.503 1348.44 191.246C1274.48 98.6334 1228.76 119.507 1213.03 115.4C1205.91 113.542 1191.68 134.933 1195.24 137.414C1241.66 184.153 1281.02 201.551 1278.5 231.515C1267.55 239.251 1268.9 249.315 1260.45 264.031C1233.81 310.382 1244.11 341.68 1229.79 378.484C1222.62 396.928 1194.6 398.052 1167.6 428.024C1149.39 448.231 1118.07 473.527 1107.49 510.576C1106.46 514.608 1130.06 538.425 1133.54 534.456C1157.38 521.824 1211.79 481.871 1231.06 477.5C1266.3 469.507 1317.63 482.999 1348.44 453.131C1370.73 431.519 1374.65 401.295 1372.38 367.378Z" fill="white"/>
<path d="M1240.2 102.44L1254.93 185.534C1257.22 206.309 1180 208.064 1176.68 185.573L1179.51 153.057L1240.2 102.44Z" fill="#DE383F"/>
<path d="M1254.91 106.666C1253.68 145.987 1223.14 170.499 1194.53 168.566C1174.67 167.224 1162.76 146.84 1158.31 135.162C1158.29 135.119 1158.26 135.063 1158.25 135.02C1156.1 129.785 1154.85 124.182 1154.46 118.647C1154.31 116.205 1154.4 113.866 1154.57 111.495C1154.69 109.708 1154.85 107.893 1154.97 106.011C1155.16 102.993 1155.02 99.7895 1154.93 96.1323C1154.64 84.7229 1156.76 79.752 1159.08 75.791C1170.14 56.8661 1187.92 68.4057 1203.34 37.8149C1213.29 18.1127 1255.95 73.3016 1254.91 106.666Z" fill="#FDB88E"/>
<path d="M1214.68 119.164C1213.14 128.104 1221.65 135.762 1230.94 132.361C1233.76 131.327 1236.06 129.149 1237.24 126.388C1241.2 117.156 1233.76 108.114 1224.58 109.467C1219.51 110.217 1215.55 114.103 1214.68 119.164Z" fill="#DE383F"/>
<path d="M1167.6 123.69C1167.45 129.284 1163.47 133.86 1158.25 135.02C1156.1 129.785 1154.85 124.183 1154.46 118.648C1154.31 116.206 1154.4 113.866 1154.57 111.495C1155.04 111.452 1155.52 111.432 1156.01 111.444C1162.59 111.617 1167.77 117.109 1167.6 123.69Z" fill="#DE383F"/>
<path d="M1203.7 4.58455C1208.85 -0.599403 1290.2 -15.9224 1323.39 66.0503C1340.04 107.155 1336.16 113.83 1368.25 154.032L1393.12 234.462C1335.61 176.539 1304.12 206.609 1254.92 180.811C1230.33 167.915 1236.76 135.3 1234.66 93.9426C1232.88 58.8582 1178.48 63.2768 1188.51 40.0358C1203.02 6.40328 1203.7 4.58455 1203.7 4.58455Z" fill="#002869"/>
<path d="M1220.24 413.418C1212.46 408.956 1202.56 406.704 1198.71 405.149C1190.52 401.847 1182.46 394.355 1180.71 397.642C1176.24 406.076 1197.99 415.904 1197.08 421.246C1194.9 423.262 1185.86 422.547 1179.61 421.356C1172.12 419.928 1151.86 410.057 1150.79 414.491C1149.89 418.212 1164.48 425.83 1169.71 427.499C1164.26 425.806 1141.35 415.703 1141.41 422.113C1141.46 426.812 1168.47 435.933 1172.08 437.05C1170.31 436.592 1144.71 426.915 1145.1 431.653C1145.54 437.141 1169.19 444.009 1172.81 445.126C1170.57 444.565 1148.83 435.586 1149.58 441.488C1150.04 445.145 1171.15 453.675 1174.77 454.795C1190.73 459.743 1233.93 457.695 1239.23 456.488L1248.01 431.953C1248.01 431.953 1238.99 425.068 1234.35 422.382C1228.53 419.028 1223.16 415.095 1220.24 413.418Z" fill="#FAB898"/>
<path d="M1216.37 460.449C1240.02 481.875 1361.16 499.581 1417.74 449.146C1417.74 449.146 1373.08 334.01 1372.19 352.383C1370.36 390.367 1300.82 420.749 1235.82 407.655C1225.59 406.767 1208.69 450.164 1216.37 460.449Z" fill="#545ED7"/>
<path d="M1261.73 376.535C1268.43 370.558 1277.65 366.313 1281.1 363.998C1288.42 359.078 1294.77 350.079 1297.16 352.931C1303.28 360.258 1284.02 374.37 1286.01 379.411C1288.56 380.934 1297.26 378.366 1303.13 375.908C1310.16 372.965 1327.95 359.121 1329.91 363.236C1331.56 366.692 1318.85 377.163 1314.08 379.873C1319.06 377.092 1339.4 362.475 1340.65 368.759C1341.58 373.367 1317.03 387.87 1313.72 389.712C1315.36 388.896 1338.42 374.141 1339.02 378.859C1339.71 384.323 1317.99 395.926 1314.68 397.768C1316.77 396.754 1336.18 383.479 1336.67 389.408C1336.97 393.081 1318.07 405.789 1314.76 407.635C1300.17 415.774 1257.48 422.694 1252.04 422.607L1238.39 400.416C1238.39 400.416 1245.79 391.815 1249.79 388.229C1254.78 383.735 1259.22 378.776 1261.73 376.535Z" fill="#FDB88E"/>
<path d="M1270.2 427.171C1248.66 454.654 1054.43 498.851 1020.05 395.081C1020.05 395.081 1108.52 304.398 1110 322.735C1114.12 373.77 1193.9 390.367 1250.39 386.335C1260.62 385.443 1277.88 416.886 1270.2 427.171Z" fill="#545ED7"/>
<path d="M1171.74 104.748C1162.16 105.628 1157.89 100.476 1157.67 100.211C1157.22 99.6394 1157.31 98.803 1157.88 98.3453C1158.45 97.8916 1159.28 97.9784 1159.74 98.5465C1159.98 98.8306 1165.15 104.855 1177.61 100.795C1178.31 100.566 1179.05 100.949 1179.28 101.647C1179.51 102.346 1179.13 103.095 1178.43 103.32C1175.96 104.121 1173.74 104.563 1171.74 104.748Z" fill="#002869"/>
<path d="M1211.81 106.315C1205.89 106.859 1201.49 104.74 1201.2 104.595C1200.54 104.267 1200.27 103.474 1200.6 102.815C1200.92 102.16 1201.72 101.892 1202.37 102.216C1202.79 102.421 1212.81 107.183 1222.65 98.7991C1223.21 98.3256 1224.05 98.3888 1224.52 98.949C1224.99 99.5053 1224.93 100.346 1224.37 100.819C1220.01 104.535 1215.6 105.967 1211.81 106.315Z" fill="#002869"/>
<path d="M1189.44 131.654C1187.9 131.796 1186.31 131.595 1184.87 131.031C1182.45 130.076 1180.8 128.198 1180.36 125.874C1179.79 122.888 1181.66 120.446 1183.46 118.087C1184.36 116.915 1185.28 115.704 1185.86 114.469C1187.88 110.196 1188.06 102.981 1188.06 102.91C1188.08 102.176 1188.7 101.596 1189.42 101.612C1190.15 101.627 1190.73 102.235 1190.71 102.965C1190.71 103.284 1190.52 110.82 1188.26 115.605C1187.56 117.092 1186.54 118.418 1185.57 119.696C1183.99 121.768 1182.62 123.555 1182.96 125.377C1183.33 127.307 1184.92 128.198 1185.84 128.561C1188.01 129.417 1190.75 129.117 1192.49 127.835C1193.08 127.401 1193.91 127.527 1194.34 128.115C1194.77 128.707 1194.65 129.536 1194.06 129.97C1192.77 130.924 1191.13 131.496 1189.44 131.654Z" fill="#DE383F"/>
<path d="M1192.43 145.372C1185.89 145.419 1180.95 142.59 1180.64 142.409C1180.01 142.038 1179.8 141.225 1180.17 140.594C1180.54 139.963 1181.35 139.75 1181.98 140.121C1182.1 140.192 1192.22 145.932 1202.05 139.975C1202.67 139.596 1203.49 139.793 1203.87 140.42C1204.25 141.048 1204.05 141.864 1203.42 142.243C1199.61 144.555 1195.8 145.348 1192.43 145.372Z" fill="#DE383F"/>
<path d="M1320.13 121.448C1308.45 102.429 1287.1 118.533 1287.1 118.533C1266.85 112.24 1245.58 114.698 1233.8 127.275C1229.49 131.875 1231.76 138.314 1238.48 139.624C1229.64 140.444 1221.29 144.977 1217.92 150.351C1214.05 156.513 1217.98 168.057 1233.85 172.037C1243.5 174.46 1255.43 170.262 1267.17 169.994C1272.68 169.867 1280.61 172.822 1288.23 177.091C1294.7 185.352 1300.24 196.375 1303.24 202.979C1305.59 208.128 1313.98 209.39 1318.37 205.816C1319.14 205.185 1319.79 211.824 1320.66 211.832C1329.98 211.899 1330.07 178.425 1330.07 178.425C1338.98 164.826 1344.79 125.954 1320.13 121.448Z" fill="#002869"/>
<path d="M1316.48 186.693L1323.4 228.248L1273.16 242.711L1273.36 219.344L1316.48 186.693Z" fill="#DE383F"/>
<path d="M1310.49 198.868C1307.9 223.652 1286.63 228.919 1274.62 228.528C1263.72 228.185 1256.94 221.352 1250.9 212.692C1250.62 212.294 1250.3 211.793 1249.96 211.217C1248.43 208.625 1246.44 204.605 1245.77 202.616C1244.78 199.709 1244.41 196.509 1244.67 193.124C1244.75 191.897 1244.93 190.659 1245.19 189.384C1245.5 187.932 1245.7 186.433 1245.78 184.95C1245.79 184.764 1245.8 184.579 1245.8 184.39C1245.92 182.105 1245.78 179.801 1245.44 177.541C1245.1 175.15 1244.78 172.637 1244.58 170.684C1243.65 161.705 1243.68 150.797 1248.41 147.636C1255.55 142.109 1308.68 114.134 1316.93 162.095C1317.45 165.114 1313.83 169.299 1312.4 176.598C1327.16 170.514 1324.74 200.494 1310.49 198.868Z" fill="#FDB88E"/>
<path d="M1283.25 198.399C1283.49 203.914 1288.14 208.191 1293.65 207.958C1299.16 207.721 1303.44 203.062 1303.2 197.551C1302.97 192.035 1298.31 187.759 1292.8 187.991C1287.29 188.224 1283.02 192.883 1283.25 198.399Z" fill="#DE383F"/>
<path d="M1250.9 211.229C1250.58 211.244 1250.26 211.244 1249.96 211.217C1248.43 208.625 1246.44 204.605 1245.77 202.616C1244.78 199.709 1244.41 196.509 1244.67 193.124C1246.19 192.02 1248.03 191.345 1250.04 191.258C1255.56 191.037 1260.21 195.314 1260.44 200.821C1260.67 206.345 1256.4 211.004 1250.9 211.229Z" fill="#DE383F"/>
<path d="M1240.77 162.675C1240.77 162.675 1231.86 132.191 1262.48 123.512C1293.66 114.678 1293.68 128.727 1293.68 128.727C1301.52 124.076 1317.67 112.54 1329.86 129.97C1338.54 142.381 1338.17 158.545 1329.27 172.144C1325.33 178.164 1312.83 169.647 1310.41 183.139C1302.32 183.565 1302.53 166.096 1295.52 154.28C1294.63 152.765 1292.6 152.39 1291.2 153.452C1284.73 158.351 1246.56 169.051 1240.77 162.675Z" fill="#002869"/>
<path d="M1291.56 183.75C1292.5 183.06 1293.01 182.464 1293.07 182.389C1293.41 181.983 1293.36 181.376 1292.95 181.036C1292.54 180.701 1291.94 180.752 1291.6 181.159C1291.42 181.368 1287.31 186.09 1279.37 183.261C1278.87 183.084 1278.33 183.344 1278.15 183.841C1277.97 184.338 1278.23 184.891 1278.73 185.068C1285.12 187.348 1289.44 185.305 1291.56 183.75Z" fill="#002869"/>
<path d="M1263 186.185C1263.41 185.885 1263.3 185.013 1263.01 184.583C1262.72 184.141 1262.02 183.873 1261.58 184.165C1261.38 184.295 1256.54 187.262 1250.79 183.265C1250.36 182.961 1249.74 183.032 1249.43 183.466C1249.13 183.9 1249.44 184.776 1249.88 185.08C1256.72 189.846 1262.73 186.382 1262.96 186.208C1262.97 186.2 1262.98 186.192 1263 186.185Z" fill="#002869"/>
<path d="M1277.75 207.516C1278.17 207.205 1278.41 206.81 1278.1 206.38C1277.79 205.95 1277.27 205.946 1276.84 206.254C1276.79 206.285 1272.37 209.442 1268.42 207.311C1267.95 207.059 1267.39 207.26 1267.14 207.725C1266.89 208.191 1266.93 208.589 1267.39 208.842C1272.41 211.548 1277.52 207.686 1277.74 207.524C1277.74 207.52 1277.74 207.516 1277.75 207.516Z" fill="#DE383F"/>
<path d="M1272.97 200.289C1273.38 199.985 1273.45 199.357 1273.16 198.927C1272.86 198.486 1272.25 198.344 1271.81 198.639C1270.48 199.527 1269.11 199.819 1268.05 199.468C1267.51 199.29 1267.09 198.939 1266.96 198.565C1266.44 197.105 1266.98 196.414 1268.25 195.002C1269.69 193.4 1271.66 191.203 1271.08 186.67C1271.01 186.145 1270.53 185.77 1270.01 185.837C1269.48 185.9 1269.11 186.382 1269.18 186.91C1269.64 190.572 1268.21 192.169 1266.82 193.716C1265.61 195.069 1264.23 196.6 1265.14 199.2C1265.48 200.135 1266.37 200.967 1267.47 201.33C1268.43 201.646 1270.52 202.088 1272.93 200.316C1272.95 200.304 1272.96 200.296 1272.97 200.289Z" fill="#DE383F"/>
<path d="M1128.23 253.391C1125.53 255.967 1132.04 261.549 1132.68 265.191C1132.13 265.506 1128.1 264.338 1125.13 262.228C1121.57 259.703 1114.92 253.012 1112.78 255.024C1111.81 255.939 1113.56 257.813 1115.59 259.616C1112.53 257.186 1107.93 254.105 1106.77 256.136C1106.14 257.253 1107.71 259.265 1110.23 261.691C1108.17 260.188 1106.28 259.233 1105.54 260.117C1104.38 261.498 1107.22 265.108 1110.17 268.228C1108.54 266.93 1107.07 266.248 1106.63 267.641C1106 269.656 1114.5 278.746 1116.2 280.103C1125.65 287.67 1137.75 290.136 1140.8 290.767L1151.08 275.799C1151.08 275.799 1148.2 274.556 1146.41 272.051C1144.18 268.919 1142.77 265.707 1136.41 259.367C1131.81 254.783 1129.64 252.045 1128.23 253.391Z" fill="#FDB88E"/>
<path d="M1269.09 234.466C1244.64 249.296 1220.48 272.848 1148.71 268.169C1144.68 266.548 1129.62 288.021 1135.08 292.953C1149.02 305.542 1246.58 355.377 1316.05 311.673C1342.06 295.312 1360.6 253.051 1338.86 225.849C1332.18 217.494 1319.36 203.981 1269.09 234.466Z" fill="white"/>
<path d="M1331.12 178.922C1331.01 178.922 1330.91 178.902 1330.8 178.862C1330.35 178.689 1330.13 178.18 1330.3 177.726C1338.08 157.736 1339.21 141.139 1333.49 130.992C1330.59 125.855 1326.06 122.62 1320.38 121.638C1320.17 121.602 1319.97 121.484 1319.84 121.314C1309.1 107.597 1297.27 113.755 1290.91 117.061C1288.61 118.261 1287.45 118.86 1286.58 118.359C1284.49 117.168 1260.63 110.13 1240.93 122.557C1240.53 122.817 1239.98 122.695 1239.73 122.285C1239.47 121.874 1239.59 121.334 1240 121.078C1260.3 108.272 1284.28 115.207 1287.34 116.781C1287.77 116.726 1289.01 116.083 1290.11 115.511C1296.39 112.24 1309.43 105.455 1321.02 119.973C1327.07 121.117 1331.91 124.624 1335.02 130.136C1341 140.752 1339.91 157.882 1331.94 178.369C1331.8 178.709 1331.47 178.922 1331.12 178.922Z" fill="#545ED7"/>
<path d="M939.997 704.407C937.474 706.253 934.233 706.814 931.237 705.922L789.701 663.792C785.461 662.53 782.554 658.632 782.554 654.208V625.307C782.554 623.952 782.827 622.616 783.373 621.376C786.007 615.39 794.468 596.62 800.873 587.513C801.931 586.008 802.665 584.306 803.225 582.554C805.482 575.491 812.179 565.919 816.461 560.24C818.716 557.25 822.518 555.941 826.177 556.742L1004.93 595.839C1009.03 596.734 1012.13 600.085 1012.7 604.234L1017.79 640.945C1018.3 644.588 1016.76 648.215 1013.79 650.388L939.997 704.407Z" fill="#BF252B"/>
<path d="M744.097 743.365C731.893 739.904 726.638 720.786 732.359 700.664C738.081 680.542 752.612 667.037 764.816 670.498C777.02 673.96 782.275 693.078 776.554 713.2C770.832 733.321 756.301 746.827 744.097 743.365Z" fill="#545ED7"/>
<path d="M751.116 738.313C741.586 735.61 737.483 720.679 741.952 704.964C746.42 689.248 757.768 678.7 767.298 681.403C776.828 684.106 780.931 699.037 776.463 714.753C771.994 730.468 760.646 741.016 751.116 738.313Z" fill="white"/>
<path d="M757.077 722.643C752.436 721.326 750.437 714.058 752.612 706.408C754.787 698.758 760.313 693.624 764.954 694.94C769.595 696.257 771.594 703.525 769.419 711.175C767.244 718.825 761.718 723.959 757.077 722.643Z" fill="#545ED7"/>
<path d="M944.424 564.127C903.613 551.543 863.233 544.625 822.427 532.045C863.292 471.005 889.674 386.688 931.573 309.622C931.573 309.622 1002.61 311.055 1011.35 422.7C1020.08 534.344 1013.53 435.089 1013.53 435.089L944.424 564.127Z" fill="#B6292F"/>
<path d="M1008.35 427.658C994.494 476.923 967.019 519.548 944.204 562.623C950.182 564.439 963.367 567.478 969.349 569.294C969.349 569.294 1032.41 447.649 1030.42 446.646C1028.42 445.642 1009.34 431.868 1008.35 427.658Z" fill="#E32E36"/>
<path d="M1031.96 452.291L1076.76 354.805C1076.76 354.805 1084.9 334.855 1070.16 324.726L1040.74 309.622" stroke="white" stroke-width="9" stroke-miterlimit="10"/>
<path d="M1018.99 674.825L1004.51 508.26" stroke="white" stroke-width="9" stroke-miterlimit="10"/>
<path d="M1003.55 725.058C988.628 720.827 982.204 697.453 989.199 672.852C996.194 648.252 1013.96 631.74 1028.88 635.972C1043.8 640.203 1050.22 663.577 1043.23 688.178C1036.23 712.778 1018.47 729.29 1003.55 725.058Z" fill="#545ED7"/>
<path d="M1012.13 718.882C1000.48 715.577 995.463 697.323 1000.93 678.11C1006.39 658.897 1020.26 646.001 1031.92 649.306C1043.57 652.611 1048.58 670.865 1043.12 690.078C1037.66 709.291 1023.78 722.187 1012.13 718.882Z" fill="white"/>
<path d="M987.441 541.873C987.441 541.873 993.168 509.896 979.03 503.109C969.976 498.761 856.977 472.229 838.848 468.133C836.492 467.6 834 467.98 831.975 469.336C828.415 471.717 825.148 480.515 846.701 490.779" stroke="white" stroke-width="9" stroke-miterlimit="10"/>
<path d="M1020.19 697.003C1015.43 695.652 1013.38 688.193 1015.61 680.344C1017.84 672.494 1023.51 667.226 1028.28 668.577C1033.04 669.929 1035.09 677.387 1032.86 685.237C1030.63 693.086 1024.96 698.354 1020.19 697.003Z" fill="#545ED7"/>
<path d="M867.532 777.277C854.536 773.591 848.94 753.23 855.033 731.801C861.126 710.372 876.601 695.988 889.598 699.674C902.595 703.361 908.191 723.721 902.098 745.151C896.004 766.58 880.529 780.963 867.532 777.277Z" fill="#545ED7"/>
<path d="M875.011 771.898C864.86 769.019 860.49 753.117 865.248 736.381C870.007 719.644 882.094 708.411 892.244 711.29C902.394 714.169 906.765 730.07 902.006 746.807C897.248 763.543 885.161 774.777 875.011 771.898Z" fill="white"/>
<path d="M881.613 754.324C876.969 753.006 874.969 745.73 877.147 738.072C879.324 730.413 884.855 725.273 889.499 726.59C894.144 727.908 896.143 735.184 893.966 742.842C891.788 750.501 886.258 755.641 881.613 754.324Z" fill="#545ED7"/>
<path d="M982.268 339.098C982.268 339.098 941.12 327.524 915.979 362.486C894.755 390.483 873.386 434.33 873.386 434.33C873.386 434.33 822.678 343.44 840.03 316.814C857.385 290.192 958.99 285.818 982.268 339.098Z" fill="#A21C21"/>
<path d="M1032.44 451.358L934.995 646.443C934.995 646.443 901.007 714.194 875.263 725.408C849.523 736.623 769.215 716.528 757.004 695.503C744.794 674.479 797.86 568.058 797.86 568.058" stroke="white" stroke-width="9" stroke-miterlimit="10"/>
<path d="M989.847 541.911C997.38 545.202 1006.72 540.47 1010.7 531.352C1014.69 522.225 1011.82 512.157 1004.28 508.866C996.75 505.575 987.417 510.309 983.429 519.436C979.446 528.555 982.321 538.623 989.847 541.911Z" fill="#FFF7CF"/>
<path d="M992.474 535.895C997.267 537.989 1003.21 534.98 1005.74 529.182C1008.28 523.376 1006.45 516.974 1001.66 514.88C996.87 512.789 990.93 515.798 988.394 521.604C985.861 527.402 987.689 533.804 992.474 535.895Z" fill="#FF7915"/>
<path d="M825.013 528.424C825.013 528.424 761.904 534.632 785.182 593.085C795.528 619.064 927.487 650.375 929.322 620.098C931.157 589.821 969.349 569.294 969.349 569.294L825.013 528.424Z" fill="#E32E36"/>
<path d="M1023.65 456.532C1023.65 456.532 1005.44 454.765 1007.01 443.341C1013.94 393.121 998.178 318.069 928.295 310.142C858.413 302.216 837.464 322.458 837.464 322.458C837.464 322.458 840.03 299.505 852.346 287.562C869.416 271.01 880.135 265.863 921.012 267.26C961.889 268.656 979.006 273.902 991.234 281.596L991.855 281.986C991.855 281.986 1019.14 274.73 1042.59 305.372C1062.39 331.245 1054.82 369.001 1054.82 369.001L1023.65 456.532Z" fill="#EE4A51"/>
<path d="M1025.91 434.361C1025.91 434.361 1035.8 378.121 1023.78 337.147C1011.75 296.173 971.922 273.402 971.922 273.402C971.922 273.402 1017.68 273.751 1042.9 305.026C1074.39 344.061 1050.55 400.147 1050.55 400.147C1050.55 400.147 1024.69 461.694 1023.78 455.497C1022.87 449.3 1025.91 434.361 1025.91 434.361Z" fill="#E32E36"/>
</svg>
