<svg width="414" height="711" viewBox="0 0 414 711" fill="none" xmlns="http://www.w3.org/2000/svg">
<path d="M-101 506.477C-92.7249 464.309 -57.5068 437.702 -37.0426 419.896C6.61005 381.933 -20.6575 352.258 2.30884 300.5C20.0232 260.571 59.3206 255.215 80.653 212.549C93.7502 186.366 84.0404 151.754 106.141 120.902C131.266 85.8167 170.05 89.1273 194.787 51.2784C218.81 14.5121 249.513 -7.43659 288.238 3.30982C298.492 4.32691 299.272 6.7742 310.089 14.777C347.072 42.1302 374.613 51.6516 374.613 51.6516C395.624 123.674 440.5 131.398 463.057 162.036C499.761 211.89 476.171 249.531 495.776 298.782C538.13 405.186 401.448 441.881 425.408 506.479H-101V506.477Z" fill="#002869"/>
<path d="M428.098 506.477H190.993C197.717 426.181 220.136 390.765 224.608 341.398C225.164 335.267 238.153 328.535 257.592 327.578C301.82 325.435 377.226 333.566 380.605 342.968C395.843 385.358 426.304 420.797 428.098 506.477Z" fill="#DE383F"/>
<path d="M426 627.714V505.171L395.84 446L191 505C177.747 777.776 244.87 698.242 319.302 705.51C412.342 714.596 426 666.896 426 627.714Z" fill="#DE383F"/>
<path d="M217.799 291.74C218.03 299.293 218.326 338.934 222.078 343.64C249.795 378.398 376.028 357.894 385.031 347.985C395.379 336.597 382.734 305.615 380.608 294.857C376.161 272.364 442.806 324.352 442.806 324.352C467.213 298.404 468.559 263.658 460.364 231.299C452.761 201.27 433.982 172.803 406.583 153.45C376.793 132.41 335.765 121.806 294.697 121.806C182.889 121.806 138.103 231.276 155.863 286.088C161.459 303.364 217.37 277.623 217.799 291.74Z" fill="#545ED7"/>
<path d="M188.462 390.483C187.477 392.817 189.339 396.207 198.494 397.728C203.988 398.64 204.304 397.828 210.461 398.452C217.984 399.215 224.008 403.352 227.919 399.329C230.885 396.275 229.308 392.885 231.187 389.033C232.975 385.367 247.433 372.919 255.935 366.469C255.935 366.469 244.142 352.389 237.395 347.985C237.395 347.985 226.598 368.535 215.2 380.03C210.746 384.523 202.624 387.147 199.228 387.854C190.668 389.64 189.248 388.62 188.462 390.483Z" fill="#FDB88E"/>
<path d="M304.797 80.9086C311.142 82.2362 313.638 81.8174 316.414 81.9228C318.631 82.0054 320.524 83.2561 320.524 83.2561L325.474 71.1109C323.883 69.5183 317.601 63.1907 309.289 60.4784C307.8 59.9912 298.947 58.4642 297.982 59.6437C297.313 60.4585 298.312 61.0795 299.738 61.5496C296.69 61.0026 293.385 60.7234 293.012 61.9684C292.773 62.7662 294.096 63.5297 295.819 64.1764C293.359 63.618 291.52 63.467 291.099 64.2904C290.33 65.7946 294.014 67.3502 296.692 68.2362C294.799 67.7206 292.978 67.4129 292.813 68.3616C292.445 70.4527 299.115 71.8117 302.053 72.9627C304.504 73.9228 306.804 75.8886 306.832 76.3502C304.381 77.4014 298.435 75.6892 297.951 78.3388C297.697 79.7205 300.211 79.9484 304.797 80.9086Z" fill="#FDB88E"/>
<path d="M410.05 265.301C408.547 242.859 415.607 223.546 411.289 186.857C410.213 177.7 403.865 152.014 392.76 138.108C339.349 71.2274 306.332 86.3014 294.976 83.3356C289.835 81.9937 279.554 97.441 282.13 99.233C315.648 132.985 344.072 145.549 342.253 167.187C334.345 172.774 335.321 180.042 329.215 190.669C309.984 224.142 317.416 246.743 307.077 273.321C301.897 286.64 281.666 287.452 262.164 309.096C249.015 323.688 226.399 341.956 218.762 368.711C218.016 371.623 235.061 388.822 237.569 385.956C254.785 376.833 294.08 347.982 307.997 344.825C333.445 339.053 370.514 348.796 392.76 327.227C408.858 311.62 411.69 289.794 410.05 265.301Z" fill="white"/>
<path d="M314.595 73.9771L325.233 133.983C326.884 148.985 271.119 150.253 268.722 134.011L270.766 110.53L314.595 73.9771Z" fill="#DE383F"/>
<path d="M325.216 77.029C324.328 105.425 302.278 123.126 281.615 121.73C267.271 120.761 258.671 106.04 255.457 97.6073C255.446 97.5759 255.426 97.536 255.414 97.5047C253.86 93.7241 252.958 89.6785 252.682 85.6814C252.571 83.9178 252.636 82.2284 252.756 80.5161C252.841 79.2255 252.958 77.915 253.046 76.556C253.183 74.3766 253.083 72.0632 253.015 69.4222C252.807 61.1829 254.341 57.5931 256.015 54.7327C264.003 41.0661 276.838 49.3994 287.974 27.3083C295.162 13.0804 325.97 52.935 325.216 77.029Z" fill="#FDB88E"/>
<path d="M296.164 86.0543C295.053 92.5102 301.196 98.0401 307.909 95.5842C309.944 94.8378 311.606 93.2651 312.46 91.2708C315.316 84.6042 309.944 78.0743 303.314 79.0515C299.651 79.5928 296.793 82.3991 296.164 86.0543Z" fill="#DE383F"/>
<path d="M262.164 89.323C262.058 93.3628 259.183 96.6677 255.414 97.5053C253.86 93.7247 252.958 89.6791 252.682 85.6819C252.571 83.9184 252.636 82.229 252.756 80.5167C253.097 80.4854 253.445 80.4711 253.798 80.4797C258.549 80.605 262.292 84.5708 262.164 89.323Z" fill="#DE383F"/>
<path d="M288.236 3.31074C291.959 -0.432835 350.704 -11.4983 374.673 47.6981C386.691 77.3818 383.896 82.2023 407.067 111.234L425.029 169.316C383.497 127.487 360.756 149.202 325.227 130.573C307.467 121.259 312.113 97.7065 310.596 67.8405C309.306 42.5044 270.026 45.6953 277.268 28.9118C287.746 4.62413 288.236 3.31074 288.236 3.31074Z" fill="#002869"/>
<path d="M300.183 298.549C294.561 295.327 287.416 293.7 284.635 292.578C278.722 290.193 272.895 284.783 271.637 287.156C268.403 293.247 284.117 300.344 283.459 304.202C281.885 305.657 275.355 305.142 270.84 304.281C265.431 303.25 250.8 296.122 250.026 299.324C249.377 302.011 259.918 307.512 263.689 308.717C259.758 307.495 243.211 300.199 243.256 304.828C243.291 308.221 262.793 314.808 265.406 315.615C264.125 315.284 245.639 308.296 245.918 311.717C246.24 315.68 263.316 320.64 265.932 321.447C264.31 321.042 248.614 314.558 249.152 318.82C249.485 321.461 264.731 327.62 267.347 328.429C278.87 332.002 310.066 330.523 313.898 329.652L320.237 311.934C320.237 311.934 313.724 306.962 310.368 305.022C306.166 302.6 302.292 299.76 300.183 298.549Z" fill="#FAB898"/>
<path d="M297.385 332.512C314.464 347.985 401.949 360.771 442.803 324.35C442.803 324.35 410.551 241.205 409.911 254.472C408.59 281.902 358.37 303.843 311.433 294.387C304.046 293.746 291.84 325.085 297.385 332.512Z" fill="#545ED7"/>
<path d="M330.146 271.914C334.983 267.598 341.638 264.532 344.129 262.86C349.42 259.307 354.006 252.809 355.729 254.869C360.149 260.159 346.238 270.35 347.676 273.991C349.517 275.091 355.8 273.236 360.038 271.461C365.119 269.336 377.966 259.339 379.381 262.31C380.571 264.806 371.391 272.367 367.949 274.324C371.544 272.316 386.23 261.76 387.138 266.299C387.804 269.626 370.081 280.099 367.69 281.43C368.874 280.84 385.521 270.185 385.957 273.592C386.458 277.538 370.773 285.917 368.382 287.248C369.888 286.515 383.904 276.928 384.26 281.21C384.479 283.863 370.83 293.04 368.439 294.373C357.9 300.25 327.072 305.247 323.144 305.185L313.289 289.159C313.289 289.159 318.634 282.948 321.518 280.359C325.128 277.114 328.333 273.532 330.146 271.914Z" fill="#FDB88E"/>
<path d="M336.26 308.481C320.701 328.327 180.443 360.244 155.615 285.307C155.615 285.307 219.504 219.82 220.575 233.062C223.549 269.917 281.159 281.903 321.951 278.991C329.34 278.347 341.806 301.054 336.26 308.481Z" fill="#545ED7"/>
<path d="M265.158 75.6441C258.238 76.2795 255.152 72.5587 254.999 72.3678C254.668 71.9547 254.734 71.3507 255.147 71.0202C255.559 70.6926 256.157 70.7553 256.49 71.1655C256.661 71.3706 260.401 75.7211 269.397 72.7894C269.903 72.6242 270.439 72.9005 270.604 73.4048C270.769 73.9091 270.493 74.4504 269.989 74.6128C268.207 75.1911 266.599 75.5102 265.158 75.6441Z" fill="#002869"/>
<path d="M294.097 76.7751C289.815 77.1683 286.641 75.6384 286.428 75.5329C285.955 75.2965 285.759 74.7238 285.995 74.248C286.229 73.7751 286.804 73.5814 287.276 73.815C287.581 73.9631 294.817 77.4019 301.922 71.3478C302.326 71.0059 302.93 71.0515 303.271 71.456C303.613 71.8577 303.565 72.4646 303.163 72.8065C300.012 75.4902 296.829 76.5244 294.097 76.7751Z" fill="#002869"/>
<path d="M277.937 95.0739C276.826 95.1764 275.679 95.0311 274.64 94.6237C272.89 93.9343 271.703 92.5782 271.384 90.9001C270.974 88.7434 272.32 86.9799 273.621 85.2762C274.267 84.43 274.933 83.5554 275.355 82.6636C276.815 79.5782 276.943 74.3674 276.946 74.3161C276.957 73.7862 277.401 73.3674 277.922 73.3788C278.452 73.3902 278.87 73.8289 278.859 74.356C278.853 74.5867 278.719 80.0283 277.085 83.4842C276.579 84.5582 275.847 85.5155 275.141 86.4386C274 87.9343 273.015 89.2249 273.262 90.5411C273.527 91.9343 274.677 92.5782 275.338 92.8403C276.909 93.4585 278.882 93.242 280.14 92.316C280.564 92.0027 281.165 92.0938 281.478 92.5183C281.791 92.9457 281.7 93.544 281.276 93.8574C280.342 94.5468 279.161 94.9599 277.937 95.0739Z" fill="#DE383F"/>
<path d="M280.097 104.981C275.372 105.015 271.808 102.972 271.586 102.841C271.13 102.573 270.977 101.986 271.244 101.53C271.512 101.075 272.098 100.921 272.554 101.189C272.642 101.24 279.949 105.385 287.046 101.083C287.496 100.81 288.085 100.952 288.361 101.405C288.634 101.858 288.492 102.448 288.037 102.721C285.281 104.391 282.534 104.963 280.097 104.981Z" fill="#DE383F"/>
<path d="M372.318 87.7045C363.884 73.9695 348.461 85.5991 348.461 85.5991C333.838 81.055 318.484 82.8299 309.972 91.9125C306.861 95.2344 308.501 99.884 313.354 100.83C306.966 101.422 300.943 104.696 298.506 108.576C295.711 113.026 298.546 121.363 310.006 124.237C316.981 125.986 325.594 122.955 334.069 122.761C338.051 122.67 343.778 124.804 349.278 127.887C353.955 133.853 357.952 141.813 360.121 146.582C361.815 150.3 367.878 151.212 371.043 148.63C371.601 148.174 372.068 152.969 372.7 152.975C379.426 153.023 379.495 128.85 379.495 128.85C385.928 119.029 390.121 90.9581 372.318 87.7045Z" fill="#002869"/>
<path d="M369.68 134.821L374.676 164.829L338.398 175.274L338.544 158.399L369.68 134.821Z" fill="#DE383F"/>
<path d="M365.353 143.613C363.483 161.511 348.128 165.314 339.452 165.032C331.581 164.784 326.682 159.85 322.321 153.596C322.121 153.308 321.888 152.946 321.643 152.531C320.536 150.659 319.098 147.756 318.617 146.32C317.903 144.22 317.632 141.909 317.823 139.465C317.88 138.579 318.011 137.684 318.196 136.764C318.421 135.716 318.566 134.633 318.626 133.562C318.634 133.428 318.64 133.294 318.637 133.157C318.723 131.508 318.626 129.844 318.378 128.211C318.133 126.485 317.9 124.67 317.755 123.26C317.089 116.776 317.106 108.898 320.525 106.616C325.677 102.625 364.049 82.4224 370.007 117.058C370.38 119.237 367.764 122.26 366.736 127.531C377.391 123.137 375.643 144.787 365.353 143.613Z" fill="#FDB88E"/>
<path d="M345.685 143.274C345.856 147.257 349.218 150.345 353.195 150.177C357.174 150.006 360.26 146.642 360.092 142.662C359.921 138.679 356.56 135.59 352.583 135.758C348.603 135.927 345.518 139.291 345.685 143.274Z" fill="#DE383F"/>
<path d="M322.321 152.539C322.09 152.55 321.862 152.55 321.646 152.531C320.539 150.659 319.101 147.756 318.62 146.32C317.906 144.22 317.635 141.909 317.826 139.465C318.919 138.667 320.248 138.18 321.7 138.117C325.685 137.958 329.047 141.046 329.21 145.023C329.38 149.012 326.295 152.377 322.321 152.539Z" fill="#DE383F"/>
<path d="M315.008 117.476C315.008 117.476 308.574 95.4619 330.684 89.1941C353.198 82.8152 353.212 92.9605 353.212 92.9605C358.877 89.6015 370.539 81.2711 379.344 93.8579C385.612 102.821 385.347 114.493 378.917 124.314C376.07 128.661 367.047 122.51 365.299 132.254C359.452 132.562 359.605 119.946 354.547 111.413C353.898 110.319 352.435 110.049 351.422 110.815C346.753 114.354 319.189 122.08 315.008 117.476Z" fill="#002869"/>
<path d="M351.683 132.696C352.364 132.197 352.731 131.767 352.777 131.713C353.021 131.419 352.981 130.981 352.685 130.736C352.392 130.494 351.96 130.531 351.712 130.824C351.587 130.975 348.612 134.385 342.885 132.343C342.523 132.214 342.127 132.402 341.999 132.761C341.871 133.12 342.059 133.519 342.418 133.647C347.035 135.294 350.152 133.818 351.683 132.696Z" fill="#002869"/>
<path d="M331.057 134.453C331.353 134.237 331.273 133.607 331.068 133.296C330.858 132.977 330.351 132.784 330.032 132.994C329.887 133.088 326.391 135.231 322.244 132.345C321.931 132.125 321.481 132.177 321.262 132.49C321.046 132.804 321.268 133.436 321.584 133.655C326.525 137.097 330.863 134.596 331.031 134.47C331.04 134.465 331.049 134.459 331.057 134.453Z" fill="#002869"/>
<path d="M341.709 149.858C342.014 149.633 342.187 149.348 341.965 149.038C341.743 148.727 341.362 148.724 341.051 148.946C341.02 148.969 337.826 151.248 334.974 149.71C334.635 149.528 334.228 149.673 334.049 150.009C333.867 150.345 333.895 150.633 334.234 150.815C337.858 152.77 341.547 149.981 341.706 149.864C341.703 149.861 341.706 149.858 341.709 149.858Z" fill="#DE383F"/>
<path d="M338.259 144.638C338.558 144.419 338.603 143.966 338.396 143.655C338.182 143.336 337.738 143.234 337.419 143.447C336.463 144.088 335.469 144.299 334.704 144.046C334.317 143.918 334.015 143.664 333.918 143.393C333.545 142.339 333.932 141.841 334.849 140.821C335.888 139.664 337.311 138.077 336.896 134.804C336.847 134.425 336.5 134.154 336.121 134.202C335.743 134.248 335.475 134.596 335.521 134.977C335.857 137.621 334.82 138.775 333.818 139.892C332.942 140.869 331.948 141.975 332.609 143.852C332.848 144.527 333.494 145.128 334.288 145.39C334.98 145.618 336.491 145.937 338.233 144.658C338.245 144.65 338.253 144.644 338.259 144.638Z" fill="#DE383F"/>
<path d="M233.734 182.986C231.787 184.846 236.484 188.878 236.951 191.507C236.55 191.735 233.643 190.892 231.497 189.368C228.924 187.544 224.127 182.712 222.581 184.165C221.878 184.826 223.139 186.18 224.608 187.482C222.396 185.727 219.074 183.502 218.24 184.969C217.782 185.775 218.918 187.228 220.734 188.98C219.248 187.895 217.882 187.205 217.349 187.844C216.515 188.841 218.565 191.448 220.694 193.701C219.519 192.764 218.454 192.271 218.138 193.277C217.682 194.732 223.823 201.296 225.047 202.277C231.876 207.741 240.612 209.522 242.812 209.977L250.236 199.168C250.236 199.168 248.155 198.271 246.866 196.462C245.255 194.2 244.233 191.881 239.641 187.302C236.325 183.992 234.754 182.014 233.734 182.986Z" fill="#FDB88E"/>
<path d="M335.46 169.319C317.803 180.029 300.356 197.037 248.522 193.658C245.613 192.487 234.742 207.995 238.685 211.556C248.75 220.647 319.201 256.635 369.369 225.074C388.151 213.259 401.541 182.741 385.842 163.097C381.02 157.063 371.757 147.305 335.46 169.319Z" fill="white"/>
<path d="M380.252 129.208C380.175 129.208 380.098 129.194 380.021 129.166C379.697 129.04 379.534 128.673 379.663 128.345C385.279 113.909 386.096 101.924 381.963 94.5959C379.87 90.8865 376.597 88.5503 372.498 87.8409C372.344 87.8153 372.204 87.7298 372.108 87.6073C364.351 77.7014 355.805 82.1487 351.216 84.5361C349.554 85.4022 348.717 85.8353 348.085 85.4734C346.579 84.613 329.349 79.5304 315.124 88.5048C314.831 88.6928 314.438 88.6045 314.253 88.3082C314.065 88.0119 314.157 87.6216 314.45 87.4364C329.107 78.1886 346.428 83.1971 348.635 84.3338C348.948 84.294 349.842 83.8296 350.636 83.4165C355.173 81.0546 364.587 76.1544 372.956 86.6387C377.328 87.4649 380.821 89.9976 383.067 93.9777C387.391 101.644 386.603 114.015 380.847 128.809C380.744 129.055 380.505 129.208 380.252 129.208Z" fill="#545ED7"/>
</svg>
