<svg width="43" height="50" fill="none" xmlns="http://www.w3.org/2000/svg"><path d="M41.935 9.095L22.222.135c-.537-.18-1.075-.18-1.434 0L1.075 9.094C.358 9.453 0 9.991 0 10.708v14.158C0 30.063 2.33 34.9 6.272 38.127l13.979 11.47c.717.537 1.613.537 2.33 0l13.978-11.47a17.104 17.104 0 006.273-13.261V10.708c.179-.717-.18-1.255-.897-1.613zm-2.509 15.77c0 4.123-1.792 7.886-5.017 10.574L21.505 46.013 8.602 35.439c-3.226-2.509-5.018-6.451-5.018-10.573V11.783L21.505 3.72l17.921 8.064v13.083z" fill="#DE383F"/><path d="M15.591 20.206c-.716-.717-1.792-.717-2.509 0-.716.717-.716 1.792 0 2.51l5.377 5.375c.717.717 1.792.717 2.509 0l8.96-8.96c.717-.717.717-1.792 0-2.51-.716-.716-1.792-.716-2.509 0l-7.706 7.707-4.122-4.122z" fill="#DE383F"/></svg>