<svg width="40" height="51" fill="none" xmlns="http://www.w3.org/2000/svg"><path d="M19.544 20.246A10.821 10.821 0 008.717 31.072 10.821 10.821 0 0019.544 41.9 10.821 10.821 0 0030.37 31.072c.142-5.983-4.844-10.826-10.826-10.826zm1.14 19.373v-.427c0-.57-.428-1.14-1.14-1.14-.713 0-.998.57-.998 1.14v.427c-3.846-.57-6.98-3.56-7.407-7.55h.427c.57 0 1.14-.427 1.14-1.14 0-.569-.428-1.139-1.14-1.139h-.57c.57-3.988 3.562-6.98 7.55-7.55v.428c0 .57.428 1.14 1.14 1.14s1.14-.428 1.14-1.14v-.428a8.763 8.763 0 017.407 7.408h-.427c-.57 0-1.14.427-1.14 1.14 0 .57.427 1.14 1.14 1.14h.427c-.57 4.13-3.561 7.264-7.55 7.691z" fill="#DE383F"/><path d="M22.82 26.229l-1.71 1.71c-1.424-.713-2.991-.428-4.13.57-1.425 1.424-1.425 3.56 0 4.985 1.424 1.425 3.56 1.425 4.985 0 .712-.712.997-1.567.997-2.564 0-.57-.142-1.14-.427-1.567l1.71-1.71a1.118 1.118 0 000-1.566c-.286-.285-.998-.285-1.425.142zm-2.28 5.698c-.57.427-1.424.427-1.851 0a1.526 1.526 0 01-.143-1.994c.428-.57 1.425-.57 1.995-.143.57.428.712 1.567 0 2.137z" fill="#DE383F"/><path d="M32.649 48.451h-4.131c9.544-4.843 13.39-16.524 8.547-26.21-3.134-6.268-9.402-10.257-16.382-10.684V7.283H32.65c.57 0 1.14-.427 1.14-1.14V1.87c0-.57-.428-1.14-.998-1.14H6.581c-.57 0-.998.428-.998 1.14v4.274c0 .57.428 1.14 1.14 1.14h11.823v4.415C7.72 12.127-.542 21.243.028 32.07c.285 6.98 4.416 13.248 10.683 16.382h-4.13c-.57 0-1.14.428-1.14 1.14 0 .57.427 1.14 1.14 1.14h26.068c.57 0 1.14-.428 1.14-1.14-.143-.712-.57-1.14-1.14-1.14zM7.72 2.867h23.79v2.137H7.72V2.867zM2.307 31.072c0-9.544 7.835-17.379 17.379-17.236 9.544.142 17.379 7.835 17.236 17.379 0 9.544-7.834 17.236-17.378 17.236-9.545 0-17.237-7.834-17.237-17.379z" fill="#DE383F"/></svg>